<svg xmlns="http://www.w3.org/2000/svg" width="578" height="580" fill="none" viewBox="0 0 578 580"><path fill="#fff" fill-rule="evenodd" d="M129.911 460.946c3.074-3.075 4.199-4.483 5.032-5.866-.301-.636-.67-1.434-1.082-2.31-.782-1.675-1.7-3.659-2.542-5.42-3.4-7.232-5.22-11.586-3.117-17.117 1.675-4.406 6.372-8.692 10.948-9.997a15.5 15.5 0 0 1 4.379-.61c2.791 0 5.994.67 10.545 1.812 9.247 2.276 12.897 3.058 19.569 4.209 9.969 1.735 14.863 3.023 19.886 8.056 3.169 3.169 4.731 6.244 10.587 19.127.009.025.026.051.035.077.42-8.614.953-17.615 1.425-24.126 1.529-20.887 1.769-23.902 2.885-32.834 4.517-36.321 14.254-62.937 28.164-76.98 6.2-6.244 13.524-10.53 26.155-15.288 5.624-2.095 15.276-5.445 21.527-6.226 2-3.891 4.053-7.49 6.319-11.037-.274 0-.549.009-.833.009-9.093 0-17.473-4.492-27.992-15.022-9.067-9.035-15.627-18.912-21.939-33.057-3.889-8.804-6.551-16.98-9.479-29.176-2.447-10.272-4.697-24.04-5.47-33.478 0 0-.008-.147-.008-.172-1.211-.696-3.135-1.77-6.209-3.41-10.578-5.72-19.165-13.184-22.943-19.926-3.967-6.965-5.968-15.347-5.341-22.45.627-6.897 3.323-15.494 6.543-20.914 3.392-5.685 9.858-11.14 16.469-13.896l.095-.043c.189-.077.618-.249.979-.404.223-.386.489-.893.644-1.185 8.895-16.499 21.475-26.1 38.442-29.356a49.7 49.7 0 0 1 9.66-.936c6.457 0 13.446 1.237 21.337 3.779l3.813 1.211.927-.275c6.174-1.864 9.72-2.413 15.86-2.456 11.557 0 21.449 3.22 30.259 9.851.438.335.858.661 1.279.988 2.07-.576 4.525-.335 6.835 1.357.61.446 1.228 1.005 1.932 1.752 1.606 1.718 2.885 3.994 3.735 6.424.146.009.292.017.447.034 3.503.292 8.397 1.735 11.652 4.879 2.902 2.765 3.898 5.694 2.979 8.709a32.8 32.8 0 0 1 5.273 7.54c.163.301.317.584.455.834 3.426 1.322 5.426 2.799 8.775 6.149 3.701 3.659 4.749 5.127 6.972 9.757 1.331 2.697 2.92 6.836 3.607 9.37 1.296 4.664 1.331 5.832 1.211 15.021-.121 14.67-1.52 21.463-7.136 34.604-1.168 2.714-3.684 8.932-5.624 13.871-1.992 5.041-5.367 12.711-7.505 17.065-4.018 8.297-6.929 15.357-8.655 20.965l-.138.447q-.695 2.285.438 10.847l.181 1.349c.661 5.024 1.417 9.98 2.018 13.527.051.008.24.051.24.051 5.332 1.16 8.999 5.05 13.893 11.818 7.96 10.968 12.622 19.033 12.579 26.453a218 218 0 0 1 8.08 2.835c7.333 2.765 29.006 12.359 37.421 16.567 4.98 2.508 15.147 8.666 19.406 11.741 7.436 5.316 15.516 15.708 21.612 27.775 5.143 10.126 9.274 21.936 13.421 38.306 3.838 15.287 8.286 39.456 11.6 63.092 3.632 26.169 4.577 40.031 4.577 67.455v22.442l-1.915 3.753c-1.606 3.058-2.971 4.69-9.213 11.629a462 462 0 0 0-5.745 6.562c-2.267 2.654-4.078 4.775-7.444 4.947-.344.129-.704.241-1.099.344-.91.249-2.035.489-3.255.712l-.128.026c-2.053.335-6.75 1.117-10.45 1.752-7.977 1.375-13.979 2.199-19.552 2.654-.06 2.328-.163 5.463-.292 9.577-.558 18.07-1.048 22.055-2.267 24.889l-2.782 6.442-2.576-.266q.027.901.043 1.906c.086 3.324.069 6.193-.06 8.692l-2.258 11.517s-.026.06-.043.095l-14.872-.782-.163-1.297c-.018-.128-.026-.266-.035-.412a22 22 0 0 1-1.528-.618c-2.327-1.065-7.591-4.509-11.266-7.189-5.924 4.037-14.837 8.906-23.278 12.617-5.401 2.353-16.838 6.192-23.046 7.747-6.621 1.692-14.958 3.126-21.759 3.736-3.203.283-5.281.498-5.676.558l-.128.017c-6.354.79-24.678-.36-33.213-1.769-8.57-1.417-19.707-4.097-27.744-6.691-11.368-3.71-20.977-8.554-29.331-14.772-2.456-1.795-6.131-5.196-7.196-6.192-.979-.919-1.898-1.778-2.722-2.62h-.635l-2.207-2.267c-2.679-2.757-3.091-3.178-1.915-48.389.129-4.741.241-8.958.361-12.762-2.817-.018-6.621-.129-9.214-.413-10.982-1.211-25.493-8.485-33.015-16.55-1.28-1.357-2.55-3.221-3.504-5.102-.025-.051-.051-.094-.068-.146-6.895-.584-11.944-2.293-15.353-5.179h-.361c-.377 0-3.735-.017-5.753-.549l-.146-.035-.137-.043c-5.315-1.64-5.873-5.934-5.916-7.214-.06-1.778.403-3.178 1.125-4.277l-.318-.352a10 10 0 0 1-.756.257 7.67 7.67 0 0 1-2.224 4.982 7.7 7.7 0 0 1-5.478 2.267c-5.289 0-8.638-5.136-9.54-8.434-.3-1.099-.489-2.405-.575-3.796-2.292-1.512-3.838-3.212-3.864-3.255l-.137-.172c-.567-.739-2.37-3.358-2.439-6.562-.747-2.052-.721-4.466-.352-6.776h-2.335l-2.199-3.564c-1.7-2.757-1.185-5.36-.438-7.266-.257-.318-.498-.645-.747-.954-.686-.893-2.387-3.16-3.357-4.981l-.077-.146c-.936-1.864-1.821-4.681-2.164-6.854-1.245-7.979 1.923-11.577 7.625-17.237z" clip-rule="evenodd"/><path fill="#0089DE" fill-rule="evenodd" d="m285.826 396.076-37.927-2.396-.077 35.746 15.593 10.821 19.552-9.55zM357.019 271.06a18 18 0 0 1 2.962-.206c1.975.034 3.641.403 4.868.79l11.67 13.106 6.92 14.798a146 146 0 0 1-11.686 21.223 146.3 146.3 0 0 1-21.355 25.328c-5.495-7.928-13.034-13.716-18.53-21.644 7.625-7.841 17.285-17.83 24.91-25.671 1.125-2.268 3.211-7.266 2.765-13.785a26.8 26.8 0 0 0-3.091-10.744" clip-rule="evenodd"/><path fill="#E3E7F6" d="M350.08 204.489c-.781.172-1.597.284-2.395.172-1.28-.189-2.422-.936-3.478-1.666-.24-.163-.489-.343-.55-.618-.051-.189 0-.378.052-.559a20.4 20.4 0 0 1 3.692-7.111c1.675-2.096 3.924-3.908 6.577-4.277 2.036-.284 4.242.524 5.522 2.147 1.142 1.46.592 2.809-.155 4.363-1.777 3.71-5.229 6.63-9.265 7.532zM309.49 355.495c-1.254 5.969-2.971 11.835-4.396 17.779-7.788 32.473-6.054 67.06 3.881 98.941-.988-3.187-.223-8.769-.077-12.145.18-4.045.36-8.09.549-12.135.404-8.392.859-16.791 1.443-25.182 1.142-16.551 2.722-33.075 5.229-49.488.429-2.851 5.581-20.604 4.147-23.198-1.288-2.345-6.036-3.839-8.028-5.875l-2.748 11.294zM291.648 564.765c-.232 2.422-.601 6.176-1.09 10.771-.722 6.716-1.28 11.397-1.383 12.264-2 17.384 4.912 51.523 5.212 51.472.035 0-.008-.395-.197-2.431-.129-1.417-.266-3.495-.275-6.39 0-2.945-.009-5.891-.009-8.846.009-6.115.061-12.239.198-18.354.421-18.311 2.293-26.092 2.129-36.149-.051-3.084.009-5.257.129-9.611.026-1.005.095-3.35.43-6.407.06-.533.111-.971.146-1.263-1.761 4.982-3.53 9.963-5.29 14.944"/><path fill="#0089DE" fill-rule="evenodd" d="m306.717 279.468-14.262 21.325c-.498 6.983-3.186 6.923-.936 16.035 3.117 12.583 2.035 17.452 4.894 25.998 9.549-2.8 22.411 14.721 25.983 1.976-1.416-10.264-1.528-29.365-6.92-40.247.077-2.533-.687-6.613-1.58-13.097" clip-rule="evenodd"/><path fill="#E3E7F6" d="M259.792 217.776c.232-8.614 1.366-13.424 1.804-22.407-.121-2.448.893-9.551-1.855-16.07-1.185-6.802-11.103-19.11-15.198-21.154-4.654-2.817-7.436 6.158-12.09 3.333 1.94 12.608 3.881 25.199 5.83 37.816A274 274 0 0 1 243.761 218c2.207 8.708 1.503 12.556 5.083 16.481 3.366 3.668 9.643 6.682 14.684 6.485 2.49-.095 4.954-.773 7.324-1.512.841-.258 4.336-2.001 5.152-1.555-2.482-1.339-6.474-1.271-10.003-5.324-1.374-1.572-3.667-4.716-5.006-9.938l-1.194-4.861z"/><path fill="#E3E7F6" fill-rule="evenodd" d="M217.245 541.902c19.569 8.658 23.587 12.076 23.141 13.519-.782 2.525-16.006 1.263-29.186-4.792-9.892-4.544-19.543-12.196-18.478-14.429.583-1.22 4.284-.696 7.796.077" clip-rule="evenodd"/><path fill="#E3E7F6" d="M296.689 168.606c-.403.301-.961.327-1.468.301-1.073-.069-2.104-.404-3.16-.533-3.898-.455-7.719 1.77-11.652 1.461-.541-.043-1.099-.146-1.571-.387-1.202-.627-1.632-2.044-1.803-3.315-.447-3.427.274-6.905 1.09-10.281.275-1.091.713-2.362 1.855-2.688.661-.189 1.374.017 2.026.24a30.5 30.5 0 0 1 8.561 4.561c2.147 1.632 4.877 3.848 6.062 6.235.541 1.091 1.254 3.513.043 4.415l.017-.017z"/><path fill="#E3E7F6" fill-rule="evenodd" d="M340.643 540.692c-2.55 2.13-6.732.996-7.942.687-8.295-2.07-9.815 1.889-35.351-.464-17.637-1.623-26.439-2.456-33.394-6.914-9.29-5.943-15.481-15.597-14.047-17.271 1.124-1.306 7.908 7.42 22.076 11.259 3.735 1.014 13.652 3.693 24.18 2.594 1.58-.163 4.551-.558 8.552-.086 5.263.627 8.423 2.285 11.223 3.367 13.326 5.127 25.279-.438 26.481 3.083.446 1.306-.885 2.989-1.786 3.745zM174.845 477.359a13.8 13.8 0 0 0-3.083-1.692c-3.537-1.4-6.774-.988-8.406-.661 0 0-7.341-.284-12.519 2.387 0 0-7.342 2.663-10.879 5.171-.773 4.827-2.302 8.09-3.624 10.237-.489.782-.987 1.486-.824 1.641.584.575 7.917-7.962 16.89-12.651 4.559-2.379 11.746-4.922 22.454-4.423zM184.797 482.993a23.9 23.9 0 0 0-10.192-.232 23.7 23.7 0 0 0-5.702 1.898 221 221 0 0 0-4.894 1.666 216 216 0 0 0-7.754 2.92s-7.342 2.663-10.879 5.171c-.524.695-3.598 4.827-4.345 8.691-.386 1.984-.06 3.393.026 3.762.249 1.014.515 2.07 1.004 2.156 1.314.241 2.138-6.768 6.234-11.586 3.006-3.539 6.475-4.389 13.584-6.596 5.29-1.641 13.103-4.191 22.909-7.859zM190.343 490.937a17.65 17.65 0 0 0-7.599-.91c-4.766.489-8.02 2.825-9.325 3.89a32 32 0 0 0-4.251 1.16 32.7 32.7 0 0 0-7.753 3.933 24.4 24.4 0 0 0-3.778 1.847 25.6 25.6 0 0 0-5.934 4.896c-1.313 1.863-3.426 5.479-3.409 10.194.009 3.857 1.443 7.558 2.138 7.472.808-.094-.678-5.179 1.709-10.323 1.975-4.26 5.599-6.416 12.09-10.152 3.735-2.147 5.925-2.972 13.301-6.218a707 707 0 0 0 12.82-5.789zM145.693 457.253a6.5 6.5 0 0 0-2.49.67c-3.151 1.589-3.812 5.299-3.898 5.849a221 221 0 0 1-2.765 2.894 190 190 0 0 1-5.659 5.574 11.62 11.62 0 0 0 .31 8.46c.936 1.486 1.708 2.697 2.241 3.538 2.043 3.221 2.455 3.857 2.696 3.771.601-.206-1.589-4.458-.756-9.345.584-3.427 2.267-4.887 4.62-8.606 1.803-2.834 4.027-7.025 5.693-12.814z" clip-rule="evenodd"/><path fill="#09151F" fill-rule="evenodd" d="M335.31 651.305c.79-.111 3.529-.378 6.079-.601 6.303-.567 14.254-1.915 20.557-3.53 6.002-1.503 16.992-5.213 21.913-7.352 9.72-4.277 19.998-10.091 24.909-14.034l1.503-1.236s5.324-.825 7.015-1.392c5.144-1.76 9.488-4.165 12.348-6.871l1.391-1.314s.824-.824 1.236-1.091c.266-.146.747-.223 1.048-.111.266.111 5.478-.747 5.478-.747.79-1.838 1.202-7.472 1.649-22.142.489-15.202.489-15.837 0-15.348-.412.412-1.237 11.973-1.872 26.23-.223 5.145-.447 9.568-.524 9.791s-.79.524-1.58.678c-4.31.748-17.86 4.132-24.798 6.227-10.39 3.118-15.98 5.179-24.875 9.078-21.158 9.345-36.39 14-55.375 16.851-6.569.979-22.66 1.392-29.306.713-12.794-1.28-25.889-4.432-35.944-8.666-7.427-3.152-13.172-6.716-21.389-13.243-2.473-1.993-4.688-3.599-4.912-3.599-.712-.034 7.316 7.541 10.502 9.868 7.762 5.78 16.769 10.281 27.236 13.699 7.694 2.474 18.462 5.067 26.636 6.416 8.664 1.426 25.923 2.362 31.066 1.726" clip-rule="evenodd"/><path fill="#09151F" fill-rule="evenodd" d="M293.967 638.619c.112-.447.335-8.03.567-16.774.335-16.284.678-23.979 1.648-39.962.301-4.956.601-14.67.713-21.575.189-13.321.146-13.587-.524-2.817-.223 3.719-.901 13.398-1.502 21.574-1.46 19.548-1.838 27.999-1.838 40.977 0 10.203.489 20.415.936 18.577M284.924 624.731c.077-.679.335-5.102.601-9.834.223-4.767.635-12.351.936-16.885.266-4.544.601-10.547.713-13.321.188-4.844.111-4.578-1.091 5.625-1.159 9.456-1.314 12.084-1.503 23.155-.188 11.483-.111 14.412.335 11.26" clip-rule="evenodd"/><path fill="#09151F" fill-rule="evenodd" d="M239.339 617.792c.824-3.075 1.048-7.318 2.816-53.362.79-20.037 1.28-31.108 1.726-38.691.224-3.642.335-8.666.301-11.217-.112-3.187 0-4.389.223-3.942.223.335 1.28 1.838 2.327 3.306 1.091 1.46 2.885 4.432 4.053 6.605 4.431 8.142 8.595 13.209 12.382 15.013 7.281 3.487 21.87 6.905 32.414 7.618 5.556.378 7.728.335 15.379-.223 5.89-.447 10.467-.602 13.541-.447 5.779.301 10.845.902 11.102 1.391.413.636-.223 1.804-.858 1.538-.49-.189-.567.034-.301 1.803.146 1.125.412 2.216.601 2.474.223.223 1.426.79 2.705 1.28 1.314.446 4.954 2.027 8.14 3.452 8.14 3.642 14.821 6.193 24.798 9.456 9.488 3.118 11.858 3.754 19.809 5.446 15.757 3.375 26.713 4.732 41.156 5.144 11.927.301 19.775-.335 34.853-2.929 3.718-.635 8.441-1.425 10.501-1.76 2.061-.378 3.753-.825 3.753-1.014 0-.635-3.941-.601-15.722.224-14.855 1.047-35.532 1.125-45.81.189-20.298-1.873-39.919-6.081-57.779-12.42-18.161-6.415-19.844-6.982-22.849-7.24l-2.962-.223 1.236-1.125c4.688-4.243 5.891-5.669 8.029-9.946 2.773-5.591 3.597-9.009 3.597-14.489 0-3.186-.146-4.801-.747-6.716-.446-1.392-.824-2.474-.901-2.405-.077.077-.335 2.138-.567 4.578-.601 5.857-1.425 8.82-3.941 14.411-1.159 2.517-2.104 4.913-2.104 5.325 0 .413-.412 1.048-.936 1.392-.901.567-1.236.567-5.366 0-11.257-1.581-10.845-1.581-30.844-.748-10.767.413-26.378-2.293-37.446-6.527-2.962-1.125-3.975-1.761-6.002-3.641-2.962-2.775-8.329-9.757-8.329-10.848 0-.146 1.58.79 3.486 2.061 4.543 3.041 13.542 7.395 14.821 7.172.859-.189.902-.223.223-.567-.378-.223-2.627-1.692-4.954-3.264-5.702-3.787-6.87-4.5-10.321-6.415-2.104-1.203-3.83-2.586-6.226-5.068-3.005-3.074-3.417-3.719-4.13-6.037a82 82 0 0 0-1.047-3.118c-.112-.335.335-.146 1.047.446 3.152 2.517 7.951 5.592 11.403 7.318 4.354 2.173 13.653 5.926 15.568 6.27l1.313.266-1.313-1.125c-1.202-1.048-3.899-2.551-16.993-9.345-7.47-3.899-12.94-8.477-15.044-12.685-1.013-1.95-1.047-2.173-.567-3.564.267-.825.636-1.46.825-1.46s2.404 1.391 4.911 3.117c9.755 6.639 17.405 10.204 27.391 12.643 5.857 1.426 6.793 1.013 2.439-1.048-1.726-.825-3.83-1.726-4.654-1.993-3.374-1.047-9.565-3.83-13.773-6.226-1.648-.937-4.199-2.328-5.667-3.075-1.46-.747-3.186-1.915-3.864-2.585-.713-.679-1.279-1.125-1.279-1.014 0 .112-.679-.3-1.537-.936-.902-.635-1.872-1.125-2.216-1.125-.747 0-3.374-1.838-5.323-3.719-1.872-1.804-1.992-3.641-.266-5.102 1.348-1.09 2.85-1.236 4.542-.377.601.334 1.425.523 1.803.489.335-.077.902.034 1.159.266.301.224 1.125.636 1.838.937.747.266 3.486 1.503 6.156 2.705 9.454 4.354 20.522 8.254 27.314 9.645 3.306.678 12.082 1.915 13.619 1.915.858 0-.567-1.159-5.444-4.431-8.252-5.514-14.297-11.372-17.783-17.341-1.426-2.405-1.726-3.264-1.649-4.389.189-1.992 1.314-2.327 4.087-1.314 1.537.601 3.263 1.873 6.938 5.145 5.925 5.29 8.707 7.051 14.933 9.533 11.858 4.69 15.267 7.395 22.17 17.298 4.5 6.458 6.492 8.554 9.42 10.023 4.13 2.104 10.802 3.641 17.405 4.088l3.898.266-.223-.859c-.189-.713-.112-.824.601-.601 2.55.747 9.265 2.139 12.983 2.662 3.306.49 5.624.602 9.754.413 4.577-.189 5.745-.112 7.093.378 1.459.566 2.215.601 6.568.223 2.705-.266 9.308-1.091 14.666-1.838 9.008-1.314 10.433-1.426 18.006-1.391 13.018 0 27.392 1.838 36.39 4.655 6.792 2.138 13.207 4.912 16.925 7.352 1.871 1.202.858.077-1.426-1.615-3.005-2.216-7.127-4.277-12.605-6.304-3.941-1.46-12.004-3.564-13.807-3.599-.79 0-3.941-1.391-3.263-1.46.223 0 .635-.567.901-1.237 1.048-2.628 2.928-3.787 8.407-5.213 4.053-1.048 11.592-.859 15.009.378 2.817 1.013 2.138.223-1.202-1.426-3.752-1.872-7.17-2.473-11.034-1.992-3.306.412-8.518 2.216-9.831 3.375-.979.902-1.349.077-1.349-3.075-.034-2.516-.601-8.597-1.502-15.571-.412-3.229-4.053-24.881-4.311-25.895-.146-.524-2.103-11.448-4.731-26.195-.79-4.655-3.005-22.365-3.005-24.392 0-1.202-.112-2.362-.266-2.585-.413-.635-.112 8.855.446 15.271.266 3.04.378 6.037.301 6.716l-.189 1.202-.713-1.047c-4.688-6.906-8.106-20.081-8.252-32.01l-.034-3.942-.524 3.006c-.79 4.354-.446 16.473.567 20.827 1.614 6.905 3.306 11.294 5.856 15.202 1.348 2.027 2.473 3.753 2.473 3.787-.034 1.014-5.401-3.006-8.106-6.003-3.452-3.865-7.015-11.895-7.539-17.074-.111-1.28-.378-2.216-.567-2.104-.377.266-.077 3.753.679 8.03 1.502 8.597 5.967 15.271 13.318 20.003 1.803 1.159 3.34 2.405 3.451 2.774.112.378.49 2.405.79 4.466.335 2.061 1.426 8.219 2.439 13.699 4.8 25.706 6.225 35.497 6.637 45.108l.267 5.926h-1.203c-.635 0-4.198-.524-7.882-1.125-14.142-2.328-16.357-2.294-35.609.377-5.813.825-11.291 1.503-12.158 1.503s-2.516-.446-3.787-1.013c-2.172-.979-2.327-1.013-5.324-.567-5.366.747-7.728.636-20.41-1.202-2.585-.378-4.164-.447-4.8-.224-2.215.859-11.334-.077-16.357-1.649-5.513-1.726-7.393-3.375-11.558-9.98-6.749-10.804-12.416-15.382-23.072-18.611-5.324-1.615-9.789-4.389-15.945-9.98-4.431-4.02-5.968-5.067-7.806-5.368-1.871-.335-3.263.266-4.198 1.761-1.537 2.404-.447 7.652 2.704 12.908 2.173 3.676 8.218 9.268 12.305 11.406 3.074 1.615.446 1.314-5.324-.601-8.629-2.886-28.851-11.371-30.242-12.72-.412-.412-.566-4.2-.712-20.149-.189-21.918.188-33.246 1.459-44.395.825-7.016.902-7.351 1.159-5.256.335 2.963.378 13.433.078 19.325-.189 3.263-.146 4.955.146 5.514.524.979 3.263 3.074 9.788 7.54 3.864 2.629 5.29 3.453 6.269 3.453 2.327 0 18.718-8.855 19.663-10.581.189-.378.678-4.243 1.09-8.632.413-4.432 1.014-10.547 1.314-13.656.335-3.074.567-7.317.49-9.378l-.112-3.719-1.872-.112c-1.013-.034-6.079-.266-11.257-.49-5.143-.223-12.459-.635-16.246-.936-3.786-.3-7.316-.567-7.839-.524h-.936l.223-3.487c.79-12.007 1.992-20.638 3.941-28.411.747-3.118 1.348-5.625 1.28-5.625s-.636 1.047-1.237 2.327c-3.005 6.528-5.701 20.682-6.981 37.155-.378 4.689-.79 8.408-.901 8.253-.447-.567-2.628-8.219-3.04-10.581-.601-3.865-.489-12.574.223-15.159.335-1.237.524-2.293.447-2.405-.189-.146-1.091 2.74-1.803 5.926-.636 2.663-.601 12.274 0 15.125.266 1.202 1.159 4.243 2.026 6.751 1.614 4.955 1.649 5.256.678 13.398-.747 6.227-1.279 33.058-.824 43.192.223 5.402.378 9.912.301 9.946-.035.077-1.314-.378-2.817-1.014-3.641-1.537-7.951-2.138-10.913-1.537-2.216.447-6.157 1.915-5.891 2.173.077.077 1.202-.112 2.516-.447 4.165-1.09 9.832.035 14.932 2.929 1.692.936 1.949 1.237 1.872 2.104-.112.936-.266 1.014-2.962 1.203-3.186.266-4.8.936-6.157 2.74-1.691 2.172-1.614 3.117.412 6.037 1.28 1.838 2.293 2.852 3.263 3.341l1.46.679-.266 1.76c-.189.937-.301 2.405-.301 3.152.035 1.761 1.649 5.179 3.375 7.095.747.824 1.202 1.692 1.09 1.992s.035 2.027.378 3.865c.678 3.788.567 6.794-.567 16.628-1.614 13.733-2.061 22.33-2.885 53.473-.678 25.894-.712 42.969-.189 42.969.224 0 .567-.636.747-1.426m34.699-183.359c4.8-2.473 8.775-4.578 8.818-4.612.077-.077.301-2.628.49-5.703.223-3.075.79-9.379 1.279-13.999.489-4.655.979-9.568 1.091-10.882l.188-2.439-9.264-.035c-9.154 0-16.023-.524-24.764-1.872-1.949-.301-3.641-.447-3.753-.335-.412.412-.223 9.611.301 13.888.378 2.963.412 6.459.223 12.642l-.266 8.52 1.76 1.048c.979.567 4.199 2.663 7.17 4.689 4.276 2.886 5.667 3.676 6.68 3.676 1.014 0 3.753-1.279 10.055-4.577m2.241-30.301c.524-.189-1.949-.378-6.491-.567a308 308 0 0 1-9.377-.412l-2.06-.189 1.992.567c2.249.635 14.597 1.09 15.945.601" clip-rule="evenodd"/><path fill="#09151F" fill-rule="evenodd" d="M484.45 566.226a556 556 0 0 1 5.857-6.682c6.036-6.716 7.015-7.919 8.183-10.135l1.047-2.061V526.71c0-26.943-.936-40.753-4.499-66.425-3.229-23-7.651-47.212-11.446-62.293-3.976-15.726-7.951-27.132-12.829-36.742-5.555-10.994-12.828-20.45-19.285-25.071-4.053-2.928-13.953-8.898-18.418-11.148-7.951-3.976-29.53-13.544-36.691-16.249-3.975-1.538-12.905-4.432-13.541-4.432-.635 0-.635-.301.034-2.293 1.872-5.257-.858-11.784-10.578-25.182-4.431-6.115-6.827-8.331-9.42-8.898-1.09-.223-2.627-.335-3.417-.189l-1.426.223-.412-1.838c-.678-3.229-1.915-11.036-2.85-18.122-1.58-11.929-1.58-11.337-.224-15.803 1.872-6.115 4.989-13.621 9.076-22.064 2.104-4.277 5.367-11.706 7.282-16.55 1.915-4.879 4.465-11.183 5.701-14.077 5.178-12.119 6.414-18.088 6.526-31.709.112-9.01.077-9.31-.936-12.943-.567-2.062-1.949-5.703-3.117-8.065-1.872-3.899-2.438-4.69-5.512-7.73-3.306-3.307-4.354-3.942-8.183-5.179-.335-.112-1.426-1.761-2.439-3.676-3.864-7.618-11.214-12.642-17.07-11.706-1.28.189-1.426.146-1.46-.49 0-1.125 1.348-2.293 3.117-2.774 1.992-.567 5.255 0 7.883 1.28 2.026 1.013 2.249.824.747-.601-1.503-1.46-4.431-2.585-7.093-2.817-2.773-.224-3.675-.035-5.478 1.16l-1.348.935-.567-.824c-.301-.447-1.237-2.216-2.061-3.9-1.76-3.487-3.898-5.814-8.664-9.421-7.427-5.591-15.833-8.331-25.734-8.331-5.255.034-8.105.446-13.695 2.138l-3.186.937-6.002-1.916c-10.622-3.418-19.062-4.243-27.28-2.628-14.666 2.817-25.51 11.148-33.281 25.56-1.803 3.375-2.061 3.641-5.444 4.99-5.144 2.138-10.356 6.527-12.906 10.804-2.705 4.544-4.989 12.007-5.512 17.753-.49 5.557 1.159 12.385 4.387 18.053 3.074 5.48 10.845 12.085 19.998 17.04 6.827 3.642 9.566 5.291 9.721 5.892.111.378.3 2.027.412 3.676.747 9.198 2.928 22.442 5.289 32.345 2.816 11.706 5.324 19.479 9.042 27.879 5.924 13.286 11.969 22.407 20.376 30.773 8.964 8.966 15.799 12.831 22.694 12.831 3.718 0 6.036-.824 10.39-3.642 3.452-2.25 3.417-2.25 4.087.748.412 1.838.412 1.915-1.159 4.689-.859 1.537-2.885 4.732-4.465 7.129a130 130 0 0 0-8.218 14.111l-1.537 3.04-1.648-.189c-2.851-.3-11.369 1.993-21.836 5.892-11.446 4.312-18.049 8.108-23.45 13.544-12.605 12.72-21.758 38.203-26.034 72.617-1.091 8.666-1.314 11.449-2.851 32.465-1.159 15.949-2.404 43.047-1.949 42.634.523-.567 2.138-13.999 3.452-29.313.223-2.473.566-6.381.789-8.631.189-2.293.79-9.044 1.314-15.013 2.138-24.547 4.311-38.915 8.029-52.915 3.151-11.783 8.595-24.658 13.73-32.465 2.404-3.676 7.839-9.121 11.592-11.638 3.374-2.293 10.69-5.857 17.07-8.408 4.688-1.872 16.28-5.325 19.431-5.814 2.25-.378 2.104-.602 2.739 3.899.224 1.649.979 5.368 1.692 8.254 1.648 6.639 4.276 19.668 4.276 20.939 0 1.46.678 2.885 1.348 2.885.49 0 7.994-5.745 13.773-10.546l1.391-1.16.378.859c.189.49.979 2.663 1.726 4.844.747 2.139 2.215 6.158 3.228 8.932l1.838 4.99-.936 3.453c-4.388 16.138-6.749 38.314-8.853 83.009-.335 7.172-.446 33.401-.146 32.087.077-.335.412-5.892.747-12.385 1.237-24.915 3.117-51.866 4.688-67.927.979-9.98 2.216-18.466 4.277-28.97 1.871-9.756 2.138-10.469 8.818-24.314 2.439-5.067 4.912-10.203 5.478-11.406.679-1.46 1.391-2.439 2.138-2.817 2.516-1.391 7.806-5.78 11.146-9.31 7.17-7.541 12.004-15.614 15.198-25.293 2.293-7.017 2.739-9.723.824-5.033-1.915 4.655-2.103 4.878-2.103 2.361 0-1.159-.335-4.019-.747-6.381-.378-2.327-.825-5.067-.936-6.038l-.267-1.76h2.362c1.691 0 2.739.189 3.563.712 1.237.748 9.609 11.638 13.095 17.109 2.739 4.243 4.353 7.653 4.576 9.722.146 1.314-.111 2.216-1.348 5.025a98 98 0 0 0-1.58 3.641c0 .679-5.143 9.01-8.663 14.111-6.303 9.122-13.43 17.753-17.818 21.618-1.279 1.125-2.438 2.293-2.55 2.585-.335.859.189 1.649 1.125 1.649 1.279 0 10.321-9.421 15.722-16.327 3.229-4.165 9.866-14.111 12.416-18.611 1.159-2.062 2.173-3.719 2.25-3.719.412 0 13.06 4.878 17.405 6.75 6.526 2.74 17.336 7.73 26.824 12.351 22.515 10.916 30.732 17.821 39.997 33.435 8.707 14.67 15.378 37.713 22.282 76.74 4.388 25.07 7.281 50.286 9.196 80.493 1.314 20.939 1.58 26.307 1.348 27.166-.446 1.803-3.486 6.192-7.126 10.357-5.144 5.815-6.827 7.996-8.106 10.547-.601 1.203-1.013 2.216-.936 2.216.111 0 1.09-1.048 2.172-2.327M320.833 346.314c.601-2.663.189-11.784-.747-17.186-.713-3.899-2.061-10.169-3.117-14.034l-.378-1.46-1.803 2.963c-1.013 1.615-2.361 3.53-3.005 4.277-1.426 1.538-1.16.979.824-2.027 1.46-2.138 2.361-4.199 3.306-7.283.412-1.425.378-2.027-.747-6.381-3.074-11.973-6.681-23.421-7.539-23.945-.49-.301-6.114 7.729-9.866 13.999-3.899 6.571-6.08 10.994-6.38 13.021-.266 1.838.266 5.702 1.425 10.358.49 1.949 1.348 6.158 1.872 9.378.567 3.187 1.348 7.283 1.76 9.078l.747 3.264 2.516-1.992c4.388-3.453 7.994-5.927 9.789-6.717.936-.412 1.76-.824 1.837-.859.378-.334-1.579-2.585-7.281-8.597-5.968-6.269-7.917-8.442-7.539-8.442.112 0 1.76 1.279 3.675 2.851 4.465 3.753 9.608 8.855 11.145 11.105 1.014 1.503 3.564 7.696 7.728 18.955.301.859.747 1.615.936 1.615.224 0 .601-.902.825-1.95m-20.059-45.245c.567-.979 1.838-3.006 2.817-4.5 1.013-1.503 1.76-2.706 1.648-2.706-.334 0-3.975 5.325-4.911 7.206-.524.979-.824 1.804-.747 1.804.111 0 .635-.825 1.202-1.804m23.699 39.594c.678-2.173 6.68-16.361 8.028-18.835.902-1.649 2.473-3.229 3.04-3.006.636.266 8.252-6.982 11.747-11.182 6.336-7.618 12.605-18.5 11.446-19.969-.936-1.125-4.242-16.774-7.127-33.77-1.838-10.625-3.074-24.281-3.074-33.625v-5.969l-1.014-.034c-.566 0-1.76-.413-2.627-.859l-1.614-.825 2.885-.077c3.417-.077 4.241-.378 8.183-2.929 5.177-3.375 7.504-6.192 8.895-10.804 1.091-3.565.859-8.254-.523-10.959-2.774-5.446-9.42-7.954-15.379-5.858-4.499 1.58-7.693 4.578-9.454 8.855l-.601 1.46-4.576-.266c-2.516-.146-5.29-.335-6.114-.49l-1.503-.223.146-2.817c.223-4.277-.601-11.784-1.648-15.125-1.58-4.912-5.625-9.61-10.133-11.637-2.138-.979-2.438-1.237-2.739-2.517-.678-2.662-1.313-15.236-1.09-21.763.111-3.565.146-6.459.111-6.493-.034 0-1.803.601-3.864 1.314s-5.778 1.649-8.217 2.061c-7.84 1.348-18.53 1.46-20.256.223-.601-.446-.566-.567.601-1.279.713-.413 1.949-.859 2.774-1.014.824-.146 2.104-.524 2.816-.824l1.348-.602-1.313-.3c-.713-.189-3.074-.378-5.255-.378-3.641-.077-4.242.034-8.063 1.314-4.843 1.692-11.214 4.655-12.906 6.115l-1.236 1.013.3-1.279c.335-1.581 3.306-7.584 4.542-9.233l.936-1.202-1.425-.413c-2.061-.567-3.117-.489-6.002.413-6.715 2.061-12.571 6.682-16.169 12.719-1.648 2.74-4.241 12.196-4.241 15.426 0 .678.111.678 1.236-.189.678-.524 1.915-1.126 2.739-1.314.825-.224 2.216-.602 3.074-.859 3.117-.936 6.938.79 8.741 3.942.601 1.048 1.091 2.027 1.091 2.173 0 .111-.859-.035-1.949-.301-1.048-.266-2.628-.489-3.418-.489-1.949 0-6.225 2.104-8.775 4.311l-1.992 1.726v2.362c0 2.774 1.502 15.202 2.85 23.679 1.726 10.624 6.337 28.18 10.09 38.28 2.962 7.918 8.595 17.864 14.365 25.405 6.414 8.408 13.017 14.334 19.397 17.409 8.029 3.865 12.459 3.719 20.256-.713 4.388-2.439 7.015-4.5 10.132-7.841 3.941-4.243 7.093-9.757 9.042-15.683l.678-2.061 1.992 4.131c2.662 5.514 3.263 8.331 3.04 14.369-.189 5.514-1.159 9.043-3.898 14.334-2.173 4.243-3.864 6.416-6.337 8.331-2.551 1.993-2.585 2.328-.567 10.135 2.25 8.777 4.431 20.003 5.624 28.969.713 5.291 1.503 13.476 1.503 15.503 0 1.09.189 2.061.378 2.173.223.077.712-.902 1.09-2.173m-25.863-93.9c1.237-.378 3.787-3.152 4.732-5.179 1.348-2.851 1.76-5.591 1.579-9.834-.111-3.006-.334-4.165-1.124-5.892-1.125-2.473-1.503-2.774-.979-.747.223.79.335 3.564.223 6.459-.112 4.088-.335 5.514-.979 7.24-.979 2.473-3.675 5.626-5.744 6.682-.825.412-1.391.936-1.28 1.125.224.378 2.405.49 3.564.146m-22.617-8.821c.111-.223.146-.446.077-.523-.077-.035-1.58-1.048-3.34-2.173-7.282-4.767-10.021-9.31-10.914-18.054-.412-3.83-.335-5.067.412-12.084 1.014-9.078.902-14.858-.335-22.854-.412-2.706-1.047-7.352-1.348-10.324a445 445 0 0 0-1.124-9.009q-.525-3.564-.378 4.5c.111 5.669.446 10.246 1.125 15.537 1.159 9.044 1.202 12.23.146 21.016-.902 7.765-.79 15.683.223 19.548.824 3.075 2.885 7.129 4.688 9.233 1.915 2.173 4.877 4.165 7.427 4.956 2.293.712 3.006.747 3.341.223m69.225-36.656c1.58-8.185 8.775-12.351 13.283-7.696 1.091 1.125 1.28 1.203 1.28.601 0-1.125-1.58-3.942-2.662-4.766-.524-.378-1.76-.79-2.705-.902-5.178-.567-9.978 4.878-10.244 11.637-.146 3.53.447 4.166 1.048 1.126m-95.002-.146c.858-2.629.189-9.491-.902-9.491-.747 0-1.425 2.216-1.391 4.544.034 1.726.301 2.885.979 4.277l.936 1.872zm36.433-4.355c.223-.567.3-1.838.146-2.886-.301-2.439-3.675-9.567-4.543-9.567-.936 0-.412 3.564 1.202 8.253 1.992 5.746 2.405 6.27 3.186 4.2m11.111-29.382c.112-.223-.412-1.692-1.202-3.263-3.151-6.382-10.167-11.217-16.624-11.449-3.228-.146-4.241 1.202-2.885 3.753 1.013 1.993 2.216 2.74 4.912 3.118 3.005.447 6.826 2.328 11.892 5.926 1.803 1.28 3.375 2.328 3.452 2.328.112 0 .301-.189.447-.413M237.656 555.421c-.111-.224-.824-.412-1.614-.412-2.473 0-6.157-.748-12.004-2.44-7.17-2.104-10.502-3.487-17.371-7.128-6.079-3.264-7.882-4.432-9.531-6.193-.979-1.047-1.013-1.159-.3-.936 1.159.335 3.228-.79 6.156-3.375 3.452-3.041 4.019-4.2 4.688-9.044.301-2.25.524-4.311.524-4.578 0-.266-.747 1.014-1.691 2.886-3.186 6.381-4.543 6.905-17.182 6.639-8.664-.189-12.494-.635-14.632-1.761l-.824-.412.747.825c2.027 2.25 6.002 3.641 12.004 4.131 2.705.266 5.066.713 6.749 1.314 2.817 1.013 6.079 1.237 7.393.567 1.348-.748 1.159-.078-.266.79-1.949 1.202-4.465 1.426-5.513.446-1.348-1.202-2.55-1.726-3.005-1.279-.524.524 1.202 3.942 2.885 5.746 6.303 6.75 19.174 13.209 28.362 14.222 4.465.49 14.666.49 14.408 0" clip-rule="evenodd"/><path fill="#09151F" fill-rule="evenodd" d="M371.367 550.801c1.202-1.28 2.816-3.23 3.563-4.277l1.391-1.916 1.761.524c7.204 2.173 27.803 6.571 30.465 6.493.335 0-6.526-1.803-15.198-3.976-8.664-2.139-15.911-4.088-16.057-4.277-.224-.189-.112-1.203.223-2.474 1.391-4.99 1.872-17.864.747-19.814-.301-.524-.447 1.237-.567 6.751-.3 11.56-.979 13.81-6.715 21.841-1.202 1.692-2.103 3.186-2.026 3.306.112.078 1.202-.902 2.404-2.173M232.513 538.27c-1.279-.524-3.752-1.392-5.478-1.838-1.76-.49-3.263-.979-3.34-1.091-.112-.112.034-.489.335-.859.3-.369.978-1.992 1.459-3.641.79-2.628.902-3.754.902-8.632s-.112-5.926-1.013-8.666c-.567-1.649-1.28-3.341-1.58-3.753-.49-.679-.49-.601-.189.79 1.348 6.158 1.09 13.811-.679 19.702-.523 1.727-.978 3.565-1.013 4.02 0 .446-.223.859-.489.859-.713 0-.567 1.013.189 1.425.378.189 1.502.447 2.516.567 1.013.146 3.486.679 5.512 1.203 4.766 1.202 5.813 1.159 2.851-.078" clip-rule="evenodd"/><path fill="#09151F" fill-rule="evenodd" d="M177.548 525.662c6.938-4.131 9.196-5.78 12.348-8.898l2.85-2.817 3.899.636c2.138.378 5.967 1.159 8.517 1.803 7.394 1.761 9.72 1.46 13.207-1.76 2.55-2.405 3.941-5.145 3.597-7.284l-.223-1.391 6.08-.189c6.268-.189 9.041-.713 7.693-1.46-.713-.378-14.408-1.202-14.932-.859-.146.078-.189.567-.112 1.014.112.446-.223-.078-.712-1.203-.49-1.159-2.885-6.226-5.324-11.259-11.034-22.966-13.129-27.398-17.105-36.03-5.667-12.462-6.937-14.824-9.076-16.962-3.228-3.23-5.967-4.243-15.868-5.969-6.749-1.16-10.621-1.993-20.075-4.312-6.569-1.649-8.896-1.915-11.068-1.28-2.293.636-5.178 3.264-6.002 5.446-.902 2.361-.412 4.242 2.885 11.259 1.46 3.075 3.228 6.906 3.975 8.477l1.314 2.886-1.837 3.118c-1.348 2.327-3.006 4.277-6.337 7.618-5.556 5.514-6.157 6.682-5.513 10.77.223 1.426.902 3.53 1.46 4.655 1.048 1.993 4.654 6.639 4.954 6.338.078-.077-.858-1.838-2.138-3.942-4.465-7.429-3.941-10.804 2.362-15.236 2.361-1.649 2.816-2.216 5.444-6.605 1.537-2.628 3.039-4.766 3.262-4.766.713-.035 2.74 2.662 3.229 4.242.335 1.091.301 1.95-.077 3.754-.713 3.564-2.585 8.064-4.019 9.645-.678.747-1.279 1.537-1.279 1.726s-.713 1.237-1.614 2.328c-2.104 2.516-3.263 4.912-3.006 5.969.223.901-1.047 5.514-2.172 7.652-1.159 2.328-.747 2.173.635-.223.713-1.237 1.615-3.375 2.027-4.732.79-2.663 1.425-3.488 3.864-5.179 3.039-2.062 6.379-3.487 12.227-5.179 5.289-1.503 6.268-1.649 9.789-1.649 6.869 0 13.206 2.473 11.179 4.354-.266.266-3.374 1.237-6.98 2.216-7.728 2.104-15.68 4.767-18.238 6.158-2.928 1.58-5.891 4.732-7.471 7.953-1.691 3.375-2.739 8.108-2.172 9.645.335.936.378.902.412-.747 0-1.426.335-2.328 1.58-4.312q3.323-5.348 6.079-7.54c4.989-4.054 25.399-10.917 32.458-10.917 1.425 0 3.039 1.28 3.039 2.44 0 .712-.524 1.279-2.516 2.55-4.276 2.74-7.916 4.612-12.682 6.459-5.212 2.027-13.172 5.746-14.855 6.94-1.992 1.425-5.444 7.094-6.114 10.091-.678 2.929-.747 7.429-.188 9.422.377 1.426 2.026 3.307 2.473 2.851.146-.146-.146-.678-.713-1.202-2.628-2.439-.979-11.217 2.928-15.537 1.837-2.027 5.366-4.088 12.605-7.352 3.151-1.425 6.938-3.229 8.363-4.019 9.489-5.179 12.76-6.158 14.598-4.312 1.279 1.28 1.013 2.027-1.761 4.99-2.55 2.706-4.276 3.754-16.958 10.169-3.899 1.95-8.14 4.312-9.377 5.214-2.584 1.838-5.667 4.912-5.323 5.29.377.335 3.074-.824 6.19-2.74 1.537-.936 6.002-3.263 9.909-5.213 3.899-1.915 7.995-4.131 9.042-4.913l1.915-1.425-.713 1.279c-1.348 2.328-4.018 4.913-8.363 8.142-4.912 3.642-6.337 4.913-8.063 7.095l-1.159 1.503 1.872-1.649c1.013-.902 2.438-1.916 3.151-2.251.747-.335 2.439-1.46 3.752-2.516 3.942-3.118 5.702-4.277 6.457-4.277.378 0 1.314.3 2.104.713.747.412 3.186 1.279 5.324 1.915 2.172.635 4.018 1.237 4.087 1.28.266.3-3.005 3.006-6.337 5.29-3.228 2.173-11.403 6.382-13.884 7.094-.49.189-1.838.636-3.006 1.091-1.949.747-1.992.79-1.013 1.091.567.146 2.293.301 3.83.301h2.816l4.611-2.74m39.79-18.414c-.223-.902-7.727-16.216-17.894-36.665-3.563-7.129-7.539-15.271-8.853-18.122-1.314-2.852-2.584-5.325-2.851-5.557-1.202-1.013 10.957 24.546 23.562 49.462 5.289 10.504 6.569 12.797 6.036 10.882m-71.509-29.614c.335-.266 2.327-1.013 4.388-1.692 2.061-.678 3.752-1.348 3.718-1.537-.034-.146-1.013-2.139-2.138-4.389l-2.026-4.131-.035 1.726c0 1.838-1.76 6.751-3.039 8.554-.413.567-1.237 1.237-1.872 1.461-.79.3-.902.446-.413.446.413 0 1.048-.223 1.426-.446m20.994-18.14c0-3.392-2.189-7.326-5.787-7.901-.979-.155-2.121.283-2.439 1.228-.18.541-.06 1.134.129 1.675.644 1.881 1.546 3.985 2.851 5.462 4.181 3.856 4.748 3.195 5.246-.464m12.09-18.517c0-.713-1.837-1.915-4.053-2.662-1.314-.447-4.431-1.237-6.903-1.727-2.516-.523-5.213-1.09-6.037-1.314s-2.292-.566-3.228-.712c-.936-.189-3.864-.748-6.526-1.315-2.662-.523-4.912-.936-4.989-.824-.112.077.713.378 1.803.601 1.125.266 4.542 1.125 7.616 1.915 7.617 1.95 16.246 4.02 17.895 4.278.747.111 1.803.635 2.327 1.159.979.902 2.104 1.237 2.104.601" clip-rule="evenodd"/><path fill="#09151F" fill-rule="evenodd" d="M147.049 513.388c0-.188-.936-1.09-2.104-1.992-1.159-.859-2.438-2.104-2.816-2.705l-.679-1.126v.98c0 .566.413 1.537.902 2.172.979 1.203 4.688 3.307 4.688 2.663M319.108 447.419c.189-7.807 1.537-32.276 1.872-33.848.077-.524.49-3.899.902-7.506.412-3.642 1.013-8.52 1.348-10.882.3-2.405 1.047-8.597 1.691-13.81.601-5.257 1.537-12.42 2.061-15.95 1.391-9.232 1.425-9.49 1.202-9.267-.601.524-3.306 13.923-4.199 20.639-1.58 11.895-4.164 39.027-4.688 48.783-.412 8.666-.859 29.27-.601 29.27.112 0 .301-3.341.412-7.429M423.933 372.998c1.992-5.067 8.218-11.929 13.129-14.368 1.503-.748 2.473-1.349 2.172-1.349s-1.949.679-3.64 1.538c-5.367 2.662-10.467 8.52-12.228 13.956-.747 2.405-.334 2.551.567.223M350.398 343.428c0-2.062-5.031-9.233-9.23-13.175-3.151-2.963-3.598-2.929-.713.077 3.263 3.341 7.883 9.645 8.595 11.672.79 2.25 1.348 2.851 1.348 1.426M342.782 93.61c.601-2.517-.747-7.094-2.774-9.267-1.348-1.426-1.837-1.314-.712.189 1.614 2.172 2.473 4.354 2.85 7.24.301 1.992.447 2.516.636 1.838" clip-rule="evenodd"/><path fill="#fff" d="M433.148 77.57c1.186-8.239 8.797-13.958 16.985-12.765l35.559 5.18c8.189 1.194 13.874 8.85 12.688 17.089s-8.796 13.958-16.984 12.765l-35.56-5.181c-8.188-1.193-13.873-8.85-12.688-17.088"/><path fill="#E3E7F6" d="M438.96 74.673c1.987-3.952 6.555-6.413 10.928-5.877 4.372.535 8.226 4.033 9.203 8.344a394 394 0 0 1 32.211 4.69c1.436.265 2.891.55 4.205 1.214 1.313.658 2.472 1.735 2.917 3.132.808-5.755-2.796-11.822-8.213-13.842-2.297-.854-4.77-1.03-7.209-1.268-10.45-1.016-20.731-3.328-31.073-5.131-1.57-.271-3.153-.542-4.75-.515-3.213.047-6.299 1.362-8.765 3.403a17 17 0 0 0-3.261 3.6c-.647.948-2.129 2.975-1.92 4.168.842-.65 1.677-1.247 2.702-1.593.296-.102 3.058-.353 3.038-.319h-.007z"/><path fill="#fff" d="M448.519 90.602c5.924 0 10.726-4.831 10.726-10.791s-4.802-10.792-10.726-10.792-10.726 4.832-10.726 10.792 4.802 10.791 10.726 10.791"/><path fill="#12415D" d="M517.071 75.431c.236.407.66.725 1.011 1.037s.714.644 1.071.963c.687.603 1.448 1.078 2.237 1.545.074.048.094-.17.067-.21-.64-.78-1.287-1.552-2.035-2.23-.357-.312-.714-.63-1.078-.935-.182-.15-.357-.305-.545-.461s-.351-.305-.566-.366c-.216-.061-.216.562-.162.664h-.007zM502.264 79.689a45 45 0 0 0-.431 2.257c-.128.752-.222 1.444-.209 2.176 0 .129.088.23.162.075.283-.645.438-1.322.579-2.014.155-.752.297-1.511.411-2.27.027-.163.041-.563-.161-.644s-.317.284-.351.406zM450.939 64.552c-8.604-1.797-17.329 4.623-18.42 13.354-.532 4.23.748 8.513 3.416 11.801a15.7 15.7 0 0 0 5.1 4.121c2.217 1.132 4.521 1.54 6.967 1.85 6.38.8 12.753 1.641 19.147 2.34 3.14.338 6.266.759 9.392 1.159 2.688.339 5.484.949 8.2.772 4.204-.278 8.239-2.318 10.901-5.619 2.917-3.626 3.86-8.52 3.234-13.076-.587-4.216-3.012-8.202-6.542-10.568-2.076-1.39-4.211-2.026-6.657-2.365-3.173-.434-6.38-.719-9.567-1.058-1.597-.17-3.2-.278-4.797-.393-.297-.02-.458 1.254-.155 1.322 2.917.63 5.835 1.173 8.772 1.708 1.408.258 2.803.542 4.218.773 1.293.217 2.641.298 3.907.691 3.834 1.2 7.176 4.06 8.873 7.741 1.698 3.681 1.685 8.026-.464 11.707-2.15 3.68-5.579 6.195-9.561 7.023-2.223.46-4.359.216-6.589-.061-2.836-.353-5.666-.719-8.503-1.072-5.787-.725-11.561-1.559-17.348-2.297-2.817-.36-5.653-.624-8.456-1.085a15.4 15.4 0 0 1-5.895-2.27c-3.348-2.163-5.821-5.593-6.643-9.525-.95-4.568 1.172-9.083 4.494-12.14 3.49-3.22 8.226-4.393 12.868-3.87.236.026.357-.902.115-.956h.013z"/><path fill="#12415D" d="M437.982 78.326c.425-2.121 1.274-4.073 2.756-5.666 1.475-1.593 3.281-2.637 5.295-3.18 4.211-1.132 8.719.57 11.191 4.183 1.199 1.749 1.873 3.877 1.86 6.006-.014 2.128-.836 4.209-2.136 5.877-2.688 3.436-7.256 5.07-11.433 3.687-4.178-1.383-7.095-5.124-7.479-9.375a15 15 0 0 1-.034-1.64c0-.217-.148-.237-.182-.027-.828 4.569 1.9 9.45 5.916 11.537 4.015 2.088 9.284 1.295 12.565-2.04s4.285-8.867 2.304-13.232c-1.98-4.365-6.407-7.07-11.076-6.406s-8.455 4.101-9.493 8.575a9 9 0 0 0-.216 1.681c0 .183.122.203.162.027h-.007z"/><path fill="#fff" d="M501.436 70.144c7.3 0 13.218-5.954 13.218-13.3 0-7.345-5.918-13.3-13.218-13.3-7.301 0-13.219 5.955-13.219 13.3s5.918 13.3 13.219 13.3"/><path fill="#12415D" d="m504.634 39.119-42.452-6.19c-9.742-1.416-18.865 5.437-20.273 15.239s5.403 18.98 15.146 20.396l42.452 6.19c9.742 1.416 18.865-5.437 20.273-15.239s-5.404-18.98-15.146-20.397m-5.033 30.47c-6.993-1.018-11.844-7.552-10.833-14.595 1.01-7.036 7.505-11.917 14.505-10.9s11.845 7.551 10.834 14.594c-1.011 7.036-7.506 11.917-14.506 10.9"/><path fill="#E3E7F6" d="M503.066 49.551c-1.22.556-2.264 1.424-3.214 2.373-.708.705-1.368 1.47-1.806 2.372-1.118 2.291-.559 5.213 1.105 7.131s4.285 2.868 6.818 2.786c-2.661 1.878-6.393 2.095-9.243.522-2.85-1.572-4.69-4.84-4.562-8.107.048-1.071.283-2.135.6-3.166.31-.99.701-1.972 1.321-2.8 1.448-1.944 3.934-2.792 6.319-3.165.937-.149 1.894-.237 2.837-.129 1.219.143 2.722.645 3.564 1.587-1.098.427-2.513.04-3.746.603h.007zM450.695 78.672c-.189-2.678-2.203-5.098-5.047-5.952.452-.163 3.645-1.281 6.704.556 2.729 1.633 4.184 4.894 3.632 8.032-.054.305-.883 4.508-4.811 5.837-3.625 1.22-6.636-1.105-6.859-1.281 3.888-.468 6.61-3.796 6.374-7.186h-.007z"/><path fill="#12415D" d="M508.111 50.202c-.552-.597-1.003-1.24-1.67-1.729-.573-.413-1.24-.725-1.9-.983-1.328-.515-2.79-.732-4.204-.583-2.918.312-5.539 2.027-7.021 4.576-2.823 4.9-1.415 11.598 3.834 14.113 3.032 1.457 6.306 1.139 9.102-.698.094-.061.155-.502 0-.454-4.581 1.667-10.571.338-12.889-4.298-2.553-5.111 1.166-11.035 6.515-11.991a9.7 9.7 0 0 1 4.252.17c.721.189 1.381.487 2.041.833s1.368.617 1.907 1.105c.013.007.027-.054.013-.075h.014zM521.236 62.369l-.054-.04c-.047-.035-.054.121-.047.148.088.258.168.272.445.353.276.081.518.108.781.149.492.081.984.142 1.476.203 1.031.136 2.055.088 3.099.048.067 0 .087-.21.034-.23-1.004-.285-1.988-.57-3.025-.685-.492-.054-.984-.115-1.476-.15-.269-.013-.539-.047-.802-.04-.262.007-.37 0-.512.23l.02.15.068-.102v-.027h-.014zM520.3 44.792c.081.332.519.034.66-.04l.499-.278c.316-.183.626-.36.936-.563.667-.427 1.287-.935 1.934-1.403.047-.034.074-.264 0-.237-.768.325-1.543.623-2.277 1.01-.384.196-.762.427-1.125.664-.169.108-.405.224-.526.386a.63.63 0 0 0-.101.468h.007zM505.571 36.116c.128-.637.102-1.328.108-1.972.007-1.03-.06-2.04-.222-3.058-.034-.183-.135-.034-.148.068a25 25 0 0 0-.236 3.125q.002.558-.007 1.125.002.181-.007.373c0 .183.007-.054 0 0-.006.061-.027.21.014-.054-.034.203-.121.671.101.813.222.143.37-.257.397-.4v-.02M443.061 85.736c.526.345.923.847 1.469 1.179.465.271.97.474 1.476.644a7.8 7.8 0 0 0 3.382.339 7.75 7.75 0 0 0 5.504-3.403c2.5-3.776 1.61-9.266-2.277-11.727-2.244-1.423-4.925-1.559-7.317-.454-.054.027-.074.244 0 .224 4.13-1.2 8.988.8 10.335 5.084s-1.482 8.75-5.787 9.605a8.1 8.1 0 0 1-3.47-.054 8.5 8.5 0 0 1-1.603-.563c-.553-.258-1.281-.508-1.698-.949-.014-.007-.034.054-.014.075"/><path fill="#D0DCE4" d="M109.458 316.075c14.888-8.836 19.905-27.88 11.206-42.537S92.844 254.164 77.956 263s-19.904 27.88-11.205 42.537 27.82 19.374 42.707 10.538"/><path fill="#12415D" d="M99.445 311.425c-.164.001-.293-.158-.453-.428a2 2 0 0 1-.205-.507c-.077-.188-.146-.41-.226-.659-.163-.497-.306-1.075-.494-1.729s-.365-1.336-.585-2.102c-.206-.741-.426-1.439-.611-2.088-.186-.649-.369-1.237-.495-1.728-.059-.262-.126-.492-.154-.702-.029-.211-.066-.389-.087-.542-.023-.318.011-.539.175-.601.122-.073.332.003.59.216.124.092.272.238.413.417s.305.35.476.58c.326.434.66.996.987 1.664.163.331.307.68.46 1.052.151.373.257.772.389 1.157.106.399.212.798.28 1.193.068.394.119.758.169 1.121.062.722.083 1.372.051 1.923-.008.267-.053.528-.087.749-.035.22-.085.416-.165.56-.116.303-.248.478-.412.479z"/><path fill="#12415D" d="M102.756 310.026c-.066.005-.139-.118-.203-.342s-.128-.552-.234-.952c-.08-.414-.18-.921-.308-1.473-.143-.578-.293-1.214-.496-1.893a22 22 0 0 0-1.995-4.641c-.233-.393-.494-.832-.752-1.21a7.4 7.4 0 0 0-.891-1.058c-.315-.31-.666-.564-1.005-.694-.34-.13-.667-.17-.975-.084-.313.089-.604.262-.888.562a2.5 2.5 0 0 0-.577 1.039 4.5 4.5 0 0 0-.19 1.238c-.007.431.038.902.083 1.372.12.923.312 1.864.44 2.754.151.87.274 1.694.357 2.439.419 2.995.54 4.875.238 4.924-.302.048-.951-1.72-1.748-4.621a71 71 0 0 1-.62-2.38c-.216-.865-.448-1.755-.66-2.788-.193-1.046-.341-2.248.063-3.579a5.1 5.1 0 0 1 1.005-1.818c.472-.542 1.136-1.04 1.955-1.229.8-.212 1.665-.091 2.36.186.7.282 1.227.729 1.696 1.182.443.468.818.936 1.108 1.426s.552.929.802 1.408a18.7 18.7 0 0 1 1.733 5.258c.134.784.182 1.48.212 2.09.006.625-.006 1.163-.053 1.584a9 9 0 0 1-.168.997c-.075.21-.155.354-.228.336l-.056-.036z"/><path fill="#12415D" d="M106.695 308.35c-.153.022-.333-.561-.612-1.589-.28-1.029-.666-2.517-1.341-4.27a29 29 0 0 0-1.237-2.806 17.4 17.4 0 0 0-1.796-2.909c-.745-.918-1.629-1.746-2.68-2.282-1.064-.562-2.307-.818-3.449-.568-1.157.225-2.217.95-3.006 1.853-.792.898-1.301 1.994-1.561 3.115-.288 1.13-.35 2.257-.308 3.329.043 1.072.174 2.085.332 3.012.155.937.331 1.791.475 2.534s.263 1.397.358 1.941c.157 1.101.147 1.7.01 1.747-.154.022-.405-.519-.837-1.525a55 55 0 0 1-.692-1.84 37 37 0 0 1-.808-2.536 19 19 0 0 1-.63-3.235c-.112-1.19-.107-2.518.18-3.882.158-.688.349-1.367.652-2.078a8.8 8.8 0 0 1 1.224-1.948c.508-.598 1.089-1.178 1.809-1.639.694-.447 1.5-.822 2.366-.977.44-.096.885-.125 1.317-.119s.86.055 1.277.139a7.8 7.8 0 0 1 2.282.834 9.2 9.2 0 0 1 1.861 1.345 11 11 0 0 1 1.417 1.609 17 17 0 0 1 1.84 3.379 28 28 0 0 1 1.066 3.074c.508 1.914.703 3.523.728 4.633.029 1.108-.08 1.704-.232 1.726z"/><path fill="#12415D" d="M109.383 305.857c-.165.001-.282-.695-.521-1.878-.255-1.208-.668-2.916-1.539-4.884-.439-.961-1-2.022-1.701-3.028a15.4 15.4 0 0 0-2.601-2.928 11.2 11.2 0 0 0-3.635-2.114 11.4 11.4 0 0 0-2.127-.456 8.5 8.5 0 0 0-2.2.084 7.65 7.65 0 0 0-3.84 1.948c-1.08.972-1.902 2.157-2.48 3.356-.303.608-.523 1.235-.724 1.851-.116.304-.16.626-.238.936-.059.296-.135.611-.178.933a17 17 0 0 0-.182 3.483c.04 1.067.138 2.071.248 2.93.11.86.229 1.618.325 2.223a18 18 0 0 1 .18 1.418c.023.318.014.524-.078.544s-.2-.116-.347-.422c-.176-.296-.35-.752-.569-1.354a22 22 0 0 1-.683-2.21 20.4 20.4 0 0 1-.578-3.031 18 18 0 0 1-.067-3.798c.029-.348.092-.682.14-1.043.09-.349.129-.738.218-1.088.163-.724.43-1.449.746-2.195.636-1.441 1.552-2.909 2.86-4.113a9.3 9.3 0 0 1 2.211-1.575c.837-.428 1.733-.766 2.69-.934.962-.17 1.901-.203 2.81-.115.913.086 1.796.294 2.634.59 1.676.592 3.099 1.535 4.271 2.627a15.2 15.2 0 0 1 2.78 3.45 19.7 19.7 0 0 1 1.616 3.444 16.7 16.7 0 0 1 .766 3.024c.14.91.213 1.695.192 2.335q-.03.96-.126 1.462-.095.5-.192.514l-.086.017z"/><path fill="#12415D" d="M112.097 301.499c-.122.073-.542-.575-1.111-1.755a83 83 0 0 1-1.001-2.187c-.37-.844-.783-1.82-1.314-2.83s-1.134-2.074-1.967-3.035c-.813-.974-1.896-1.857-3.096-2.6-1.252-.714-2.656-1.301-4.186-1.588-.75-.148-1.534-.248-2.35-.227-.79.007-1.593.049-2.42.215a13.6 13.6 0 0 0-4.483 1.702 14 14 0 0 0-3.453 2.878c-.956 1.064-1.7 2.264-2.245 3.416a14.3 14.3 0 0 0-1.147 3.427 18.4 18.4 0 0 0-.397 3.017c-.025.912-.033 1.676.012 2.312.023.317.057.594.078.851.018.251.044.47.046.635.012.359-.012.539-.063.569s-.174-.131-.342-.46a3.4 3.4 0 0 1-.262-.603c-.079-.25-.178-.522-.277-.864-.186-.649-.309-1.473-.418-2.436a15 15 0 0 1 .092-3.299c.144-1.21.482-2.536 1.01-3.878a15.7 15.7 0 0 1 2.38-4.027 15.3 15.3 0 0 1 3.879-3.393c1.526-.94 3.274-1.681 5.192-2.019 1.9-.369 3.817-.313 5.61.08 1.772.369 3.397 1.096 4.815 1.973 1.392.892 2.567 1.989 3.444 3.187.902 1.182 1.505 2.419 1.951 3.507.46 1.114.78 2.152 1.05 3.048.272.901.489 1.663.637 2.307.323 1.264.447 1.984.304 2.069l.04.011z"/><path fill="#12415D" d="M113.387 294.578c.057-.068.293-.007.667.17l-.362.285-1.118-1.883c-.161-.271-.359-.547-.575-.853-.45-.596-.948-1.26-1.547-1.932-.305-.351-.64-.683-.982-1.039a27 27 0 0 0-1.136-1.017 16.8 16.8 0 0 0-2.753-1.906c-1.039-.577-2.147-1.107-3.364-1.482-2.431-.806-5.248-1.088-8.09-.691a18 18 0 0 0-4.697 1.297 16.3 16.3 0 0 0-3.909 2.285 17.2 17.2 0 0 0-2.956 2.88c-.818 1.017-1.512 2.022-2.053 3.006-.541.983-.945 1.92-1.281 2.748-.151.42-.271.823-.426 1.177-.115.365-.204.715-.3 1.007l-.21.821-.16.626c-.104.324-.191.514-.273.494-.081-.021-.115-.194-.178-.522-.017-.191-.04-.405-.046-.636.007-.266.011-.538.04-.886.028-.348.076-.708.135-1.109s.157-.852.252-1.309c.213-.92.559-1.953 1.053-3.074a18.2 18.2 0 0 1 1.998-3.436 18.1 18.1 0 0 1 3.142-3.356 17.8 17.8 0 0 1 4.342-2.673 18.5 18.5 0 0 1 5.238-1.488c3.186-.434 6.353-.064 9.052.915a19.2 19.2 0 0 1 3.691 1.812 18.6 18.6 0 0 1 2.893 2.258c.424.376.812.809 1.169 1.19.347.422.672.795.963 1.181a17 17 0 0 1 1.423 2.234c.203.342.343.694.48.971.15.311.236.619.356.879.194.548.289.988.373 1.304l.217.865-.58-.581c-.315-.31-.43-.504-.414-.582l-.097.057z"/><path fill="#12415D" d="M113.105 287.197c.009-.102.245-.146.685-.241l-.211.422a21 21 0 0 1-.951-.823c-.181-.189-.434-.336-.651-.538-.242-.188-.479-.413-.762-.61a18 18 0 0 1-.892-.665c-.31-.244-.659-.437-1.031-.679-.351-.254-.761-.445-1.137-.684a20 20 0 0 0-1.288-.658 24 24 0 0 0-2.916-1.181c-.263-.106-.52-.154-.811-.25-.277-.071-.56-.165-.837-.235-.276-.071-.57-.124-.867-.183-.155-.039-.297-.058-.431-.11-.139-.013-.297-.058-.442-.069a16 16 0 0 0-.918-.152c-.307-.018-.606-.068-.913-.086-.14-.013-.323-.043-.462-.057-.165.002-.307-.017-.472-.016-.308-.018-.64-.021-.945-.033-.317.023-.65.02-.968.043l-.482.024-.496.06c-.344.038-.661.061-1.004.099-.328.063-.657.127-.995.162-1.546.29-3.023.766-4.394 1.352a24 24 0 0 0-3.752 2.096c-.557.4-1.116.794-1.6 1.212-.519.405-.987.848-1.43 1.276-.24.212-.427.454-.645.646-.203.217-.417.413-.605.655-.202.217-.361.45-.538.651-.092.124-.177.202-.27.326a2 2 0 0 1-.243.31c-.63.836-1.186 1.629-1.621 2.349-.214.362-.41.706-.593 1.014-.167.334-.327.623-.474.875-.08.145-.147.253-.201.382s-.121.238-.168.334c-.116.2-.201.382-.278.531q-.259.404-.351.409c-.082-.021-.115-.194-.055-.534 0-.165.049-.36.094-.621.029-.114.045-.262.074-.376l.11-.431c.09-.288.185-.641.3-1.006.13-.339.292-.739.479-1.147.377-.817.836-1.718 1.45-2.683.067-.108.147-.252.214-.361.092-.124.162-.227.254-.351.188-.242.35-.469.522-.737.187-.243.4-.5.6-.722.212-.258.4-.5.645-.749.474-.481.94-.986 1.48-1.472.5-.496 1.095-.946 1.687-1.402 1.224-.891 2.581-1.732 4.063-2.411a25 25 0 0 1 4.868-1.564c.369-.053.717-.129 1.106-.194.369-.054.722-.063 1.09-.116.191-.017.385-.028.534-.055.19-.016.359-.012.55-.029.357-.012.716-.025 1.081-.014.348.028.718.036 1.051.039.165-.002.348.028.513.027.18.024.348.028.503.067.347.028.682.092 1.005.135.334.064.672.133.971.183.154.039.334.064.492.108l.471.12.936.239c.309.079.615.2.904.291s.575.19.879.307c1.132.453 2.146.941 3.092 1.477.468.288.906.526 1.309.81.407.29.819.543 1.16.837.34.295.691.549.991.834s.588.548.852.819c.247.254.486.54.698.78s.403.458.573.688c.327.434.566.789.741 1.085l.321.541-.529-.113c-.457-.095-.679-.191-.674-.298l-.051.031z"/><path fill="#12415D" d="M109.751 279.256c-.036.056-.204.052-.457.009-.277-.071-.654-.206-1.135-.355-.251-.085-.499-.166-.786-.265-.289-.091-.616-.2-.965-.29-.34-.13-.715-.204-1.105-.303l-1.253-.32c-.882-.207-1.838-.365-2.855-.52-1.031-.12-2.165-.24-3.325-.242-1.16-.001-2.41.009-3.664.187-1.266.158-2.55.389-3.84.727s-2.537.808-3.701 1.299a27 27 0 0 0-3.25 1.666 30 30 0 0 0-2.76 1.873c-.81.646-1.569 1.263-2.226 1.888-.325.289-.647.584-.931.884s-.56.567-.81.811a17 17 0 0 1-.686.739 13 13 0 0 0-.553.625c-.346.371-.59.681-.805.878-.214.196-.337.269-.393.233s-.052-.204.032-.447c.106-.263.231-.668.494-1.121.121-.238.273-.493.43-.787.172-.268.355-.576.573-.871.209-.324.452-.634.706-.985s.55-.692.87-1.048a21 21 0 0 1 2.178-2.19 26.4 26.4 0 0 1 2.844-2.184c1.046-.691 2.2-1.375 3.461-1.924a24.6 24.6 0 0 1 4.004-1.451c1.402-.37 2.82-.611 4.199-.74 1.368-.149 2.71-.118 3.962-.067 1.267.076 2.444.268 3.558.47a27 27 0 0 1 4.281 1.295 13 13 0 0 1 1.081.484c.329.17.648.312.916.485q.4.257.761.445c.453.263.752.547.959.721s.29.325.234.393l-.041-.01z"/><path fill="#12415D" d="M106.627 275.051c-.071.042-.19.016-.416-.085s-.531-.278-.926-.444c-.797-.389-1.974-.815-3.536-1.11a30 30 0 0 0-2.576-.328 36 36 0 0 0-2.98-.115 30.7 30.7 0 0 0-6.76.831 31.4 31.4 0 0 0-6.406 2.312c-.946.464-1.803.973-2.615 1.455-.811.481-1.524 1.001-2.178 1.458a96 96 0 0 0-1.732 1.325 7 7 0 0 0-.688.574c-.23.171-.396.332-.58.475-.363.285-.627.503-.831.659-.22.13-.342.203-.41.147-.03-.051-.037-.179.07-.442.1-.225.288-.571.57-.932.137-.212.29-.407.453-.634.162-.227.374-.485.6-.722.425-.515.955-1.064 1.577-1.633.621-.569 1.32-1.184 2.134-1.764a29 29 0 0 1 2.683-1.724 27.4 27.4 0 0 1 6.825-2.663 26.5 26.5 0 0 1 7.29-.718c1.127.063 2.18.163 3.177.33.997.168 1.905.36 2.728.631s1.557.566 2.159.906a7.1 7.1 0 0 1 1.453.994c.356.32.615.594.745.814s.203.342.147.41l.025-.015z"/><path fill="#12415D" d="M98.942 269.184c-.02.082-.148.088-.326.125-.19.016-.432-.006-.76-.046a4 4 0 0 1-.517-.093c-.18-.025-.4-.059-.621-.094a18 18 0 0 0-1.493-.177c-.568-.063-1.14-.083-1.794-.129-.64-.02-1.328-.005-2.05.058-.722.062-1.482.12-2.228.259a20 20 0 0 0-2.348.566c-.787.232-1.549.518-2.25.838-.72.296-1.394.662-2.006 1.025-.613.364-1.2.712-1.73 1.096-.532.384-1.02.736-1.44 1.089-.418.352-.815.684-1.14.973-.178.141-.325.29-.458.403-.158.129-.274.259-.38.358-.241.211-.448.362-.596.45-.148.087-.245.145-.313.089-.068-.057-.088-.148-.038-.343s.135-.447.267-.725c.08-.144.167-.334.273-.493s.213-.362.355-.577c.264-.391.603-.82.99-1.284s.838-.926 1.378-1.412c.53-.445 1.135-.936 1.789-1.393.668-.431 1.388-.893 2.168-1.252a22 22 0 0 1 2.52-.999 16.4 16.4 0 0 1 2.641-.574c.86-.11 1.7-.146 2.516-.168.79-.006 1.564.066 2.246.157.698.118 1.335.237 1.92.386.586.15 1.1.341 1.527.515.226.101.433.171.592.277.185.09.35.193.494.273.293.157.495.334.634.452q.208.176.175.296l.005.066z"/><path fill="#fff" d="M79.417 98.105q-4.355 1.167-8.71 2.325c-1.354.143-3.601.601-4.926 2.349-1.62 2.13-1.035 5.062-.715 6.549 1.177 5.507 4.145 18.55 8.426 35.898.112.619.692 3.468 3.359 5.406 3.104 2.255 6.534 1.47 7.025 1.345 14.765-3.474 29.531-6.941 44.29-10.414.74-.256 2.52-1.005 3.844-2.849 2.099-2.932 1.354-6.251 1.224-6.768l-8.651-36.993c0-.316-.083-3.105-2.478-4.895-2.418-1.814-5.126-1.053-5.422-.964q-18.636 4.504-37.272 8.999z"/><path fill="#12415D" d="M79.216 97.254c-1.13.143-2.242.292-3.36.5s-2.199.487-3.299.755c-.91.22-1.815.47-2.744.589-.745.1-1.49.267-2.187.559-1.544.636-2.744 1.82-3.259 3.432-.45 1.421-.437 2.961-.224 4.43.283 1.945.768 3.878 1.194 5.793a888 888 0 0 0 1.739 7.649c1.697 7.327 3.477 14.624 5.274 21.922.337 1.368.544 2.641 1.065 3.979.603 1.546 1.549 2.961 2.808 4.05 2.064 1.772 4.944 2.45 7.593 1.903 3.98-.815 7.93-1.867 11.892-2.783 4.37-1.017 8.734-2.028 13.098-3.045 4.37-1.017 8.751-1.969 13.109-2.998q1.65-.394 3.3-.779c1.1-.256 2.176-.434 3.223-.767 1.33-.423 2.608-1.338 3.512-2.385 1.969-2.284 2.395-5.454 1.804-8.338-.816-3.961-1.851-7.893-2.779-11.824-1.041-4.407-2.094-8.814-3.117-13.221-.502-2.165-1.011-4.324-1.525-6.489q-.391-1.648-.781-3.307c-.118-.535-.248-1.058-.378-1.588-.03-.13-.148-.862-.13-.428.011.38.011.107.005.012-.189-3.116-1.892-6.381-5.038-7.327a6.86 6.86 0 0 0-3.418-.113c-1.691.386-3.376.827-5.061 1.237a7618 7618 0 0 0-26.167 6.394c-2.105.523-4.216 1.034-6.32 1.575-.616.155-.102 2.255.537 2.112 8.35-1.897 16.67-3.913 24.996-5.918 4.103-.993 8.219-1.956 12.311-2.962 2.36-.577 5.109.096 6.44 2.296q.222.374.372.791c.059.173.036.077.077.244l.047.196c.048.22-.029-.166.006.036.018.107.03.208.048.315.035.238 0 .012.006.03.011.244.023.493.07.737.379 2.112.97 4.205 1.455 6.293q1.453 6.246 2.898 12.501c.964 4.169 1.951 8.416 2.933 12.621.449 1.939.904 3.889 1.354 5.828l.035.155c.054.202-.041-.315-.017-.072.023.226.065.452.088.678.024.226 0-.077.012.155 0 .137.006.262.006.399 0 .273-.012.547-.053.82a7.13 7.13 0 0 1-2.099 4.223c-1.106 1.076-2.348 1.641-3.82 1.986-4.163.976-8.309 2.005-12.466 2.992-8.355 1.986-16.705 3.985-25.066 5.947-1.94.458-3.873.934-5.819 1.368a8.6 8.6 0 0 1-2.46.203c-3.021-.203-5.742-2.04-6.782-4.943-.083-.226.017.072-.047-.137-.03-.095-.054-.196-.083-.291-.048-.196-.124-.535-.048-.196-.213-1.053-.496-2.088-.75-3.129-.48-1.962-.97-3.919-1.432-5.888-.822-3.491-1.655-6.988-2.477-10.479-1.16-4.942-2.277-9.897-3.4-14.845-.444-1.956-1.1-3.788-.556-5.81.437-1.624 1.726-2.772 3.258-3.349a9.6 9.6 0 0 1 1.945-.488c.976-.148 1.958-.529 2.91-.808a67 67 0 0 0 2.874-.892c1.04-.357 2.04-.774 3.05-1.202.261-.107.06-.916-.218-.886l.035-.012z"/><path fill="#12415D" d="m69.512 98.92 46.614-10.718c3.631-.832 7.25 1.452 8.083 5.103l1.319 5.811-59.771 13.745-1.32-5.811c-.827-3.652 1.444-7.292 5.075-8.13"/><path fill="#fff" d="M76.68 92.104c.875 3.99 1.75 7.975 2.631 11.966 1.407-.345 2.82-.69 4.228-1.029-1.117-3.96-2.23-7.916-3.347-11.883l-3.518.946z"/><path fill="#12415D" d="M76.478 91.937c-.023.975.213 1.945.414 2.896.22 1.041.444 2.082.663 3.117.449 2.075.892 4.157 1.336 6.227.053.244.296.898.65.815 1.42-.334 2.833-.613 4.234-1.017.361-.102.26-.815.184-1.047-.592-1.969-1.088-3.973-1.644-5.948-.556-1.974-1.13-3.955-1.697-5.935-.071-.232-.302-.976-.68-.874-1.171.32-2.342.648-3.513.969-.585.16-.1 2.07.485 1.915 1.177-.31 2.348-.613 3.524-.922l-.68-.874c.556 1.98 1.1 3.96 1.65 5.941.556 1.98 1.177 3.944 1.697 5.936l.183-1.047c-1.43.286-2.814.69-4.228 1.047l.651.815c-.467-2.076-.928-4.14-1.395-6.215q-.357-1.551-.704-3.11c-.213-.947-.42-1.904-.846-2.784-.118-.25-.296-.167-.301.077z"/><path fill="#fff" d="M90.469 88.934c.875 3.99 1.75 7.975 2.631 11.966q2.114-.519 4.228-1.029c-1.117-3.96-2.23-7.916-3.347-11.883q-1.754.473-3.518.946z"/><path fill="#12415D" d="M90.267 88.767c-.023.975.213 1.945.414 2.896.22 1.041.444 2.082.663 3.117.449 2.076.893 4.157 1.336 6.227.053.244.296.898.65.815 1.42-.333 2.833-.613 4.234-1.017.361-.102.26-.815.184-1.047-.592-1.969-1.088-3.973-1.644-5.948-.556-1.974-1.13-3.955-1.697-5.935-.071-.232-.302-.975-.68-.874-1.171.32-2.342.648-3.513.969-.585.16-.1 2.07.485 1.915 1.177-.31 2.348-.613 3.524-.922l-.68-.874c.556 1.98 1.1 3.961 1.65 5.942.556 1.98 1.177 3.943 1.697 5.935l.184-1.047c-1.431.286-2.815.69-4.228 1.047l.65.815c-.467-2.076-.928-4.14-1.395-6.215q-.357-1.551-.704-3.11c-.213-.946-.42-1.904-.846-2.784-.118-.25-.295-.167-.301.077z"/><path fill="#fff" d="M103.467 85.943c.875 3.99 1.75 7.975 2.631 11.966 1.408-.345 2.821-.69 4.228-1.029-1.117-3.961-2.229-7.916-3.347-11.883l-3.518.946z"/><path fill="#12415D" d="M103.265 85.776c-.023.975.213 1.945.414 2.896.219 1.041.444 2.082.663 3.117.449 2.075.893 4.157 1.336 6.227.053.243.296.898.651.814 1.419-.333 2.832-.612 4.233-1.017.361-.1.261-.814.184-1.046-.592-1.969-1.088-3.973-1.644-5.948-.556-1.974-1.13-3.955-1.697-5.935-.071-.232-.302-.976-.68-.875-1.171.322-2.342.649-3.513.97-.585.16-.1 2.07.485 1.915 1.177-.31 2.348-.613 3.524-.922l-.68-.874c.556 1.98 1.1 3.96 1.65 5.941.556 1.98 1.177 3.943 1.697 5.936l.184-1.047c-1.431.285-2.815.69-4.228 1.047l.65.815c-.467-2.076-.928-4.14-1.395-6.216q-.356-1.55-.704-3.11c-.213-.946-.42-1.903-.846-2.783-.118-.25-.295-.167-.301.077z"/><path fill="#D0DCE4" d="m78.083 115.203-6.312 1.452a.27.27 0 0 0-.2.321l1.443 6.348a.267.267 0 0 0 .32.202l6.311-1.452a.27.27 0 0 0 .2-.321l-1.443-6.348a.267.267 0 0 0-.319-.202M88.898 112.717l-6.312 1.452a.267.267 0 0 0-.2.32l1.443 6.349a.266.266 0 0 0 .319.201l6.312-1.451a.27.27 0 0 0 .2-.321l-1.444-6.349a.266.266 0 0 0-.318-.201M99.706 110.232l-6.312 1.452a.267.267 0 0 0-.2.32l1.443 6.349a.266.266 0 0 0 .32.201l6.311-1.452a.266.266 0 0 0 .2-.32l-1.443-6.349a.266.266 0 0 0-.319-.201M80.349 125.179l-6.312 1.452a.267.267 0 0 0-.2.32l1.443 6.349a.266.266 0 0 0 .319.201l6.312-1.452a.267.267 0 0 0 .2-.32l-1.443-6.349a.266.266 0 0 0-.32-.201M91.163 122.694l-6.312 1.451a.27.27 0 0 0-.2.321l1.444 6.349a.266.266 0 0 0 .318.201l6.312-1.452a.267.267 0 0 0 .2-.32l-1.443-6.349a.266.266 0 0 0-.319-.201M101.972 120.207l-6.312 1.452a.27.27 0 0 0-.2.321l1.443 6.348a.266.266 0 0 0 .319.201l6.312-1.451a.27.27 0 0 0 .2-.321l-1.443-6.348a.267.267 0 0 0-.319-.202M112.781 117.722l-6.313 1.452a.27.27 0 0 0-.2.32l1.444 6.349a.265.265 0 0 0 .318.201l6.313-1.452a.27.27 0 0 0 .2-.32l-1.444-6.349a.265.265 0 0 0-.318-.201M114.997 127.465l-6.312 1.452a.267.267 0 0 0-.2.32l1.443 6.349a.266.266 0 0 0 .319.201l6.312-1.451a.267.267 0 0 0 .2-.321l-1.443-6.349a.266.266 0 0 0-.319-.201"/><path fill="#12415D" d="m123.595 115.235-6.312 1.451a.27.27 0 0 0-.2.321l1.443 6.349a.266.266 0 0 0 .319.201l6.312-1.452a.267.267 0 0 0 .2-.32l-1.443-6.349a.266.266 0 0 0-.319-.201"/><path fill="#D0DCE4" d="m125.812 124.978-6.312 1.452a.266.266 0 0 0-.2.32l1.443 6.349a.266.266 0 0 0 .319.201l6.312-1.452a.267.267 0 0 0 .2-.32l-1.444-6.349a.265.265 0 0 0-.318-.201M93.38 132.443l-6.312 1.451a.27.27 0 0 0-.2.321l1.443 6.349a.266.266 0 0 0 .319.201l6.312-1.452a.267.267 0 0 0 .2-.32l-1.443-6.349a.266.266 0 0 0-.319-.201M104.189 129.951l-6.312 1.451a.27.27 0 0 0-.2.321l1.443 6.348a.267.267 0 0 0 .319.202l6.312-1.452a.27.27 0 0 0 .2-.321l-1.444-6.348a.265.265 0 0 0-.318-.201"/><path fill="#12415D" d="M71.628 116.738c.13 1.095.432 2.183.668 3.26.237 1.07.491 2.224.734 3.33.017.083.094.297.219.28 1.117-.226 2.235-.446 3.346-.684s2.218-.542 3.335-.744c.101-.024.06-.25.048-.303-.314-1.374-.615-2.795-1.112-4.116-.035-.095-.094-.083-.083.018.184 1.404.592 2.795.958 4.157l.048-.303c-1.106.256-2.242.416-3.365.648a470 470 0 0 0-3.347.702l.219.28c-.255-1.113-.515-2.213-.769-3.325-.26-1.106-.45-2.183-.798-3.229-.042-.125-.118-.096-.107.023h.012zM73.923 126.837c.13 1.094.432 2.183.668 3.259l.734 3.331c.017.083.094.297.218.279 1.118-.226 2.236-.446 3.347-.684 1.112-.238 2.218-.541 3.335-.743.1-.024.06-.25.048-.303-.314-1.374-.615-2.796-1.112-4.116-.035-.095-.095-.083-.083.018.183 1.403.592 2.795.958 4.157l.047-.303c-1.105.255-2.24.416-3.364.648a470 470 0 0 0-3.347.702l.219.279c-.255-1.112-.515-2.212-.769-3.324-.254-1.113-.45-2.183-.798-3.23-.042-.125-.119-.095-.107.024h.012zM84.638 124.268c.13 1.094.432 2.182.668 3.259s.491 2.224.733 3.33c.018.084.095.298.22.28 1.117-.226 2.234-.446 3.346-.684s2.218-.541 3.335-.744c.1-.023.06-.249.048-.303-.314-1.374-.615-2.795-1.112-4.115-.036-.096-.095-.084-.083.017.183 1.404.591 2.796.958 4.158l.047-.304c-1.105.256-2.24.417-3.364.649q-1.679.347-3.347.701l.219.28c-.255-1.112-.515-2.213-.77-3.325-.253-1.112-.449-2.182-.797-3.229-.042-.125-.119-.095-.107.024h.012zM97.665 131.523c.13 1.095.432 2.183.668 3.26l.734 3.33c.018.083.094.298.219.28 1.117-.226 2.235-.446 3.346-.684s2.218-.541 3.336-.744c.1-.023.059-.249.047-.303-.314-1.374-.615-2.795-1.112-4.116-.035-.095-.094-.083-.083.018.184 1.404.592 2.796.958 4.158l.048-.304c-1.106.256-2.241.417-3.365.648s-2.235.464-3.347.702l.219.28c-.254-1.112-.515-2.213-.769-3.325s-.45-2.183-.798-3.229c-.041-.125-.118-.095-.107.024h.012zM108.474 129.037c.13 1.094.432 2.183.668 3.259s.491 2.225.733 3.331c.018.083.095.297.219.279 1.118-.226 2.235-.446 3.347-.684 1.112-.237 2.218-.541 3.335-.743.101-.024.059-.25.047-.303-.313-1.374-.614-2.796-1.111-4.116-.036-.095-.095-.083-.083.018.183 1.404.591 2.795.958 4.157l.047-.303c-1.106.256-2.241.416-3.364.648-1.124.232-2.236.464-3.347.702l.218.279c-.254-1.112-.514-2.212-.768-3.324-.255-1.112-.45-2.183-.799-3.23-.041-.124-.118-.095-.106.024h.012zM119.201 126.575c.13 1.095.431 2.183.668 3.259.236 1.077.491 2.225.733 3.331.018.083.095.297.219.28 1.117-.227 2.235-.447 3.347-.684 1.111-.238 2.217-.542 3.335-.744.1-.024.059-.25.047-.303-.313-1.374-.615-2.795-1.112-4.116-.035-.095-.094-.083-.082.018.183 1.404.591 2.795.958 4.157l.047-.303c-1.106.256-2.241.416-3.365.648q-1.677.346-3.347.702l.219.28c-.254-1.113-.514-2.213-.769-3.325-.26-1.106-.449-2.183-.798-3.23-.041-.124-.118-.095-.106.024h.011zM106.222 119.129c.13 1.094.432 2.183.668 3.259.237 1.071.491 2.224.733 3.331.018.083.095.297.219.279 1.118-.226 2.235-.446 3.347-.684s2.218-.541 3.335-.743c.101-.024.059-.25.048-.303-.314-1.374-.615-2.796-1.112-4.116-.036-.095-.095-.083-.083.018.183 1.403.591 2.795.958 4.157l.047-.303c-1.105.255-2.241.416-3.364.648-1.124.232-2.236.464-3.347.702l.219.279c-.255-1.112-.515-2.212-.769-3.324-.254-1.113-.45-2.183-.798-3.23-.042-.125-.119-.095-.107.024h.012zM95.411 121.615c.13 1.095.432 2.183.669 3.259l.733 3.331c.018.083.094.297.219.28 1.117-.226 2.235-.447 3.347-.684 1.111-.238 2.217-.542 3.335-.744.1-.024.059-.25.047-.303-.313-1.374-.615-2.795-1.112-4.116-.035-.095-.094-.083-.082.018.183 1.404.591 2.795.957 4.157l.048-.303c-1.106.256-2.241.416-3.365.648q-1.677.346-3.347.702l.219.28c-.254-1.113-.514-2.213-.769-3.325-.254-1.112-.45-2.183-.798-3.229-.041-.125-.118-.096-.106.023h.011zM93.2 111.902c.13 1.095.432 2.183.669 3.26l.733 3.33c.018.083.095.297.219.28 1.117-.226 2.235-.446 3.347-.684 1.111-.238 2.217-.542 3.335-.744.1-.024.059-.25.047-.303-.313-1.374-.615-2.795-1.112-4.116-.035-.095-.094-.083-.082.018.183 1.404.591 2.795.958 4.157l.047-.303c-1.106.256-2.241.416-3.365.648q-1.677.346-3.347.702l.22.28c-.255-1.112-.515-2.213-.77-3.325-.254-1.112-.45-2.183-.798-3.229-.041-.125-.118-.096-.106.023h.011zM86.831 133.914c.13 1.094.432 2.183.668 3.259l.734 3.331c.017.083.094.297.219.279 1.117-.226 2.235-.446 3.347-.684 1.111-.237 2.217-.541 3.335-.743.1-.024.059-.25.047-.303-.313-1.374-.615-2.796-1.112-4.116-.035-.095-.094-.083-.083.018.184 1.403.592 2.795.958 4.157l.048-.303c-1.106.256-2.241.416-3.365.648a470 470 0 0 0-3.347.702l.219.279c-.254-1.112-.515-2.212-.769-3.324s-.45-2.183-.798-3.23c-.041-.125-.118-.095-.107.024h.012zM82.398 114.389c.13 1.094.431 2.182.668 3.259l.733 3.33c.018.084.095.298.219.28 1.118-.226 2.235-.446 3.347-.684s2.217-.541 3.335-.743c.1-.024.06-.25.047-.304-.313-1.374-.615-2.795-1.111-4.115-.036-.096-.095-.084-.083.017.183 1.404.591 2.796.958 4.158l.047-.304c-1.106.256-2.241.417-3.365.649a470 470 0 0 0-3.346.702l.218.279c-.254-1.112-.514-2.212-.768-3.325-.255-1.112-.45-2.182-.799-3.229-.041-.125-.118-.095-.106.024h.012z"/><path fill="#fff" d="M119.331 118.011a18 18 0 0 0 1.822 1.79c.319.262.638.53.975.767.29.203.586.435.946.441.036 0 0-.09-.005-.102-.509-.672-1.266-1.124-1.91-1.665a44 44 0 0 1-1.798-1.564c-.059-.06-.095.03-.101.077a.37.37 0 0 0 .071.256"/><path fill="#fff" d="M119.84 121.389c.296-.274.532-.643.757-.976q.364-.528.727-1.064c.243-.357.467-.684.686-1.035.166-.262.521-.72.243-1.029-.024-.024-.048-.042-.071-.018-.036.024-.053.077-.077.113-.047.066-.107.131-.154.196-.118.149-.225.31-.331.47l-.668.993c-.219.328-.426.637-.633.964-.219.351-.455.702-.621 1.082-.029.066.042.393.142.298z"/></svg>