<svg xmlns="http://www.w3.org/2000/svg" width="578" height="580" fill="none" viewBox="0 0 578 580"><path fill="#fff" d="M276.743 134.462a768 768 0 0 0 10.92 74.943c4.942 25.186 11.906 51.479 30.047 69.591 5.242 5.231 11.828 9.827 19.22 10.008 8.908.24 16.608-5.823 23.434-11.56a30.8 30.8 0 0 1 4.694 11.894 208 208 0 0 0-7.237 8.927 208 208 0 0 0-11.05 15.882c-17.01 6.458-31.776 12.263-44.633 17.272-3.862 1.509-10.278 4.013-16.179 10.067-4.248 4.348-6.895 10.008-9.302 15.599-9.293 21.56-16.488 43.942-23.674 66.281-8.163 25.376-16.317 50.734-24.462 76.109a226.87 226.87 0 0 1-109.009-16.285c.052 3.413.12 6.843.172 10.265-3.829-3.533-11.315-.137-11.169 5.068-9.825-5.583-11.452-19.021-18.467-27.871-4.103-5.188-10.132-8.833-13.25-14.681-5.936-11.08.668-25.684-4.942-36.935-7.23 6.646-11.555 16.362-11.64 26.19-.317-4.365-5.08-6.998-9.388-7.658-4.317-.669-8.933-.241-12.847-2.179-4.917-2.427-7.975-8.258-13.362-9.33-4.96-.986-9.893 2.779-11.957 7.392-2.064 4.623-1.97 9.888-1.824 14.965.188 6.834-5.662 12.451-7.88 18.926-1.345 3.928-2.587 8.13-1.61 12.16.265 1.081.676 2.136 1.104 3.165a97 97 0 0 0 4.865 9.913 19.6 19.6 0 0 0-.788 3.713c-.094.824-.12 1.673 0 2.496.172 1.072.617 2.067 1.071 3.044.428.892.865 1.758 1.396 2.59 2.373 3.653 6.638 6.003 10.998 6.063.068.163-.163.343-.308.24.976 2.333 2.723 4.202 4.942 5.42a11.38 11.38 0 0 0 7.357 1.243c-.137.078-.265.172-.402.258 1.173 2.71 3.742 4.433 6.278 5.925 2.535 1.493 5.37 2.402 8.214 3.173 1.105.309 2.252.618 3.092 1.39 9.207-.438 18.158-.455 27.365-.892 6.45-.309 12.942-.626 19.315.386 6.372 1.012 12.693 3.456 17.301 7.984 1.671 1.629 3.084 3.507 4.797 5.102 4.223 3.936 9.901 5.832 15.434 7.504a376 376 0 0 0 46.201 10.771q-.615-.399-1.242-.798c22.064 6.938 45.07 8.902 68.11 10.866 4.933.411 10.252.746 14.466-1.844 3.743-2.299 5.868-6.458 7.812-10.411 10.235-20.873 20.513-41.832 27.785-63.931.403 34.405.797 68.819 1.216 103.224 6.801-5.342 16.42-4.219 25.011-3.258 29.926 3.336 60.453 1.277 89.66-6.063 5.541-1.39 10.826-1.878 16.513-2.419 13.961-1.295 28.008-2.589 41.952-1.269 7.718.738 15.341 2.273 23.024 3.353a196.4 196.4 0 0 0 45.164 1.072 114 114 0 0 1-1.028-17.94c.103-4.777.522-9.553.933-14.321l7.118-82.884c-.103.335-.214.669-.317 1.004-.385-30.898-2.235-61.968-5.413-92.711-1.242-11.998-2.544-24.278-7.709-35.186-1.816-3.833-4.162-7.529-7.588-10.008-1.851-1.346-3.958-2.298-6.065-3.207-24.153-10.462-49.763-17.1-74.679-25.59-1.944-.669-3.949-1.363-5.516-2.684-2.184-1.826-3.289-4.588-4.497-7.178a69.1 69.1 0 0 0-12.197-18.111c-2.355-2.522-6.295-4.983-8.959-2.779-.736.618-.068 2.376.454 1.578-.497.557-1.293.678-2.03.6-2.201-9.544-4.402-19.098-6.012-28.762-1.028-6.158-1.799-12.521-.334-18.584 2.115-8.773 8.599-15.787 11.982-24.149 1.696-4.193 2.587-8.661 3.204-13.137.376-2.736.65-5.549.042-8.25-.736-3.242-2.706-6.072-5.002-8.473-3.306-3.456-7.314-6.157-11.314-8.807-2.75-1.827-5.585-3.688-8.814-4.391-4.839-1.055-9.875.643-14.167 3.122-.89.523-1.91 1.08-2.895.772-.89-.283-1.413-1.201-1.773-2.084-2.355-5.703-2.107-13.095-7.109-16.697-2.415-6.38-5.413-12.623-8.051-18.909-2.253-5.351-4.642-10.771-8.505-15.093-1.362-1.518-2.929-2.908-4.839-3.628-2.45-.917-5.174-.626-7.743-.163-12.386 2.204-23.888 7.77-35.957 11.346-5.653 1.672-11.477 2.924-16.788 5.514-1.635.797-3.211 1.732-4.787 2.658-2.253 1.321-4.506 2.659-6.758 3.979.257.026.505.069.771.095v.017z"/><path fill="#E3E7F6" d="M483.403 360.19c-5.174 13.189-11.641 33.41-13.662 58.623-2.235 27.785 1.876 48.486 3.974 60.526 4.797 27.683 7.726 49.422 3.7 104.537-12.547.017-21.661-.746-34.2-.737 4.282-35.04 4.18-44.139 5.362-63.914 5.661-94.881-1.337-146.952 30.697-169.172 7.409-5.136 14.741-7.169 18.569-8.018-4.813 6.063-9.61 12.109-14.423 18.163h-.017z"/><path fill="#CACACA" d="M350.094 442.473c-.283-5.883-.505-11.869-.702-17.914-.703 5.591-.557 11.611.702 17.914"/><path fill="#E3E7F6" d="M433.184 294.587c-10.74 15.787-21.498 31.575-32.248 47.371-4.171-5.737-8.342-11.482-12.513-17.22a98.7 98.7 0 0 0 16.822-16.002 98.3 98.3 0 0 0 14.586-23.874c.703-2.273-.402-4.682-2.467-5.592-1.892-.823-4.188-.197-5.464 1.536a279 279 0 0 1-11.692-57.328c-3.708 12.76-1.156 26.37-.359 39.645.796 13.266-.84 28.042-10.587 37.081-3.4 3.404-10.321 6.191-15.092 4.339-4.402-1.707-4.676-5.883-6.663-9.708a71.5 71.5 0 0 0-10.613 14.304c-12.025 21.354-9.661 43.273-8.068 52.56a1292 1292 0 0 0-.026 37.33c.12 8.653.334 17.151.6 25.521.043-.317.094-.626.137-.935 8.145 30.564 16.291 61.119 24.436 91.682-.042-27.725.908-57.259 3.229-88.389.977-13 2.133-25.666 3.452-37.998 11.161-.412 22.706 7.195 30.424 18.377 6.252-24.251 12.505-48.503 18.74-72.738 3.015-10.188 6.013-20.384 9.028-30.564-1.876-3.138-3.76-6.277-5.636-9.407l-.017.017zM251.433 543.048c18.449-11.08 15.015-34.44 31.391-111.809a1145 1145 0 0 1 12.865-54.241c-.411 43.59-.137 71.752.617 90.267.163 3.936.402 10.934-.84 20.204-1.798 13.404-7.229 25.984-12.607 38.385-4.095 9.45-8.197 18.9-12.291 28.351-1.919 4.442-4.077 9.141-8.172 11.723-5.867 3.67-13.413 1.706-20.239.557-15.743-2.658-16.634.069-34.064-1.672-19.023-1.896-51.468-8.584-90.679-22.786 1.55-9.553 3.092-19.115 4.642-28.685a313.3 313.3 0 0 0 54.466 21.422c39.922 11.534 59.879 17.297 74.902 8.275zM288.82 216.951c.771-.789 2.064-.866 3.084-.429 1.019.437 1.79 1.278 2.449 2.161 3.135 4.134 4.411 9.33 5.987 14.279s3.683 10.05 7.837 13.146c5.157 3.842 12.24 3.722 18.57 2.598-7.435-1.457-14.158-6.303-17.893-12.906-3.906-6.912-4.497-15.179-4.317-23.12.163-7.932.985-15.95-.437-23.754-1.027-5.617-3.211-11.011-6.252-15.857-2.57-4.099-5.987-7.966-10.57-9.519-1.815-.617-4.162-1.106-6.089-.934-2.09.197-1.653.36-1.371 2.255.617 4.134 1.011 8.318 1.576 12.469a399 399 0 0 0 4.317 25.59 355 355 0 0 0 1.55 7.263c.172.798 1.996 6.329 1.576 6.766v-.017z"/><path fill="#09151F" d="M330.916 192.828c-.822-.738-1.268-1.123-1.584-.978-1.517.669.985 12.281 3.957 12.469.599.043 1.07-.377 1.096-.403 1.011-.917.377-3.07-.291-5.3-1.191-3.961-2.724-5.402-3.161-5.788zM294.42 198.291c-.676-.601-1.027-.909-1.293-.798-1.242.549.797 10.008 3.229 10.154.48.025.865-.309.891-.318.822-.746.308-2.495-.24-4.313-.976-3.233-2.21-4.408-2.569-4.725zM283.492 166.158c1.464.454 2.929.909 4.342 1.509 1.371.583 2.69 1.312 3.975 2.084.428.266.882.532 1.387.583.505.052 1.079-.188 1.225-.669.069-.188.051-.386.026-.583-.137-1.192-.745-2.272-1.559-3.147s-1.799-1.561-2.801-2.204c-3.358-2.118-7.109-3.833-11.066-4.176-.146 0-.043 4.416.317 4.948.719 1.08 2.998 1.312 4.145 1.655z"/><path fill="#E3E7F6" d="M410.094 191.748c2.279 3.524 2.416 7.983.317 11.414-2.449 4.03-7.554 5.951-12.368 4.502-.051-.403-.951-9.167 5.336-13.644 2.518-1.801 5.182-2.187 6.715-2.272"/><path fill="#09151F" d="M397.614 209.405c.454-.952.496-1.998.651-3.028.188-1.2.359-2.392.676-3.55.617-2.204 1.653-4.322 3.118-6.089a13.4 13.4 0 0 1 5.028-3.713c.959-.403 1.961-.737 2.989-.866.677-.094 1.696-.334 2.295.12.077.069.077-.214.069-.24-.548-2.47-2.878-3.173-5.105-2.521-2.355.694-4.411 2.281-5.987 4.15-1.799 2.119-2.964 4.657-3.64 7.341-.377 1.467-.668 3.019-.745 4.528-.069 1.295-.137 2.667.385 3.868.069.145.189.137.257 0h.017z"/><path fill="#09151F" d="M263.802 117.457c-2.441 1.364-1.08 5.257 1.13 6.963s5.199 2.951 5.944 5.635c.403 1.44.026 3.027.497 4.459 1.002 3.053 5.174 3.713 8.223 2.727 3.066-.986 5.781-3.027 8.967-3.43 2.587-.335 5.225.454 7.786 0 3.854-.703 6.758-4.082 10.57-4.983 2.706-.626 5.533.069 8.308-.103 6.569-.437 12.745-5.78 19.066-3.91 2.347.695 4.548 2.358 6.955 1.972 1.798-.291 3.289-1.723 5.105-1.895 3.905-.403 5.85 4.631 6.149 8.559.771 10.187-.308 21.353 5.636 29.646 2.655 3.696 6.535 6.483 8.651 10.513 3.332 6.329 1.627 14.244 4.214 20.899.762 1.947 2.929 4.828 6.475 5.994 4.377 1.441 8.625-.814 9.987-1.638 6.57-3.953 4.771-10.007 10.895-14.441 3.495-2.538 9.148-4.245 13.37-2.187 6.493 3.165 7.957 14.51 4.548 22.357-4.051 9.287-14.141 11.783-15.528 12.092 1.944 13.918 3.888 27.845 5.841 41.763 7.983-14.75 10.784-21.105 11.255-23.437 0-.052.068-.36.163-.764a40 40 0 0 1 2.346-7.22c.891-2.084 2.21-3.954 3.358-5.9 3.52-6.046 5.345-12.924 7.135-19.69 2.604-9.862 5.199-19.724 7.794-29.594 1.362-5.154 2.724-10.548 1.55-15.754-1.19-5.282-4.882-9.742-6.021-15.033-.582-2.71-.505-5.591-1.696-8.087-1.602-3.353-5.096-5.256-8.077-7.46-1.079-.798-2.175-1.75-2.544-3.053-.651-2.299 1.199-4.554 1.388-6.929.334-3.988-3.743-6.724-5.893-10.103-1.602-2.521-2.184-5.617-3.983-7.992-4.317-5.729-13.027-4.768-19.768-7.22-4.548-1.656-8.882-5.112-13.627-4.228-1.73.317-3.332 1.217-5.079 1.372-2.878.257-5.516-1.484-7.975-3.002-3.837-2.392-8.573-4.468-12.719-2.684-2.372 1.03-4.188 3.216-6.681 3.885-3.691.986-7.828-1.612-11.306-.026-1.25.575-2.321 1.655-3.683 1.758-1.678.137-3.023-1.226-4.428-2.178-5.242-3.533-13.567-.403-15.169 5.728-3.357-4.124-9.773-5.368-14.423-2.787-2.45 1.364-4.531 3.67-7.315 4.048-1.43.189-2.852-.163-4.283-.309-6.466-.694-13.173 3.147-15.854 9.073-.556 1.244-.976 2.573-1.875 3.576-.797.884-1.893 1.415-2.853 2.118-3.28 2.427-4.616 7.178-3.066 10.96l4.051-.077M341.291 253.989c1.798 2.667 6.115-.523 7.708-1.964 2.159-1.972 3.837-4.347 5.054-7.006 2.252-4.922 3.477-11.757.762-16.739-.146-.266-.223.188-.214.291.531 5.017.257 10.094-2.03 14.682a22 22 0 0 1-4.454 6.02 16.3 16.3 0 0 1-3.289 2.452c-1.122.643-2.758.918-3.529 1.973-.051.068-.043.197 0 .266v.017zM292.426 167.667c1.439 2.804 3.357 5.343 4.813 8.138 1.456 2.805 2.604 5.978 3.521 9.116 1.893 6.501 2.663 13.258 2.852 20.007.317 12.092-1.756 26.576 6.878 36.481 1.893 2.178 4.531 3.893 7.134 5.085 2.93 1.347 5.705 1.398 8.865 1.226.163 0 .146-.48 0-.497-2.869-.283-5.815-1.518-8.411-2.787-2.603-1.269-4.745-3.113-6.569-5.377-3.923-4.862-5.465-11.105-5.824-17.228-.403-6.792.12-13.584-.266-20.385-.36-6.311-1.225-12.691-3.323-18.703-1.054-3.027-2.467-5.943-4.094-8.687-1.371-2.324-3.024-5.248-5.542-6.458-.026-.017-.026.069-.017.078l-.017-.018z"/><path fill="#E3E7F6" d="M321.376 177.478c.788 1.037 2.029 1.826 3.331 1.775 1.936-.077 3.307-1.852 5.028-2.727 3.049-1.552 6.681-.137 10.09.146.745.068 1.576.042 2.133-.463.908-.815.556-2.282.137-3.414-.583-1.56-1.199-3.147-2.184-4.502-1.123-1.518-2.69-2.658-4.223-3.765-3.64-2.615-10.535-6.5-14.809-2.855-3.76 3.19-2.056 12.426.505 15.805z"/><path fill="#09151F" d="M319.294 162.127c.677 1.999 4.797.412 10.45 2.685 4.248 1.706 9.104 5.471 11.862 9.047.6.772 2.51 3.362 3.118 3.053.163-.077.171-.317.188-.412.103-1.192-1.85-10.145-11.854-15.95-2.929-1.707-7.837-4.563-11.331-2.496-1.508.883-2.878 2.761-2.441 4.082v-.017zM276.262 134.968c-.72 8.327-.017 16.869.891 25.161.907 8.293 2.201 16.594 3.742 24.827 3.024 16.122 6.441 32.338 10.947 48.126 4.102 14.39 9.755 28.523 18.809 40.546 4.162 5.522 9.105 10.788 14.8 14.758 2.827 1.973 5.936 3.576 9.371 4.108 3.443.532 7.169-.317 10.372-1.844 7.118-3.387 13.439-9.141 18.809-14.827 2.81-2.976 5.49-6.097 7.974-9.373 1.251-1.655 2.441-3.336 3.443-5.154 1.097-1.99 1.919-4.082 2.99-6.089.103-.214-.052-1.2-.317-.84-1.867 2.59-4.334 4.742-6.321 7.272a99 99 0 0 1-6.801 7.847c-4.771 4.939-10.055 9.716-15.786 13.506-2.929 1.938-6.226 3.576-9.815 3.739s-6.758-1.175-9.696-2.993c-5.773-3.55-10.809-8.378-15.117-13.584-8.908-10.788-14.613-23.771-18.69-37.063-4.556-14.853-7.768-30.221-10.775-45.46-1.721-8.73-3.229-17.494-4.402-26.318s-1.705-17.615-2.801-26.405c-.197-1.655-1.49-1.603-1.627.043h-.017z"/><path fill="#09151F" d="M359.395 277.049c.36 2.547 1.439 4.777 2.39 7.152 1.053 2.599 1.97 5.257 2.946 7.89a154 154 0 0 1 5.199 17.031 172 172 0 0 1 2.998 15.471c.642 4.245 1.362 8.498 1.936 12.76.017.12.102.12.119 0 .437-4.742.549-9.262.146-14.012a116.6 116.6 0 0 0-2.689-16.834 124 124 0 0 0-5.491-17.469c-1.036-2.615-2.235-5.128-3.563-7.606-.882-1.673-1.773-4.46-3.649-5.189-.376-.145-.376.626-.342.815h.017zM400.587 215.716c.043 20.385 3.546 40.709 9.062 60.304 1.396 4.991 2.929 9.974 4.762 14.819.283.746.865.677 1.267.137.506-.677.403-1.998.189-2.753-3.443-11.774-6.809-23.514-9.225-35.554-2.449-12.238-4.359-24.586-6.012-36.961 0-.069-.052-.026-.052.017h.017z"/><path fill="#09151F" d="M378.472 283.593c8.411-14.099.522-30.152-.197-31.55a113 113 0 0 1-8.026 12.709 112 112 0 0 1-10.706 12.589c2.707 5.523 5.413 11.063 8.128 16.594 2.972-1.655 7.521-4.82 10.801-10.317v-.025"/><path fill="#09151F" d="M347.105 367.719c.599-2.453-.497-5.394-.985-7.795-.6-2.967-1.225-5.926-1.773-8.919a241 241 0 0 1-2.493-17.649c-.291-2.812-.788-5.762.223-8.489s2.638-4.983 4.12-7.324c3.143-4.982 6.27-9.999 9.679-14.784 1.867-2.616 3.828-5.163 5.824-7.684s4.48-4.871 5.944-7.675c.189-.343.189-2.59-.599-2.118-1.157.694-1.962 1.921-2.81 2.95-.985 1.2-1.97 2.401-2.929 3.619-1.936 2.426-3.803 4.913-5.679 7.383-3.76 4.983-7.477 9.948-10.809 15.213-1.507 2.393-3.161 4.794-4.171 7.444s-1.225 5.523-1.028 8.378c.437 6.483 1.345 12.975 2.441 19.39.6 3.481 1.268 6.963 2.03 10.428.385 1.732.788 3.481 1.293 5.188.223.772.548 2.538 1.508 2.736.12.025.197-.215.214-.283l.017-.018z"/><path fill="#09151F" d="M346.456 367.291c.188-.189.402-.258.573-.498.223-.309.48-.574.669-.892.428-.72.813-1.466 1.242-2.186.933-1.578 1.841-3.165 2.852-4.683s2.107-3.053 3.109-4.622c.522-.823 1.028-1.672 1.55-2.478.583-.918 1.105-1.896 2.039-2.513.068-.043.068-.266-.026-.283-1.61-.094-2.904 1.123-4 2.178-1.362 1.312-2.492 2.83-3.503 4.417s-2.056 3.284-2.878 5.034c-.437.917-.865 1.852-1.225 2.804-.385 1.003-.531 2.015-.702 3.053-.026.146 0 1.012.334.677l-.017-.017zM411.242 280.317c.36-.626 1.122-.961 1.61-1.492.583-.626 1.156-1.27 1.919-1.707 1.944-1.123 3.623-.094 5.216 1.132 2.732 2.135 5.011 4.828 6.903 7.727 1.893 2.898 3.469 5.994 4.985 9.073.883 1.792 1.748 3.576 2.63 5.368.505 1.038 1.002 2.067 1.516 3.113.377.746.668 1.852 1.516 2.178 1.002.377.976-1.655.916-2.161-.239-2.401-1.798-4.751-2.809-6.912s-1.936-4.15-2.929-6.209c-1.696-3.507-3.529-6.954-5.876-10.076-2.15-2.873-5.053-6.089-8.505-7.358-1.824-.677-3.597-.077-4.976 1.244-.626.6-1.08 1.346-1.439 2.135-.506 1.132-.454 2.375-.84 3.533-.026.094.052.652.163.437zM297.847 597.692c.822-2.95.771-5.978.796-9.022.043-3.336.043-6.663.017-9.999-.042-6.663-.077-13.318-.145-19.981-.137-13.318-.283-26.645-.411-39.963-.283-26.533-.437-53.066-.865-79.599-.12-7.435-.36-14.87-.454-22.313-.095-7.444-.309-14.725-.951-22.091-.043-.403-.36-.377-.386 0-.907 13.103-.625 26.31-.582 39.439.043 13.138.188 26.645.291 39.971.197 26.533.386 53.066.617 79.599.068 7.435.146 14.879.223 22.314.042 3.773.12 7.555.197 11.32.077 3.473.042 6.98 1.01 10.316.12.429.506.403.626-.017l.017.017z"/><path fill="#09151F" d="M229.352 497.434c3.109-6.817 5.182-14.201 7.546-21.319 2.355-7.118 4.882-14.698 7.306-22.039 4.788-14.467 9.662-28.9 14.595-43.298 4.891-14.27 9.996-28.48 15.957-42.347 2.852-6.646 5.679-13.524 9.302-19.792 1.79-3.096 4-5.883 6.878-8.01 2.877-2.118 5.901-3.576 9.027-5.103 7.589-3.713 15.315-7.126 23.118-10.359 3.974-1.638 7.922-3.379 11.879-5.042 3.958-1.673 8.094-3.242 11.906-5.326.265-.146.257-1.32-.103-1.269-3.709.557-7.306 1.758-10.878 2.933s-6.954 2.281-10.381 3.593c-7.16 2.753-14.209 5.806-21.207 8.97a685 685 0 0 0-9.816 4.511c-3.04 1.432-5.969 3.113-8.333 5.54-2.356 2.427-3.957 5.428-5.482 8.395-1.67 3.259-3.238 6.569-4.762 9.905-12.822 28.068-22.047 57.757-31.529 87.077a2066 2066 0 0 0-8.171 25.838c-2.664 8.636-5.627 17.374-7.426 26.267-.051.292.197 1.656.557.892l.017-.025z"/><path fill="#09151F" d="M118.4 484.425c2.963 8.944 5.002 17.897 4.548 27.391s-2.758 18.523-6.57 27.038c-.454 1.004-.694 4.057.668 4.623 32.539 13.241 67.28 21.567 102.14 25.547 8.693.986 17.447 1.552 26.183 1.869 4.189.146 8.488.523 12.668.266 3.289-.197 6.081-1.852 8.266-4.245 4.248-4.674 5.37-11.543 8.094-17.1 1.815-3.687 4.385-6.955 6.321-10.582 4.496-8.473 7.922-17.537 10.775-26.679 2.544-8.138 4.693-16.474 6.038-24.903.103-.695.026-2.23-.668-2.659s-1.105.309-1.268.961c-3.623 15.358-7.768 30.4-14.569 44.73-2.081 4.365-4.702 8.233-7.118 12.383-2.895 4.965-4.239 10.548-6.68 15.711-1.277 2.71-2.998 5.282-5.816 6.526-1.585.694-3.212.814-4.917.772a310 310 0 0 1-6.877-.241 399 399 0 0 1-25.593-2.032c-17.028-1.895-33.909-4.562-50.603-8.438-19.006-4.417-37.592-10.343-55.845-17.246l.668 4.622c4.129-9.664 6.69-19.964 7.092-30.486.377-9.853-.762-21.01-5.918-29.629-.84-1.398-1.216 1.201-1.011 1.818l.017-.017z"/><path fill="#09151F" d="M118.75 482.607c2.252 1.346 4.599 2.358 7.066 3.259s4.745 1.921 7.143 2.804c4.463 1.638 8.968 3.113 13.602 4.245 9.387 2.307 18.886 4.125 28.47 5.368a266 266 0 0 0 28.865 2.161c9.653.197 20.12-.677 30.115.215 9.345.84 18.21 4.03 26.141 8.97.265.163.257-.575.171-.678-10.783-16.413-34.089-13.163-50.894-13.138-19.7.026-39.434-2.135-58.697-6.277-5.293-1.132-10.561-2.358-15.854-3.499-2.758-.583-5.576-1.055-8.291-1.844-2.724-.789-5.156-1.466-7.854-1.8-.069 0-.052.171 0 .197zM287.286 405.512c-1.319 3.327-2.064 6.423-2.184 10.034-.137 3.936.171 7.898.865 11.774s1.705 7.538 3.161 11.114a56 56 0 0 0 2.544 5.42c.436.797.89 1.586 1.37 2.349.505.824 1.105 2.204 2.081 2.547 1.414.506 1.242-2.572 1.037-3.241-.48-1.698-1.628-3.122-2.493-4.648a50 50 0 0 1-2.329-4.623 52 52 0 0 1-3.204-9.707c-.736-3.327-1.07-6.595-1.096-9.931-.026-3.644-.043-7.418.283-11.054 0-.017-.018-.077-.026-.043l-.017-.017zM434.848 300.392l.026-.6s0-.12-.043-.12-.052.077-.052.103l.026.617s0 .043.017.043.017-.017.017-.026l.017-.017zM388.989 326.685c.934 1.338 2.116 2.478 3.118 3.764 1.071 1.347 2.03 2.787 3.066 4.168 2.013 2.667 3.863 5.471 5.396 8.447 2.998 5.806 5.217 12.117 6.596 18.498.094.429.625 1.466 1.224 1.037 4.865-3.43 9.131-7.555 12.488-12.52 3.358-4.965 6.587-10.634 7.075-16.534.017-.171-.077-.935-.377-.617-1.627 1.775-2.518 4.322-3.708 6.406-1.319 2.332-2.758 4.562-4.386 6.697-3.383 4.46-7.349 8.61-11.768 12.04l1.225 1.038a62.3 62.3 0 0 0-7.615-18.163c-1.721-2.779-3.503-5.497-5.541-8.053-.985-1.243-2.09-2.324-3.23-3.404-1.13-1.081-2.184-2.324-3.528-3.096-.095-.051-.069.223-.043.257l-.017.026zM342.514 325.39c2.27.892 4.317 1.458 6.09 3.268 1.773 1.818 3.083 3.91 4.317 6.028 2.724 4.657 5.036 9.622 7.186 14.562 4.437 10.188 7.212 20.847 10.467 31.429.042.138.094-.025.094-.077-1.054-11.723-5.002-23.154-9.73-33.848-2.21-4.991-4.625-9.956-7.615-14.535-2.064-3.165-6.509-8.13-10.8-7.358-.163.025-.163.48-.017.531v-.017z"/><path fill="#CACACA" d="M19.977 484.528c9.533-13.19 33.344-20.153 37.18-21.251-5.395 2.419-16.024 8.061-24.94 19.69-7.786 10.145-10.733 20.247-11.95 25.89-1.515-1.973-5.095-7.178-4.556-13.91.386-4.965 2.81-8.413 4.266-10.428z"/><path fill="#0089DE" d="M1.065 392.117c-.051-.309-.95-5.737 3.092-9.305 3.015-2.658 6.664-2.418 7.358-2.35 12.41 3.311 24.822 6.604 37.233 9.914a15.7 15.7 0 0 1 6.038 4.528 15.8 15.8 0 0 1 3.4 8.035c4.865 43.607 8.163 71.898 8.703 73.596.051.163.428 1.149.094 2.238-.266.909-.908 1.484-1.122 1.681-2.964 2.659-3.332 6.166-17.088 16.988a187 187 0 0 1-14.638 10.411 59.2 59.2 0 0 1 5.37-13.052c1.628-2.907 3.735-6.698 7.504-10.574 6.115-6.303 10.235-6.303 14.809-13.095 1.25-1.852 3.255-4.896 2.081-6.723-.985-1.552-3.734-1.441-4.616-1.372-.48-1.364-1.748-4.296-4.454-5.231-1.936-.678-3.692.026-7.426 1.509-3.563 1.415-7.135 2.847-10.561 4.554a70.9 70.9 0 0 0-23.58 18.952c1.37-11.268 5.345-22.022 7.64-33.145 1.294-6.26 2.013-13.009-.556-18.875-.36-.823-1.191-1.792-1.996-1.372-.377.189-.557.6-.72.986-1.053 2.522-2.972 7.478-5.661 13.55a34.4 34.4 0 0 1-3.024 5.368c-2.63-19.072-5.25-38.144-7.88-57.208v-.017z"/><path fill="#CACACA" d="M6.453 476.878c.068-3.241.89-6.423 1.85-9.527 3.683-11.921 9.37-23.48 10.038-35.941.334 0 .797.052 1.276.309 5.105 2.761-.796 23.317-1.079 24.277-2.227 7.598-4.145 10.145-4.72 17.177a45 45 0 0 0 .164 8.919 13.7 13.7 0 0 0-2.63 2.393 14.2 14.2 0 0 0-1.987 3.087c-1.173-.523-1.919-3.791-2.227-4.965a20.5 20.5 0 0 1-.694-5.729v.017z"/><path fill="#09151F" d="M5.501 489.939c-1.67-4.674-3.863-9.09-4.043-14.15-.12-3.353.84-6.354 2.133-9.407 3.743-8.97 7.306-17.923 10.518-27.108.814-2.332 1.516-5.008 2.92-7.083 1.406-2.076 2.493-.043 3.136 1.706 2.055 5.643.822 12.332-.625 18.035-2.681 10.608-8.309 20.753-7.692 32.021.043.763.856 2.11 1.156.652 1.097-5.231 1.516-10.454 3.306-15.539 1.79-5.086 3.855-10.411 5.13-15.839 1.628-6.912 2.682-14.759-.068-21.542-.625-1.535-2.055-5.223-4.222-3.671-1.722 1.227-2.51 4.074-3.212 5.926-1.61 4.254-3.04 8.593-4.6 12.864-2.038 5.591-4.342 11.062-6.655 16.55-1.653 3.954-2.852 7.821-2.664 12.161a29 29 0 0 0 1.85 8.978c.797 2.11 1.8 4.202 3.572 5.635.069.051.069-.172.069-.198l-.017.017z"/><path fill="#09151F" d="M11.557 506.764c-1.988-1.775-3.161-4.991-3.598-7.581-.402-2.332-.077-4.682.762-6.886 1.893-4.922 5.482-9.039 9.13-12.743 7.016-7.127 15.52-12.932 24.728-16.834 2.947-1.252 15.092-6.912 15.615-.463 0 .12.12 1.097.48.823 1.73-1.252.145-4.605-1.011-5.703-2.321-2.161-5.722-1.192-8.411-.412a77 77 0 0 0-17.114 7.298c-5.37 3.113-10.535 7.127-14.997 11.629s-8.531 9.373-10.116 15.47c-.796 3.07-.882 6.355-.077 9.425.334 1.278.84 2.658 1.68 3.713.787.986 1.96 1.604 2.971 2.324.017 0 .017-.043 0-.051h-.025z"/><path fill="#E3E7F6" d="M68.078 436.015c-2.45 12.358-.505 25.315 3.889 37.133 2.081 5.582 5.028 11.302 10.26 14.106-1.13.549-1.19 2.136-.95 3.379 1.037 5.446 4.385 10.428 9.036 13.438-12.128-2.735-25.318-.428-35.793 6.286 2.723-3.764 5.438-7.529 8.162-11.302 3.949-5.472 8.051-11.372 8.283-18.112.025-.678-.069-1.509-.669-1.844-.556-.309-1.25-.026-1.824.24-1.01.498-2.013.986-3.023 1.467a254 254 0 0 0-3.084-31.181c-.497-3.053-1.053-6.158-.702-9.236.377-3.328 1.773-6.363 2.56-9.596.43-1.75.19-4.46 1.251-5.978 1.414-1.989 3.52-1.012 3.812 1.132.454 3.379-.583 6.767-1.242 10.034l.026.026z"/><path fill="#09151F" d="M50.931 513.111c5.696-3.988 11.572-7.513 18.518-8.808 3.683-.677 7.495-.909 11.22-.548 3.726.36 7.47 1.277 11.22 1.629.052 0 .044-.172 0-.197-6.372-4.897-15.502-5.274-23.048-3.336-6.946 1.792-13.533 5.488-17.927 11.2v.051l.017.017zM62.742 440.406c.377-4.005.48-7.89 2.184-11.611.985-2.161 2.416-4.322 4.077-6.029 1.011-1.038 2.827-2.521 3.88-.695.48.824.48 1.973.574 2.899.146 1.321.197 2.658.24 3.988.103 4.708-.283 9.407-.24 14.106.043 4.7.437 9.039 1.962 13.284 1.387 3.893 3.717 7.204 6.518 10.222 2.929 3.165 6.21 6.003 8.882 9.399 2.903 3.696 4.29 8.053 6.252 12.255s5.054 8.129 9.156 10.676c1.842 1.149 3.812 1.827 5.893 2.402 1.696.463 3.469.377 5.216.505.026 0 .026-.094 0-.094-1.747-.815-3.263-1.921-4.976-2.761-1.85-.918-3.64-2.067-5.37-3.216-4.171-2.761-7.118-6.286-9.156-10.865-1.893-4.271-3.452-8.567-6.416-12.264-2.963-3.696-6.235-6.448-9.242-9.784-3.228-3.576-5.575-7.564-6.44-12.358s-.6-9.853-.454-14.758c.145-4.906.376-9.648-.626-14.296-.308-1.432-1.07-3.447-2.69-3.79-1.387-.292-2.68.866-3.57 1.775-5.148 5.162-7.59 13.944-6.373 21.036.12.72.668.737.736-.017h-.017z"/><path fill="#fff" d="M30.469 414.722c.077 2.273-1.31 4.983-3.59 5.549-2.92.737-6.106-2.307-6.612-5.497-.376-2.419.703-5.429 2.827-6.209 2.903-1.038 7.229 2.35 7.357 6.157zM50.014 405.786c.626 6.604 1.842 13.173 2.784 19.742.95 6.568 1.842 12.88 2.904 19.303.025.146.12.077.12-.043-.386-6.663-1.131-13.24-2.116-19.844-.985-6.603-1.893-12.932-3.683-19.166l-.017.017zM12.61 388.189c1.97.626 3.88 1.441 5.824 2.135 1.944.695 3.974 1.347 5.961 2.041 3.88 1.338 7.829 2.47 11.692 3.834.025 0 .025-.052 0-.069-3.89-1.672-7.743-3.379-11.76-4.725-1.936-.643-3.863-1.269-5.825-1.818-1.961-.549-3.948-.892-5.893-1.415z"/><path fill="#09151F" d="M504.019 340.114c-7.169-1.269-13.13 4.528-16.984 9.914-4.668 6.526-7.889 14.27-10.45 21.833-5.559 16.38-7.529 33.685-7.982 50.922-.48 18.112.95 36.224 2.304 54.267 1.481 19.621 3.083 39.242 4.282 58.871 1.371 22.28.959 25.367 2.099 47.655.025.532.496.892.556.146 1.705-19.261 2.039-19.33.985-38.608-1.053-19.269-2.544-38.384-4.008-57.568-1.371-17.854-2.964-35.743-3.323-53.666-.36-17.923.462-34.079 4.453-50.682 2.185-9.133 5.268-18.369 9.782-26.61 1.97-3.602 4.359-7.083 7.426-9.862 3.066-2.778 6.775-4.699 10.86-5.737.257-.069.24-.823-.025-.883h.025z"/><path fill="#E3E7F6" d="M388.349 484.957c4.668-40.4 16.368-72.396 26.012-93.629a1104 1104 0 0 0-13.362 78.707c-2.295 17.374-4.531 34.62-5.824 57.38-2.39 41.9.548 65.535-.531 65.612-1.559.12-13.173-48.693-6.304-108.045l.017-.025z"/><path fill="#09151F" d="M374.847 595.187c.617-8.172.257-16.413.197-24.595-.051-8.181-.222-17.014-.24-25.529a1647 1647 0 0 1 .737-53.615c1.096-36.515 3.597-72.918 7.263-109.262 1.919-18.978 3.975-37.956 6.63-56.848l-.677 1.612a98.4 98.4 0 0 0 19.983-19.818c5.173-6.86 9.849-14.441 12.393-22.699.146-.464-.376-3.336-1.036-2.187-2.03 3.481-3.76 7.1-5.773 10.582a99 99 0 0 1-8.719 12.718c-3.426 4.253-7.212 8.198-11.263 11.843a102 102 0 0 1-5.105 4.296c-.745.583-1.439.978-1.705 1.938-.342 1.252-.377 2.693-.531 3.988-2.544 20.847-5.293 41.643-7.237 62.559-2.09 22.434-3.503 44.928-4.745 67.43-1.242 22.477-1.945 44.979-2.202 67.482-.222 21.01-.359 42.14 1.011 63.116.163 2.35.377 4.674.702 7.006.043.318.317.318.343 0zM116.745 485.728c.334-1.244.822-2.538 1.893-3.259a.54.54 0 0 1 .308-.12c.214 0 .343.24.429.437a22.5 22.5 0 0 1 1.481 5.42c.018.103.026.215-.042.309-.052.077-.163.103-.257.137-.917.215-3.161.935-4.052.523-.89-.411.026-2.684.24-3.43z"/><path fill="#CACACA" d="M28.053 509.371c-3.89-17.854 23.245-36.437 25.618-38.024a73 73 0 0 1 10.055-5.634 23.5 23.5 0 0 1-1.875 4.416c-2.904 5.257-6.895 7.581-10.056 9.957-9.413 7.049-14.852 16.928-17.182 23.934a41 41 0 0 0-1.601 6.595c-.36.12-1.216.454-1.867 1.32-1.028 1.373-.72 2.951-.669 3.208-1.481-2.298-2.115-4.314-2.424-5.754z"/><path fill="#09151F" d="M19.763 511.841c2.612-8.421 5.216-16.688 10.295-24.012 4.582-6.62 10.663-12.263 17.199-16.928 3.092-2.204 6.39-4.271 9.9-5.711 1.243-.498 5.063-2.093 6.202-.523.72.986-.462 2.907-.985 3.721-1.002 1.578-2.347 2.899-3.717 4.151-3.375 3.053-7.066 5.711-10.347 8.893-3.983 3.859-7.452 8.438-10.278 13.215s-4.942 10.102-5.173 15.856c0 .189.162.695.282.266 2.775-10.634 9.388-20.221 17.61-27.399 5.653-4.922 15.263-10.308 14.064-19.115-.385-2.813-1.961-3.885-4.668-3.387-3.383.617-6.63 2.469-9.516 4.244-7.614 4.7-14.569 10.866-19.845 18.095-6.021 8.25-10.33 18.283-11.143 28.505 0 .095.077.309.137.12z"/><path fill="#CACACA" d="M65.038 488.627a163.5 163.5 0 0 1-20.102 23.394c2.929.952 6.21 0 8.727-1.775 2.519-1.775 4.377-4.322 6.09-6.878a134 134 0 0 0 9.773-17.014c.574-1.2 1.276-2.641 1.13-4.013-.162-1.458-.702-1.964-1.61-.823-.762.952-1.122 2.547-1.73 3.627-.694 1.201-1.481 2.35-2.278 3.482"/><path fill="#09151F" d="M34.512 520.871c-.857-1.603-1.842-3.138-2.416-4.871-.694-2.058-.308-3.687 1.225-5.222 1.996-1.99 4.745-3.19 7.049-4.777 5.944-4.082 11.238-9.064 16.437-14.03 2.184-2.092 4.36-4.219 6.612-6.243 1.507-1.363 3.083-2.847 4.89-3.79a4.5 4.5 0 0 1 1.457-.463c.197-.026.36.171.496.163.12 0 .197.574-.025-.403.051.24-.094.617-.146.84-.72 3.019-2.321 5.909-3.717 8.662-2.064 4.004-4.266 7.889-6.69 11.662-2.158 3.362-4.676 6.338-7.4 9.279-.043.043-.026.283.026.223 6.278-4.939 11.306-11.208 14.946-18.3 1.636-3.19 3.469-6.526 4.188-10.076.309-1.518.694-5.343-1.576-5.643-1.601-.215-3.426 1.44-4.548 2.349-2.518 2.033-4.839 4.314-7.169 6.544-6.09 5.823-12.222 11.731-19.237 16.439-3.084 2.067-6.655 3.645-8.026 7.384s-.188 8.807 3.615 10.428c.051.025.043-.138.026-.146h-.018z"/><path fill="#E3E7F6" d="M64.413 525.425c4.745-1.364 9.25-3.448 13.919-5.069a77.7 77.7 0 0 1 33.524-3.91 35.66 35.66 0 0 1-3.572 15.136c-1.465-2.187-4.069-3.362-6.664-3.748-2.604-.386-5.242-.12-7.863-.017-9.241.378-18.517-1.278-27.7-.223-2.732.318-5.464.884-8.213.866-2.33 0-5.182-.411-7.024-1.963.891-.198 2.133.223 3.084.291 1.156.077 2.33.052 3.494-.026 2.373-.188 4.737-.669 7.024-1.32v-.017z"/><path fill="#09151F" d="M36.292 522.209c2.475 3.722 7.143 5.643 11.375 6.638 4.23.994 8.959 1.294 13.481 1.174 10.74-.283 21.379-2.641 32.137-1.312 2.723.335 5.421.789 8.094 1.372 1.678.378 3.905.987 5.558.318.095-.043.069-.283 0-.335-2.466-2.752-7.28-3.404-10.715-4.013-5.267-.935-10.586-1.038-15.905-.703-10.013.626-20.077 2.512-30.09.84-2.569-.429-5.053-1.158-7.545-1.921-2.184-.652-4.094-1.989-6.39-2.212-.068 0-.026.145-.017.171z"/><path fill="#09151F" d="M117.036 540.844a62.9 62.9 0 0 0 7.315-26.37 62.45 62.45 0 0 0-4.497-26.61c-3.186.146-6.372.308-9.541.454a17.6 17.6 0 0 0-1.876 4.151 17.7 17.7 0 0 0-.737 5.883c1.277.411 2.544.823 3.829 1.243a40.6 40.6 0 0 1 .797 15.359 40.2 40.2 0 0 1-5.414 15.256c-1.216-.36-2.441-.737-3.648-1.098 0 1.939.025 3.868.025 5.806 4.583 1.964 9.157 3.936 13.747 5.9z"/><path fill="#fff" d="M105.935 532.98c3.067-5.008 4.943-10.745 5.962-16.508 0-.043-.026-.137-.052-.068-1.67 5.591-3.734 11.028-5.969 16.388-.018.043.017.257.068.171v.017zM110.697 491.748c.163 2.856.651 5.669.84 8.533.094 1.432.145 2.873.171 4.297 0 .668 0 1.32.043 1.989.043.772.222 1.535.282 2.307.018.266.223.437.283.077.103-.72.317-1.398.377-2.135.06-.738.043-1.51.026-2.273a68 68 0 0 0-.292-4.562c-.282-2.787-.573-5.703-1.627-8.301-.043-.077-.077.043-.077.068h-.026000000000000002"/><path fill="#09151F" d="M437.596 302.553c-6.133 16.285-10.758 33.222-15.22 50.013-5.011 18.858-9.448 37.896-13.148 57.063-7.854 40.759-12.745 82.06-14.706 123.531-.497 10.343-.814 20.702-.891 31.044-.077 9.613.428 19.209.856 28.806.018.428.334.428.334 0 .069-8.559.437-17.1.651-25.65.223-8.927.403-17.855.797-26.79a861 861 0 0 1 4.531-58.297c4.574-40.64 11.854-81.006 21.901-120.642 4.856-19.15 10.801-37.956 16.214-56.951.171-.626.171-1.758-.266-2.298-.377-.438-.813-.498-1.053.163v.026zM372.46 308.308c-.523.48-.702 1.149-.976 1.792-.506 1.175-1.071 2.324-1.628 3.473-1.036 2.118-1.987 4.313-2.681 6.577-1.576 5.154-1.053 10.368-.257 15.599.857 5.583 1.705 11.157 2.561 16.74.857 5.583 1.602 11.371 2.775 16.963 1.242 5.883 1.962 11.825 3.444 17.674.068.257.214.017.197-.137-.437-6.784-1.465-13.481-2.296-20.222-.822-6.74-2.038-13.823-3.109-20.718-.523-3.388-1.036-6.784-1.576-10.171-.531-3.387-1.199-6.62-1.131-9.973s1.337-6.278 2.544-9.288c.977-2.444 2.356-5.308 2.304-8.009 0-.043-.068-.429-.188-.309zM347.173 363.577c-.736 10.051-.077 20.222.197 30.281.291 10.213.574 20.41.865 30.615.437 15.35.934 30.683 1.413 46.034.703 23.154 1.439 46.317 2.373 69.462.385 9.408.72 18.832 1.199 28.24.557 10.891 1.576 21.739 2.236 32.63 0 .214.188.214.171 0-.188-9.708 0-19.407-.223-29.114-.214-8.679-.522-17.366-.796-26.045-.454-14.295-.917-28.591-1.396-42.869-.797-23.694-1.456-47.38-2.159-71.075-.334-11.32-.702-22.622-1.079-33.942-.36-11.388-.24-22.94-1.747-34.251-.146-1.072-.985-1.055-1.071.026l.017-.017z"/><path fill="#E3E7F6" d="M510.016 588.018c9.927.309 20.308.48 30.123 0 2.75-49.104 4.394-93.406 6.724-133.368.822-14.081-1.782-33.179-4-60.132-1.49-18.163-5.336-38.367-14.347-54.584-1.036 27.999 2.895 52.354.626 81.906a2198 2198 0 0 1-19.126 166.17z"/><path fill="#09151F" d="M436.475 303.9c1.311.729 2.57 1.586 3.983 2.092 1.413.515 2.903 1.063 4.36 1.595 2.8 1.021 5.61 2.007 8.428 2.993 5.721 2.015 11.434 4.022 17.156 6.029 11.348 3.97 22.646 8.035 33.995 12.031 5.49 1.93 11.049 3.731 16.479 5.823 2.604 1.012 4.762 2.29 6.424 4.494 1.533 2.006 2.629 4.288 3.64 6.569 4.248 9.501 6.056 19.826 7.503 30.006 3.204 22.314 6.304 44.782 6.116 67.353-.094 11.397-.891 22.777-1.602 34.139-.702 11.371-1.43 23.129-2.133 34.689-.702 11.56-1.439 23.154-2.038 34.739-.6 11.586-1.679 23.275-2.013 34.92-.077 2.865.171 5.712.403 8.567.042.592.745 1.621.985.498.582-2.667 1.199-5.343 1.456-8.061.282-2.942.479-5.875.651-8.825.359-5.925.796-11.851 1.156-17.777.702-11.748 1.576-23.489 2.304-35.229.737-11.765 1.482-23.522 2.21-35.305.736-11.775 1.61-23.858 1.961-35.812.677-23.617-2.115-47.037-5.533-70.389-1.533-10.496-3.066-21.122-6.801-31.164-1.721-4.613-3.734-9.836-7.143-13.566s-8.985-5.188-13.901-6.844c-23.212-7.821-46.363-15.847-69.669-23.385-1.465-.472-2.921-.944-4.386-1.415-1.25-.412-2.629-.446-3.931-.626-.617-.086-.462 1.638-.068 1.852zM338.308 334.412c-2.209 4.622-4.745 9.013-6.629 13.789a378 378 0 0 0-5.85 15.96c-.882 2.607-1.704 5.231-2.535 7.846-.771 2.444-1.73 4.889-.934 7.478.797 2.59 2.921 4.751 4.385 6.844 1.611 2.307 3.17 4.648 4.883 6.886 1.935 2.547 3.623 5.283 5.661 7.769.934 1.132 2.03 2.11 2.989 3.208.96 1.097 1.705 2.186 2.784 3.095.094.078.077-.257.069-.291-.771-1.732-1.85-3.267-2.707-4.965s-1.73-3.353-2.707-4.966c-1.73-2.847-3.708-5.514-5.49-8.318-1.79-2.804-3.614-5.3-5.439-7.932-.497-.721-1.002-1.441-1.49-2.162-.12-.171-1.251-1.963-1.105-1.243-.103-.557.505-1.792.651-2.333.214-.737.428-1.483.651-2.212a428 428 0 0 1 6.133-18.703c1.096-3.088 2.252-6.141 3.237-9.262 1.105-3.473 2.159-7.006 3.452-10.411 0-.017 0-.103-.026-.069l.017-.017z"/><path fill="#09151F" d="M331.132 388.524c-2.878 4.099-4.908 8.97-7.186 13.429-2.279 4.459-4.703 9.305-7.049 13.961-1.028 2.041-2.176 3.988-2.27 6.338-.103 2.641.856 5.368 1.516 7.898 1.293 4.991 2.664 9.973 4.025 14.947 5.388 19.861 11.135 39.671 17.508 59.249 1.79 5.488 3.717 10.917 5.661 16.337 1.85 5.136 4.171 9.93 6.493 14.853.042.094.077-.078.068-.121-1.55-4.913-2.869-9.861-4.531-14.75-1.67-4.888-3.238-9.407-4.762-14.132-3.041-9.408-6.056-18.824-8.848-28.308-2.809-9.528-5.362-19.124-7.974-28.711-1.293-4.777-2.604-9.545-3.88-14.322-.617-2.281-1.216-4.562-1.842-6.843-.334-1.226-.693-2.453-1.036-3.688-.343-1.226-.548-1.895 0-3.173 2.27-5.188 4.985-10.222 7.452-15.324 2.509-5.206 5.361-10.394 7.289-15.831.12-.343-.069-2.633-.643-1.801v-.017zM441.287 316.488c.043 7.899 1.148 15.762 1.987 23.626s1.748 15.634 2.63 23.455c.428 3.859.839 7.726 1.25 11.585l.317 2.993c.077.738.454 2.058.283 2.779-.334 1.346-2.107 2.727-2.998 3.739-5.002 5.668-9.653 11.602-14.013 17.777-5.13 7.272-10.184 14.518-14.466 22.339-.043.077-.026.498.103.343 4.985-5.728 9.627-11.757 14.518-17.588 4.89-5.832 9.944-11.535 14.92-17.314 1.131-1.321 2.45-2.59 3.358-4.082 1.122-1.827 1.293-3.98 1.105-6.063-.386-4.108-1.054-8.207-1.611-12.289-1.122-8.181-2.107-16.388-3.16-24.587-1.148-8.918-1.91-18.06-4.103-26.773-.026-.137-.094 0-.094.069h-.026z"/><path fill="#09151F" d="M432.91 402.365c.737 5.274 2.775 10.505 4.403 15.565s3.16 9.784 4.736 14.664c.814 2.547 1.628 5.102 2.424 7.649.762 2.402 1.79 4.863 2.236 7.324.342 1.878-.865 3.533-1.748 5.111a979 979 0 0 0-3.648 6.569c-4.84 8.687-9.602 17.348-13.996 26.284-4.402 8.927-9.079 17.709-13.242 26.748-2.295 4.982-4.822 10.067-6.629 15.238-1.799 5.18-4.428 10.223-6.013 15.574-.025.068.043.334.12.188 2.373-4.656 3.932-9.707 6.441-14.304 2.27-4.167 4.12-8.558 6.347-12.743 4.651-8.756 9.088-17.606 14.167-26.147a1197 1197 0 0 0 15.066-26.13c2.321-4.151 5.482-8.516 6.081-13.335.651-5.3-1.867-10.557-3.563-15.453-2.09-6.029-4.171-12.066-6.27-18.095a674 674 0 0 0-3.023-8.533c-.908-2.512-1.653-5.299-3.204-7.486-.531-.746-.702 1.123-.676 1.346l-.017-.026z"/><path fill="#fff" d="M81.487 419.094c.068 1.965-1.13 4.309-3.11 4.81-2.533.637-5.293-2.003-5.733-4.765-.326-2.093.614-4.703 2.45-5.378 2.518-.903 6.264 2.033 6.378 5.333zM66 396.107c1.714.546 3.367 1.252 5.051 1.851 1.691.599 3.443 1.168 5.165 1.768 3.367 1.153 6.788 2.139 10.14 3.315.023 0 .023-.046 0-.061-3.375-1.449-6.72-2.928-10.193-4.097-1.676-.553-3.352-1.1-5.051-1.57s-3.42-.774-5.112-1.229v.023M497.383 205.25a147 147 0 0 1 4.095-19.391c.379-1.343.781-2.701 1.525-3.885 1.107-1.752 2.889-2.981 4.732-3.937 6.121-3.156 13.546-3.68 20.045-1.426 4.308 1.494 8.184 4.127 12.567 5.379 8.601 2.458 17.778-.752 25.764-4.788 2.67 3.9 5.347 7.815 8.009 11.714.69 1.009 1.388 2.033 1.714 3.217.334 1.244.235 2.557.167 3.846a61.6 61.6 0 0 0 1.152 15.515c.107.531.228 1.085.061 1.608-.144.471-.508.842-.864 1.184a25.35 25.35 0 0 1-11.877 6.388c-6.53 1.479-13.568.349-19.818 2.746-3.716 1.426-6.864 4.006-9.738 6.752-2.518 2.405-5.165 4.658-7.137 7.526-2.594-3.141-6.006-5.477-8.987-8.247-1.047-.978-2.048-2.01-3.041-3.042-1.123-1.168-2.253-2.329-3.368-3.49-.182-.189-.371-.379-.462-.622-.129-.303-.114-.645-.099-.971.167-2.784.326-5.568.493-8.36-2.73 2.207-5.468 4.415-8.198 6.623.538-2.807.94-5.645 1.183-8.497a8.03 8.03 0 0 1-3.899 2.86 67.6 67.6 0 0 1 2.594-12.351c-1.865 1.335-3.739 2.663-5.605 3.998-.189.137-.401.281-.637.281-.235 0-.386-.41-.356-.645v.015z"/><path fill="#E2CDCA" d="m527.355 188.56 8.677 6.448c3.102-1.646 6.196-3.292 9.306-4.931-2.882-2.17-5.78-4.347-8.662-6.517-3.101 1.677-6.211 3.346-9.313 5.022"/><path fill="#E3E7F6" d="M505.899 200.834a51 51 0 0 1-.516 4.135 54 54 0 0 1-.826 4.074c3.337-2.906 8.32-6.183 14.865-7.473 7.827-1.54 14.903.364 17.292 1.024 3.89 1.085 5.142 2.087 9.146 2.739 4.665.751 8.669.326 11.392-.182a40.4 40.4 0 0 1-7.615 1.434c-11.998 1.092-17.588-3.839-26.764-3.164-3.656.266-9.094 1.518-15.556 6.479a9.7 9.7 0 0 1 .281 3.854c6.28-4.999 12.036-6.524 15.237-7.07 4.611-.797 8.835-.425 11.33-.205 5.234.455 7.069 1.396 12.332 1.843 4.255.364 7.767.152 10.049-.076-.902.342-2.343.835-4.156 1.191-4.414.865-7.569.251-13.211-.333-3.163-.334-6.591-.683-9.132-.698-4.08-.031-9.882.789-17.079 4.726.166.865.303 1.912.341 3.08a19.4 19.4 0 0 1-.159 3.096c5.217-5.045 12.324-8.095 19.59-8.391a61.3 61.3 0 0 0-16.466 10.591 27.5 27.5 0 0 1 8.282 5.682 22.5 22.5 0 0 1 3.527-3.717l-1.616 6.592a4.75 4.75 0 0 1 2.261 2.565c3.147-4.552 7.766-7.974 12.824-10.212 5.059-2.238 10.565-3.33 16.079-3.801 2.859-.242 5.756-.326 8.562-.933 2.807-.607 5.59-1.775 7.554-3.877-.584-.091-.811-.781-.925-1.35a76.6 76.6 0 0 1-1.479-16.797c-13.03 6.866-22.79 7.207-29.502 6.062-7.789-1.32-14.691-5.182-25.627-3.718a40 40 0 0 0-10.292 2.853v-.015z"/><path fill="#09151F" d="M565.996 195.774c.038-.637.061-1.206.395-1.775.333-.569.849-.971 1.463-1.229.167-.076.069-.402.023-.508-1.092-2.64-2.328-5.212-3.648-7.739-.045-.075-.045.031-.038.061 1.024 2.709 2.131 5.371 3.421 7.958l.023-.508c-1.487.402-2.405 2.238-1.881 3.672.03.099.22.258.235.061h.007zM509.04 195.198c.106-.213-.114-.554-.213-.729a4.5 4.5 0 0 0-1.198-1.297c-.842-.607-1.987-.888-3.018-.721l.295.562c.289-2.754.524-5.523.653-8.292 0-.091-.031-.365.037-.433.031-.03.152-.038.19-.053.205-.099.425-.152.622-.25a5.1 5.1 0 0 0 1.411-1.025c.622-.637 1.099-1.456 1.13-2.359 0-.038-.069-.265-.129-.19-.455.592-.683 1.305-1.199 1.859a4.85 4.85 0 0 1-2.305 1.373c-.053.015-.076.091-.076.129-.197 2.944-.44 5.88-.713 8.816-.015.152.068.607.296.561.993-.174 1.964-.03 2.814.531.515.342.804.767 1.13 1.267 0 0 .212.342.265.243zM526.543 220.605c2.905-3.315 6.826-5.842 11.209-6.585 2.298-.395 4.558-.357 6.857.061 2.517.47 4.922.948 7.5.735 2.882-.235 5.635-1.168 8.024-2.807.023-.022-.015-.144-.038-.136-2.29 1.13-4.747 1.927-7.28 2.253a18.7 18.7 0 0 1-3.732.114c-1.41-.106-2.791-.41-4.179-.683-2.229-.44-4.467-.592-6.719-.227-2.253.364-4.293 1.138-6.189 2.207-2.222 1.252-4.058 2.898-5.453 5.045 0 0 .015.046.008.038z"/><path fill="#09151F" d="M532.603 222.001c1.638-1.456 3.519-2.648 5.59-3.376s4.186-.925 6.31-.986c.023 0 0-.099-.03-.099-4.263-.789-9.064 1.237-11.877 4.461zM502.1 183.203c.796-.311 1.304-.918 1.949-1.464a22 22 0 0 1 2.852-2.117 22.3 22.3 0 0 1 5.657-2.488c4.179-1.191 8.654-1.237 12.84-.053 4.657 1.32 8.783 3.975 13.409 5.371 4.24 1.282 8.639 1.343 12.984.63 5.112-.835 10.194-2.754 14.509-5.629.296-.198-.053-1.267-.334-1.116-4.11 2.132-8.289 3.923-12.847 4.856-4.558.925-9.268.857-13.735-.304-4.467-1.16-8.79-3.641-13.341-5.06a23.87 23.87 0 0 0-12.544-.493 23.1 23.1 0 0 0-6.523 2.625c-1.903 1.138-4.232 2.686-5.043 4.825-.03.083.038.47.182.417h-.015"/><path fill="#09151F" d="M565.867 176.808c.47 1.464 1.509 2.83 2.283 4.15a308 308 0 0 0 2.715 4.529c.918 1.51 1.744 2.86 2.609 4.294q.649 1.067 1.297 2.147c.432.721.804 1.525 1.38 2.139.266.289.546.326.751-.022.235-.395 0-1.055-.136-1.442-.584-1.51-1.669-2.936-2.511-4.309a162 162 0 0 0-2.745-4.362 135 135 0 0 0-2.753-4.059c-.455-.638-.918-1.26-1.381-1.889-.387-.531-.751-1.26-1.327-1.601-.258-.152-.22.318-.174.44v-.015z"/><path fill="#09151F" d="M576.433 192.861c-.417.47-.371 1.32-.44 1.912a43 43 0 0 0-.242 2.64 65 65 0 0 0-.107 5.44c.038 1.82.16 3.588.364 5.371.099.91.22 1.813.372 2.708s.197 1.889.736 2.648c.174.243.561.615.751.167.311-.721 0-1.578-.122-2.314a88 88 0 0 1-.349-2.367 75 75 0 0 1-.538-5.371 76 76 0 0 1-.137-5.197c0-.88.023-1.745.053-2.625.031-.88.152-1.768-.03-2.633-.023-.068-.167-.538-.318-.371zM497.336 206.342c.577-.379.66-1.699.797-2.306.219-.979.417-1.972.621-2.951q.662-3.141 1.358-6.282c.463-2.086.925-4.081 1.358-6.137.462-2.193 1.001-4.408 1.16-6.654 0-.068-.106-.44-.205-.273-.902 1.707-1.312 3.679-1.805 5.531-.554 2.056-1.016 4.142-1.494 6.213-.47 2.079-.902 4.066-1.32 6.107-.22 1.047-.447 2.102-.637 3.164-.189 1.062-.447 2.079-.265 3.126.03.159.182.614.409.455z"/><path fill="#09151F" d="M497.292 206.396c1.441-.661 2.692-1.601 4.027-2.443a44 44 0 0 1 3.853-2.178c2.146-1.077 4.361-1.957 6.674-2.594 4.103-1.131 8.396-1.548 12.635-1.062 4.543.531 8.851 2.093 13.235 3.292 5.051 1.388 10.292 2.086 15.502 1.282 3.375-.516 6.553-1.464 9.715-2.716 2.276-.903 4.718-1.798 6.697-3.254.03-.023-.007-.175-.053-.152-2.078.819-4.02 1.95-6.12 2.746-2.662 1.017-5.552 1.586-8.366 1.973-5.536.766-11.156.379-16.549-1.024-4.391-1.138-8.661-2.785-13.166-3.445-4.163-.607-8.471-.409-12.552.645-2.548.653-5.028 1.601-7.387 2.746-2.935 1.419-6.188 3.111-8.38 5.561-.114.122.023.714.227.615v.015z"/><path fill="#09151F" d="M501.295 214.589c.561.121.834-2.466.895-2.822q.294-1.605.622-3.209c.44-2.193 1.031-4.363 1.38-6.563.038-.25-.045-.599-.22-.804-.098-.114-.318-.303-.402-.053-.796 2.359-1.198 4.893-1.683 7.336-.235 1.191-.471 2.375-.645 3.566-.091.615-.205 1.229-.174 1.844 0 .113.03.66.219.698z"/><path fill="#09151F" d="M501.425 214.574c.895-.296 1.608-.918 2.366-1.464.857-.615 1.707-1.222 2.571-1.814 1.805-1.236 3.633-2.435 5.552-3.497 3.602-1.988 7.501-3.475 11.619-3.846 7.895-.706 15.388 2.655 23.185 3.148 4.111.266 8.76-.137 12.203-2.625 0 0 0-.038-.008-.038-1.827.698-3.602 1.282-5.544 1.54a30.3 30.3 0 0 1-6.151.137c-3.905-.311-7.751-1.298-11.573-2.079s-7.395-1.419-11.149-1.267c-4.095.159-8.032 1.426-11.672 3.27-1.987 1.009-3.891 2.177-5.741 3.421a76 76 0 0 0-3.004 2.147c-.985.736-2.085 1.427-2.836 2.413-.083.114 0 .615.205.546h-.015zM528.204 237.925c2.374-2.807 4.695-5.629 7.524-7.996 2.836-2.367 6.181-4.453 9.738-5.743 3.564-1.282 7.516-1.548 11.391-1.738s7.903-.629 11.65-1.98c3.746-1.35 6.939-3.489 9.29-6.577.266-.349-.364-1.631-.553-1.366-4.566 6.289-12.575 8.072-19.909 8.482-3.891.212-7.759.288-11.482 1.525-3.512 1.168-6.758 3.057-9.61 5.409-3.185 2.618-6.097 5.728-8.388 9.157-.144.205.167 1.032.349.812z"/><path fill="#09151F" d="M512.097 213.724c-.311.213-.311.774-.342 1.131-.068.622-.076 1.259-.114 1.889-.068 1.297-.106 2.602-.159 3.899-.03.592-.189 1.32-.091 1.927.091.524.455.812.827 1.161 1.024.979 2.086 1.919 3.125 2.875a891 891 0 0 1 6.249 5.774c1.031.963 2.086 1.912 3.132 2.86s2.018 1.957 3.14 2.769c.319.235.463-.152.493-.41.053-.394-.129-.918-.394-1.198-1.214-1.298-2.632-2.42-3.952-3.612-1.319-1.191-2.722-2.404-4.088-3.596-2.73-2.389-5.4-4.847-8.175-7.177l.394.896c.03-1.669.114-3.323.182-4.977.053-1.328.311-2.906-.159-4.173 0-.023-.031-.053-.053-.038h-.015"/><path fill="#09151F" d="M511.769 222.616c.485-.251.849-.714 1.251-1.085.486-.433.971-.865 1.441-1.313a45 45 0 0 1 2.822-2.39 72 72 0 0 1 2.988-2.23c1.153-.819 2.366-1.502 3.587-2.215.015 0 0-.053-.015-.053-2.328.91-4.626 2.23-6.636 3.732-1.054.789-2.048 1.669-3.011 2.572-.88.835-1.919 1.851-2.45 2.951v.023h.015z"/><path fill="#09151F" d="M505.544 210.94c-.698.91-.721 2.473-.91 3.581a55 55 0 0 0-.577 4.446c-.015.197.334 1.654.705 1.221 4.498-5.242 11.013-8.322 17.641-9.893 3.557-.85 7.228-1.373 10.884-1.259 3.875.114 7.682.758 11.543 1.062 2.04.159 4.118.152 6.166-.038a17.6 17.6 0 0 0 2.988-.539c1.092-.296 2.101-.88 3.094-1.418.031-.008 0-.122-.03-.107-1.775.623-3.769.865-5.643 1.078-2.047.227-4.057.129-6.105-.038-3.845-.311-7.66-1.009-11.498-1.351-3.632-.326-7.379.205-10.936.964-3.337.713-6.598 1.783-9.678 3.255a28.6 28.6 0 0 0-9.047 6.812l.705 1.222c.159-1.442.318-2.876.516-4.317.197-1.441.531-2.837.47-4.264 0-.068-.159-.591-.281-.432z"/><path fill="#12415D" d="m527.355 188.56 8.677 6.448c3.102-1.646 6.196-3.292 9.306-4.931-2.882-2.17-5.78-4.347-8.662-6.517-3.101 1.677-6.211 3.346-9.313 5.022"/><path fill="#09151F" d="M527.347 188.666c1.297 1.259 2.821 2.298 4.27 3.383s2.95 2.223 4.421 3.338c.038.031.069.038.114.023q4.667-2.424 9.321-4.87c.303-.16.038-.752-.144-.896-2.829-2.223-5.794-4.248-8.661-6.426-.031-.022-.061-.03-.106-.022-3.14 1.6-6.219 3.323-9.321 4.992-.251.136.022.895.235.774 1.554-.843 3.109-1.67 4.656-2.512.774-.417 1.555-.842 2.329-1.251.387-.213.773-.418 1.16-.63.296-.167.872-.668 1.229-.546.356.121.758.591 1.062.834.348.288.705.562 1.061.835.706.554 1.411 1.1 2.116 1.646 1.411 1.07 2.807 2.139 4.24 3.171l-.144-.895-4.642 2.481c-.773.417-1.547.827-2.32 1.252-.387.212-.766.417-1.161.629-.318.167-.849.622-1.228.524-.175-.046-.387-.281-.531-.387l-.531-.387c-.349-.258-.713-.516-1.062-.774-.713-.523-1.418-1.047-2.131-1.57-1.373-1.017-2.723-2.17-4.24-2.952-.114-.06-.053.19-.015.228h.008z"/><path fill="#12415D" d="M526.543 220.605c2.905-3.315 6.826-5.842 11.209-6.585 2.298-.395 4.558-.357 6.857.061 2.517.47 4.922.948 7.5.735 2.882-.235 5.635-1.168 8.024-2.807.023-.022-.015-.144-.038-.136-2.29 1.13-4.747 1.927-7.28 2.253a18.7 18.7 0 0 1-3.732.114c-1.41-.106-2.791-.41-4.179-.683-2.229-.44-4.467-.592-6.719-.227-2.253.364-4.293 1.138-6.189 2.207-2.222 1.252-4.058 2.898-5.453 5.045 0 0 .015.046.008.038z"/><path fill="#12415D" d="M532.603 222.001c1.638-1.456 3.519-2.648 5.59-3.376s4.186-.925 6.31-.986c.023 0 0-.099-.03-.099-4.263-.789-9.064 1.237-11.877 4.461zM502.114 183.249c.918-.236 1.487-.979 2.2-1.571.91-.751 1.85-1.457 2.859-2.071a22.8 22.8 0 0 1 5.688-2.413c4.156-1.122 8.563-1.13 12.696.076 4.596 1.336 8.676 3.976 13.257 5.349 4.581 1.381 8.851 1.335 13.311.561 4.998-.872 9.996-2.776 14.197-5.629.357-.243-.053-1.517-.402-1.335-4.126 2.086-8.304 3.884-12.863 4.81s-9.26.834-13.719-.319c-4.46-1.153-8.798-3.611-13.333-5.038-4.058-1.266-8.426-1.456-12.567-.477a22.8 22.8 0 0 0-6.523 2.632c-1.911 1.146-4.323 2.731-5.028 4.924-.03.106.023.546.22.493h-.008z"/><path fill="#12415D" d="M565.867 176.808c.47 1.464 1.509 2.83 2.283 4.15a308 308 0 0 0 2.715 4.529c.918 1.51 1.744 2.86 2.609 4.294q.649 1.067 1.297 2.147c.432.721.804 1.525 1.38 2.139.266.289.546.326.751-.022.235-.395 0-1.055-.136-1.442-.584-1.51-1.669-2.936-2.511-4.309a162 162 0 0 0-2.745-4.362 135 135 0 0 0-2.753-4.059c-.455-.638-.918-1.26-1.381-1.889-.387-.531-.751-1.26-1.327-1.601-.258-.152-.22.318-.174.44v-.015z"/><path fill="#12415D" d="M576.433 192.861c-.417.47-.371 1.32-.44 1.912a43 43 0 0 0-.242 2.64 65 65 0 0 0-.107 5.44c.038 1.82.16 3.588.364 5.371.099.91.22 1.813.372 2.708s.197 1.889.736 2.648c.174.243.561.615.751.167.311-.721 0-1.578-.122-2.314a88 88 0 0 1-.349-2.367 75 75 0 0 1-.538-5.371 76 76 0 0 1-.137-5.197c0-.88.023-1.745.053-2.625.031-.88.152-1.768-.03-2.633-.023-.068-.167-.538-.318-.371zM497.307 206.464c.645-.175.713-1.426.842-1.98.243-1.032.448-2.079.668-3.118.455-2.155.925-4.302 1.395-6.457.47-2.147.963-4.21 1.396-6.319s.963-4.37 1.054-6.608c0-.084-.129-.455-.243-.273-1.008 1.669-1.426 3.74-1.919 5.606-.553 2.064-1.023 4.15-1.494 6.229-.47 2.079-.917 4.188-1.357 6.289-.22 1.055-.448 2.109-.622 3.171-.175 1.063-.372 1.981-.114 2.997.038.152.197.508.402.455z"/><path fill="#12415D" d="M497.306 206.471c1.472-.607 2.708-1.54 4.058-2.382a44 44 0 0 1 3.853-2.177c2.146-1.078 4.361-1.958 6.674-2.587 4.103-1.123 8.388-1.54 12.62-1.047 4.543.531 8.851 2.094 13.234 3.292 5.051 1.381 10.3 2.094 15.51 1.26 3.383-.539 6.53-1.518 9.693-2.792 2.26-.911 4.747-1.783 6.689-3.285.038-.031-.008-.205-.061-.182-2.093.766-4.035 1.927-6.12 2.723-2.662 1.009-5.567 1.54-8.381 1.912-5.529.736-11.156.334-16.548-1.062-4.392-1.138-8.662-2.784-13.167-3.444-4.163-.607-8.486-.41-12.559.644-2.548.661-5.021 1.616-7.387 2.762a45 45 0 0 0-4.08 2.246c-1.578.971-3.102 1.949-4.293 3.383-.121.144.015.85.273.736z"/><path fill="#12415D" d="M501.295 214.589c.561.121.834-2.466.895-2.822q.294-1.605.622-3.209c.44-2.193 1.031-4.363 1.38-6.563.038-.25-.045-.599-.22-.804-.098-.114-.318-.303-.402-.053-.796 2.359-1.198 4.893-1.683 7.336-.235 1.191-.471 2.375-.645 3.566-.091.615-.205 1.229-.174 1.844 0 .113.03.66.219.698z"/><path fill="#12415D" d="M501.425 214.574c.895-.296 1.608-.918 2.366-1.464.857-.615 1.707-1.222 2.571-1.814 1.805-1.236 3.633-2.435 5.552-3.497 3.602-1.988 7.501-3.475 11.619-3.846 7.895-.706 15.388 2.655 23.185 3.148 4.111.266 8.76-.137 12.203-2.625 0 0 0-.038-.008-.038-1.827.698-3.602 1.282-5.544 1.54a30.3 30.3 0 0 1-6.151.137c-3.905-.311-7.751-1.298-11.573-2.079s-7.395-1.419-11.149-1.267c-4.095.159-8.032 1.426-11.672 3.27-1.987 1.009-3.891 2.177-5.741 3.421a76 76 0 0 0-3.004 2.147c-.985.736-2.085 1.427-2.836 2.413-.083.114 0 .615.205.546h-.015zM528.204 237.925c2.374-2.807 4.695-5.629 7.524-7.996 2.836-2.367 6.181-4.453 9.738-5.743 3.564-1.282 7.516-1.548 11.391-1.738s7.903-.629 11.65-1.98c3.746-1.35 6.939-3.489 9.29-6.577.266-.349-.364-1.631-.553-1.366-4.566 6.289-12.575 8.072-19.909 8.482-3.891.212-7.759.288-11.482 1.525-3.512 1.168-6.758 3.057-9.61 5.409-3.185 2.618-6.097 5.728-8.388 9.157-.144.205.167 1.032.349.812z"/><path fill="#12415D" d="M512.097 213.724c-.311.213-.311.774-.342 1.131-.068.622-.076 1.259-.114 1.889-.068 1.297-.106 2.602-.159 3.899-.03.592-.189 1.32-.091 1.927.091.524.455.812.827 1.161 1.024.979 2.086 1.919 3.125 2.875a891 891 0 0 1 6.249 5.774c1.031.963 2.086 1.912 3.132 2.86s2.018 1.957 3.14 2.769c.319.235.463-.152.493-.41.053-.394-.129-.918-.394-1.198-1.214-1.298-2.632-2.42-3.952-3.612-1.319-1.191-2.722-2.404-4.088-3.596-2.73-2.389-5.4-4.847-8.175-7.177l.394.896c.03-1.669.114-3.323.182-4.977.053-1.328.311-2.906-.159-4.173 0-.023-.031-.053-.053-.038h-.015"/><path fill="#12415D" d="M511.769 222.616c.485-.251.849-.714 1.251-1.085.486-.433.971-.865 1.441-1.313a45 45 0 0 1 2.822-2.39 72 72 0 0 1 2.988-2.23c1.153-.819 2.366-1.502 3.587-2.215.015 0 0-.053-.015-.053-2.328.91-4.626 2.23-6.636 3.732-1.054.789-2.048 1.669-3.011 2.572-.88.835-1.919 1.851-2.45 2.951v.023h.015z"/><path fill="#12415D" d="M505.544 210.94c-.698.91-.721 2.473-.91 3.581a55 55 0 0 0-.577 4.446c-.015.197.334 1.654.705 1.221 4.498-5.242 11.013-8.322 17.641-9.893 3.557-.85 7.228-1.373 10.884-1.259 3.875.114 7.682.758 11.543 1.062 2.04.159 4.118.152 6.166-.038a17.6 17.6 0 0 0 2.988-.539c1.092-.296 2.101-.88 3.094-1.418.031-.008 0-.122-.03-.107-1.775.623-3.769.865-5.643 1.078-2.047.227-4.057.129-6.105-.038-3.845-.311-7.66-1.009-11.498-1.351-3.632-.326-7.379.205-10.936.964-3.337.713-6.598 1.783-9.678 3.255a28.6 28.6 0 0 0-9.047 6.812l.705 1.222c.159-1.442.318-2.876.516-4.317.197-1.441.531-2.837.47-4.264 0-.068-.159-.591-.281-.432zM527.347 188.666c1.297 1.259 2.821 2.298 4.27 3.383s2.95 2.223 4.421 3.338c.038.031.069.038.114.023q4.667-2.424 9.321-4.87c.303-.16.038-.752-.144-.896-2.829-2.223-5.794-4.248-8.661-6.426-.031-.022-.061-.03-.106-.022-3.14 1.6-6.219 3.323-9.321 4.992-.251.136.022.895.235.774 1.554-.843 3.109-1.67 4.656-2.512.774-.417 1.555-.842 2.329-1.251.387-.213.773-.418 1.16-.63.296-.167.872-.668 1.229-.546.356.121.758.591 1.062.834.348.288.705.562 1.061.835.706.554 1.411 1.1 2.116 1.646 1.411 1.07 2.807 2.139 4.24 3.171l-.144-.895-4.642 2.481c-.773.417-1.547.827-2.32 1.252-.387.212-.766.417-1.161.629-.318.167-.849.622-1.228.524-.175-.046-.387-.281-.531-.387l-.531-.387c-.349-.258-.713-.516-1.062-.774-.713-.523-1.418-1.047-2.131-1.57-1.373-1.017-2.723-2.17-4.24-2.952-.114-.06-.053.19-.015.228h.008z"/><path fill="#E3E7F6" d="M507.309 193.028a3.42 3.42 0 0 0-2.502-.296c.242-2.943.477-5.879.728-8.823.227.091.493-.008.713-.121a5.47 5.47 0 0 0 2.593-3.02c.114 1.722-.796 3.475-2.26 4.385a32 32 0 0 1-.288 6.32c.304-.053.607.114.857.311 1.024.789 1.608 1.972 1.729 3.247.084-.797-.932-1.646-1.554-1.98z"/><path fill="#12415D" d="M509.04 195.198c.106-.213-.114-.554-.213-.729a4.5 4.5 0 0 0-1.198-1.297c-.842-.607-1.987-.888-3.018-.721l.295.562c.289-2.754.524-5.523.653-8.292 0-.091-.031-.365.037-.433.031-.03.152-.038.19-.053.205-.099.425-.152.622-.25a5.1 5.1 0 0 0 1.411-1.025c.622-.637 1.099-1.456 1.13-2.359 0-.038-.069-.265-.129-.19-.455.592-.683 1.305-1.199 1.859a4.85 4.85 0 0 1-2.305 1.373c-.053.015-.076.091-.076.129-.197 2.944-.44 5.88-.713 8.816-.015.152.068.607.296.561.993-.174 1.964-.03 2.814.531.515.342.804.767 1.13 1.267 0 0 .212.342.265.243z"/><path fill="#E3E7F6" d="M565.928 194.363c.121-.372.235-.751.448-1.07.212-.318.538-.599.91-.675.106-.023.22-.023.311-.083.265-.175.121-.585-.038-.858-1.191-2.018-1.745-4.4-3.11-6.312a148 148 0 0 0 1.623 5.963c-.083-.182-.364-.06-.5.091a3.1 3.1 0 0 0-.744 2.254c.054.682.357 1.487.903 1.934.144-.341.053-.857.19-1.252h.015z"/><path fill="#12415D" d="M565.996 195.774c.038-.637.061-1.206.395-1.775.333-.569.849-.971 1.463-1.229.167-.076.069-.402.023-.508-1.092-2.64-2.328-5.212-3.648-7.739-.045-.075-.045.031-.038.061 1.024 2.709 2.131 5.371 3.421 7.958l.023-.508c-1.487.402-2.405 2.238-1.881 3.672.03.099.22.258.235.061h.007z"/><path fill="#D0DCE4" d="M179.728 367.006c21.657-8.416 32.499-32.529 24.216-53.858s-32.554-31.796-54.212-23.38c-21.657 8.416-32.5 32.529-24.217 53.858s32.555 31.796 54.213 23.38"/><path fill="#12415D" d="M167.325 358.272c-.212-.038-.341-.265-.493-.652a2.5 2.5 0 0 1-.152-.698c-.06-.258-.098-.562-.151-.903-.106-.683-.167-1.457-.266-2.337-.098-.88-.182-1.813-.303-2.845-.106-1.001-.235-1.949-.341-2.83-.099-.88-.213-1.676-.266-2.336-.015-.357-.053-.66-.045-.941.007-.281 0-.516 0-.721.038-.417.129-.69.356-.736.175-.068.432.076.713.403.137.144.303.364.447.629.145.266.319.516.493.85.327.637.638 1.434.918 2.367.144.463.25.948.364 1.457.114.508.167 1.054.258 1.585.053.539.099 1.085.099 1.601s-.008 1.001-.023 1.487c-.068.948-.182 1.79-.349 2.496-.068.349-.182.668-.273.948-.091.281-.197.516-.334.691-.22.364-.424.561-.637.523z"/><path fill="#12415D" d="M171.898 357.172c-.083-.008-.151-.182-.189-.486-.038-.303-.046-.743-.099-1.282a58 58 0 0 0-.083-1.965c-.061-.773-.114-1.638-.228-2.549a29.4 29.4 0 0 0-1.577-6.433 29 29 0 0 0-.713-1.722 9.7 9.7 0 0 0-.926-1.563c-.341-.471-.735-.873-1.152-1.115-.418-.243-.82-.365-1.244-.319s-.842.205-1.274.531c-.395.311-.759.736-.971 1.214a6 6 0 0 0-.516 1.563c-.106.561-.144 1.176-.182 1.79-.045 1.222 0 2.481-.023 3.649a48 48 0 0 1-.068 3.225c-.099 3.96-.349 6.418-.751 6.418s-.864-2.428-1.266-6.35a104 104 0 0 1-.289-3.209c-.091-1.169-.197-2.367-.25-3.74-.023-1.396.046-2.982.85-4.613a6.8 6.8 0 0 1 1.691-2.14c.728-.606 1.691-1.1 2.791-1.16 1.084-.099 2.169.235 3.011.751s1.426 1.206 1.934 1.889c.47.698.857 1.388 1.13 2.086s.516 1.32.736 1.995a24.3 24.3 0 0 1 1.107 7.177c0 1.04-.084 1.95-.175 2.747-.129.812-.257 1.502-.409 2.041s-.311.963-.432 1.251c-.145.258-.273.425-.372.387l-.061-.053z"/><path fill="#12415D" d="M177.351 355.852c-.197 0-.311-.797-.448-2.185-.136-1.388-.318-3.399-.811-5.804-.235-1.229-.569-2.503-.994-3.899a22.7 22.7 0 0 0-1.691-4.15c-.766-1.343-1.737-2.61-2.973-3.528-1.251-.956-2.806-1.555-4.338-1.479-1.547.038-3.072.751-4.285 1.744-1.214.994-2.109 2.299-2.693 3.688-.614 1.403-.933 2.845-1.115 4.233s-.22 2.731-.22 3.968c0 1.236.046 2.382.069 3.376.022.994.045 1.866.045 2.587-.038 1.456-.174 2.23-.364 2.261-.197 0-.417-.759-.751-2.147a72 72 0 0 1-.5-2.527 50 50 0 0 1-.501-3.452 25 25 0 0 1-.114-4.316c.114-1.563.41-3.278 1.07-4.977.349-.858.743-1.692 1.289-2.542a11.5 11.5 0 0 1 2.002-2.261c.782-.667 1.661-1.289 2.693-1.729.993-.425 2.116-.744 3.269-.751a7.2 7.2 0 0 1 1.729.129 8.8 8.8 0 0 1 1.615.455c1.032.402 1.957.918 2.768 1.563a11.7 11.7 0 0 1 2.109 2.139c.576.774 1.092 1.578 1.486 2.382.789 1.616 1.305 3.255 1.646 4.765.349 1.509.577 2.936.713 4.203.243 2.587.144 4.703-.053 6.145-.205 1.441-.47 2.185-.675 2.185v-.084z"/><path fill="#12415D" d="M181.371 353.212c-.212-.038-.212-.956-.265-2.542-.069-1.616-.235-3.907-.941-6.638-.364-1.343-.857-2.83-1.539-4.287a20.5 20.5 0 0 0-2.731-4.347 14.6 14.6 0 0 0-4.247-3.512 14.5 14.5 0 0 0-2.647-1.055c-.933-.235-1.911-.379-2.867-.372a10.07 10.07 0 0 0-5.384 1.692c-1.601 1.024-2.92 2.375-3.921 3.809-.524.72-.941 1.487-1.335 2.238-.22.364-.341.773-.508 1.16-.137.372-.304.759-.425 1.169a22.5 22.5 0 0 0-.986 4.468 40 40 0 0 0-.311 3.839c-.038 1.13-.045 2.139-.061 2.944a30 30 0 0 1-.075 1.866c-.038.41-.099.675-.213.683-.114.007-.235-.19-.364-.622-.159-.418-.288-1.047-.447-1.867a29 29 0 0 1-.41-3.004c-.106-1.199-.182-2.534-.091-4.044.053-1.502.281-3.194.728-4.923.106-.44.266-.865.41-1.32.189-.433.318-.926.515-1.358.372-.903.873-1.776 1.441-2.679 1.131-1.722 2.632-3.421 4.574-4.703a12.3 12.3 0 0 1 3.193-1.563c1.175-.379 2.404-.615 3.678-.63a13.5 13.5 0 0 1 3.656.463c1.16.311 2.26.766 3.276 1.328 2.04 1.13 3.671 2.655 4.96 4.316 1.274 1.624 2.199 3.392 2.844 5.061a25.3 25.3 0 0 1 1.343 4.802c.257 1.502.348 2.868.341 4.074-.015 1.206-.091 2.238-.25 3.057q-.24 1.23-.478 1.867c-.16.425-.273.63-.357.622h-.121z"/><path fill="#12415D" d="M185.807 348.167c-.174.068-.576-.857-1.054-2.511a85 85 0 0 1-.819-3.043c-.296-1.168-.622-2.518-1.092-3.937s-1.017-2.928-1.889-4.347c-.834-1.434-2.047-2.807-3.443-4.029-1.464-1.191-3.155-2.253-5.066-2.951-.941-.356-1.934-.652-2.988-.796-1.024-.16-2.071-.281-3.178-.243-2.146.03-4.247.493-6.166 1.236a18.7 18.7 0 0 0-5.089 2.974c-1.464 1.169-2.685 2.565-3.633 3.938a18.2 18.2 0 0 0-2.215 4.18 24 24 0 0 0-1.16 3.816c-.227 1.168-.402 2.155-.478 2.989-.038.417-.053.782-.091 1.115-.03.334-.038.615-.076.827-.06.463-.129.691-.204.721-.076.03-.198-.205-.342-.668a4 4 0 0 1-.204-.842c-.054-.341-.114-.713-.175-1.176-.098-.88-.083-1.964-.015-3.239.106-1.282.349-2.701.834-4.249.448-1.532 1.168-3.178 2.139-4.794a20.8 20.8 0 0 1 3.936-4.696 20.2 20.2 0 0 1 5.741-3.551c2.177-.888 4.596-1.464 7.145-1.495a18.2 18.2 0 0 1 7.235 1.313c2.215.857 4.156 2.147 5.794 3.588 1.608 1.457 2.89 3.119 3.77 4.863.91 1.73 1.418 3.452 1.767 4.955.356 1.54.546 2.951.698 4.172.151 1.222.273 2.253.326 3.111.144 1.707.151 2.663-.053 2.746z"/><path fill="#12415D" d="M188.963 339.495c.091-.076.379.053.819.364l-.531.289-.622-1.601-.417-1.078c-.152-.379-.349-.789-.554-1.221-.455-.865-.948-1.828-1.577-2.83-.319-.516-.675-1.016-1.047-1.555a33 33 0 0 0-1.244-1.555 22 22 0 0 0-3.147-3.058c-1.214-.971-2.533-1.896-4.027-2.64-2.973-1.57-6.545-2.541-10.307-2.64a23.3 23.3 0 0 0-6.341.668 20.9 20.9 0 0 0-5.544 2.116 22.7 22.7 0 0 0-4.444 3.088c-1.282 1.138-2.389 2.291-3.307 3.444-.91 1.154-1.638 2.276-2.252 3.278-.281.508-.531 1.009-.804 1.434-.228.447-.417.88-.599 1.236-.167.387-.319.721-.448 1.017l-.341.774c-.205.402-.356.622-.455.576-.099-.045-.106-.28-.114-.713.023-.25.03-.531.076-.827.068-.349.129-.69.243-1.13s.25-.895.417-1.404.387-1.069.607-1.638c.477-1.146 1.145-2.405 2.025-3.748a23.6 23.6 0 0 1 3.321-4.014 23.5 23.5 0 0 1 4.778-3.656 23.3 23.3 0 0 1 6.182-2.519 24.4 24.4 0 0 1 7.091-.797c4.209.129 8.221 1.29 11.497 3.134a25.4 25.4 0 0 1 4.384 3.14 25.7 25.7 0 0 1 3.254 3.536c.462.576.872 1.221 1.259 1.79.364.622.698 1.169.993 1.738.599 1.13 1.017 2.207 1.358 3.194.189.485.296.963.409 1.365.129.433.175.858.273 1.214.129.751.16 1.335.205 1.76l.091 1.168-.622-.88c-.341-.47-.447-.743-.409-.842l-.137.053z"/><path fill="#12415D" d="M190.199 329.89c.03-.129.349-.136.94-.166l-.364.5a24 24 0 0 1-1.054-1.274c-.19-.289-.485-.531-.728-.842-.273-.296-.523-.638-.85-.949a27 27 0 0 1-1.008-1.047c-.349-.387-.759-.705-1.191-1.1-.394-.402-.887-.736-1.32-1.13-.47-.38-.97-.744-1.517-1.131a32 32 0 0 0-3.519-2.154c-.318-.197-.644-.311-.993-.493-.341-.152-.69-.334-1.024-.478-.341-.152-.713-.281-1.085-.418-.189-.083-.371-.136-.53-.235-.182-.053-.372-.136-.554-.182-.372-.136-.743-.273-1.153-.394-.394-.084-.766-.22-1.16-.311-.182-.053-.41-.122-.584-.175-.213-.038-.395-.083-.607-.121-.394-.084-.819-.16-1.213-.251-.418-.038-.842-.113-1.259-.151l-.63-.076-.652-.031c-.448-.022-.865-.06-1.312-.091-.44.008-.872.023-1.32 0a28.4 28.4 0 0 0-5.969.797 31.3 31.3 0 0 0-5.301 1.904c-.804.395-1.615.789-2.328 1.222-.759.417-1.457.887-2.116 1.343-.357.22-.653.493-.971.697-.303.243-.63.448-.918.721-.303.243-.569.501-.842.729-.144.136-.273.227-.417.364a3 3 0 0 1-.387.349c-.993.948-1.88 1.851-2.593 2.693-.357.417-.683.827-.979 1.183-.288.395-.553.736-.796 1.032-.137.175-.243.296-.341.455s-.213.281-.289.395c-.189.235-.341.455-.477.622q-.422.467-.546.455c-.099-.045-.107-.28.045-.698.038-.212.144-.455.258-.781.061-.144.114-.326.174-.471.061-.144.152-.341.235-.531.182-.349.372-.789.6-1.236.242-.41.538-.888.864-1.381a28 28 0 0 1 2.458-3.156c.113-.121.242-.296.356-.417.144-.137.258-.258.402-.395.296-.273.554-.538.834-.842.296-.273.622-.561.933-.804.326-.288.622-.561 1.001-.827.721-.516 1.426-1.077 2.222-1.586.751-.531 1.616-.986 2.48-1.441 1.775-.888 3.709-1.684 5.772-2.246 2.078-.523 4.338-.887 6.621-.971.485.015.956-.007 1.479-.015.485.015.948.068 1.433.083.251.023.501.046.698.046.25.023.463.061.713.083.463.061.925.122 1.403.213.44.106.918.205 1.35.273.212.038.44.106.66.144.227.068.44.106.637.19.44.106.865.265 1.274.387.425.159.842.311 1.214.447.189.084.424.16.614.243.189.084.387.167.576.258.387.167.774.341 1.161.508.386.167.75.387 1.099.569s.706.365 1.07.585a35 35 0 0 1 3.678 2.571c.546.471 1.054.873 1.517 1.336.463.462.94.872 1.32 1.327.379.456.773.858 1.099 1.29s.645.835.926 1.244c.265.38.508.804.728 1.161s.424.675.591 1.009c.326.637.561 1.146.728 1.563l.296.766-.66-.265c-.569-.22-.834-.395-.804-.532l-.068.031z"/><path fill="#12415D" d="M187.567 318.905c-.053.061-.273.023-.591-.091-.341-.152-.796-.41-1.396-.698-.303-.159-.606-.326-.955-.508a20 20 0 0 0-1.183-.577c-.41-.243-.88-.417-1.366-.63-.485-.212-1.016-.447-1.547-.682-1.099-.456-2.298-.865-3.579-1.29-1.305-.372-2.746-.774-4.24-1.032-1.502-.258-3.117-.508-4.77-.546a39 39 0 0 0-5.12.106c-1.737.159-3.451.501-5.059.888a36 36 0 0 0-4.558 1.449 41 41 0 0 0-3.974 1.821c-1.183.66-2.298 1.289-3.284 1.957-.478.303-.963.615-1.395.941s-.842.607-1.221.872c-.364.304-.706.554-1.047.804-.303.243-.614.478-.849.691-.524.402-.91.751-1.229.956-.318.205-.493.273-.554.212-.06-.061-.022-.273.137-.577.197-.318.447-.811.88-1.342.212-.281.455-.577.72-.918.281-.311.584-.668.933-1.002.334-.371.721-.72 1.13-1.115.402-.394.857-.774 1.35-1.161a28 28 0 0 1 3.284-2.359c1.259-.774 2.609-1.533 4.141-2.208 1.502-.668 3.14-1.297 4.884-1.737a32 32 0 0 1 5.491-1.009 33.5 33.5 0 0 1 5.582-.046c1.798.099 3.527.433 5.142.766 1.623.372 3.102.873 4.498 1.374a34 34 0 0 1 3.708 1.722c.562.303 1.07.584 1.54.88s.903.569 1.297.857.773.539 1.077.82.607.523.887.735c.531.433.857.865 1.085 1.138.227.274.303.478.212.554l-.045-.023z"/><path fill="#12415D" d="M184.434 312.798c-.106.038-.25-.023-.515-.198-.266-.174-.622-.478-1.1-.773-.94-.676-2.374-1.48-4.338-2.201a36 36 0 0 0-3.261-.971 54 54 0 0 0-3.83-.796 39.7 39.7 0 0 0-8.912-.38c-3.155.228-6.12.82-8.775 1.609-1.327.394-2.54.865-3.693 1.312-1.145.448-2.184.971-3.132 1.419-.933.485-1.76.926-2.518 1.343a8.5 8.5 0 0 0-1.009.592c-.334.166-.584.349-.85.493-.53.288-.917.516-1.221.675-.311.121-.485.19-.561.099-.03-.069-.015-.236.182-.554.175-.266.501-.676.941-1.085.227-.251.462-.463.72-.721s.584-.546.933-.804c.66-.577 1.464-1.168 2.397-1.768.925-.599 1.956-1.244 3.132-1.821a38 38 0 0 1 3.837-1.653c2.776-1.002 5.977-1.723 9.397-1.973s6.697.038 9.572.645c1.441.318 2.783.683 4.034 1.115 1.252.433 2.382.873 3.39 1.404s1.897 1.062 2.594 1.631a9.4 9.4 0 0 1 1.661 1.593c.395.485.668.903.789 1.214s.19.485.099.561l.037-.015z"/><path fill="#12415D" d="M175.767 303.557c-.046.099-.213.084-.448.091-.25-.022-.561-.106-.971-.227a5 5 0 0 1-.652-.228c-.227-.068-.5-.167-.781-.258a23 23 0 0 0-1.896-.546c-.721-.205-1.456-.356-2.29-.546a22 22 0 0 0-2.663-.364c-.948-.069-1.941-.167-2.935-.137-1.039 0-2.085.091-3.155.228a24 24 0 0 0-3.086.599c-.994.228-1.942.554-2.814.895-.872.342-1.707.66-2.473 1.04-.773.379-1.479.736-2.093 1.092s-1.206.706-1.684 1.017c-.265.144-.477.303-.675.425-.227.129-.409.28-.568.379-.357.22-.653.372-.865.455s-.349.137-.425.046-.083-.213.023-.448.266-.546.501-.872c.136-.175.288-.395.455-.577s.356-.417.584-.668c.424-.447.955-.933 1.562-1.449a19 19 0 0 1 2.086-1.532 35 35 0 0 1 2.609-1.419c.963-.41 1.987-.85 3.071-1.153a30 30 0 0 1 3.474-.751 22.5 22.5 0 0 1 3.534-.175c1.138.038 2.23.175 3.284.327 1.024.159 2.002.424 2.867.69.88.303 1.668.592 2.396.91a15.5 15.5 0 0 1 1.866.994c.266.175.523.319.706.486.219.151.401.326.576.455.341.265.569.539.72.721s.205.318.16.417z"/><path fill="#fff" d="M155.334 100.115c.213.789.433 1.593.38 2.412-.069 1.093-.599 2.102-1.062 3.088-5.264 11.251-2.245 25.802 7.061 34.026.842.743 1.737 1.449 2.328 2.397.539.865.804 1.889 1.047 2.883l2.745 11.046c.091.372.197.766.448 1.062.569.668 1.623.547 2.48.372l34.174-6.987c6.098-1.244 12.226-2.496 18.073-4.628.569-.205 1.191-.47 1.441-1.024.167-.372.129-.797.091-1.199-.75-7.124-3.17-13.952-5.263-20.802a233 233 0 0 1-6.742-28.367c-.243-1.419-.486-2.875-1.206-4.127-.584-1.016-1.449-1.843-2.321-2.632a87.5 87.5 0 0 0-10.845-8.422c-1.093-.72-2.238-1.426-3.527-1.676-1.312-.258-2.655-.015-3.974.227l-21.919 4.029c-3.701.683-7.417 1.365-11.118 2.048-1.433.266-4.058.22-5.264 1.04-1.099.75-.675 1.684-.379 2.837 1.07 4.15 2.238 8.277 3.36 12.412z"/><path fill="#E3E7F6" d="M174.834 80.792c3.86.5 9.131 1.646 14.842 4.445a47 47 0 0 1 7.766 4.795c.288 1.191.569 2.39.85 3.581.978-.129 1.949-.25 2.935-.38 2.343 2.755 9.237 11.578 8.828 23.868-.425 12.966-8.783 21.432-12.355 25.302-7.721 8.36-16.435 12.153-21.228 13.83 16.018-4.226 32.043-8.444 48.053-12.67-4.307-17.669-8.615-35.323-12.923-52.992-.493.349-1.107.47-1.699.584l-11.422 2.192c-.121-.553-.28-1.29-.477-2.154 0 0-.114-.5-.236-1.01-.159-.682-.652-2.73-1.228-4.923-.941-3.535-1.942-6.76-2.321-7.989-6.469 1.176-12.931 2.345-19.393 3.52z"/><path fill="#12415D" d="m171.246 99.66 6.606 17.54 17.459-5.698c-.387-1.13-2.89-8.133-10.421-11.372-6.447-2.777-12.264-.948-13.652-.47z"/><path fill="#E3E7F6" d="M195.257 114.188c2.071 8.967-2.343 17.942-10.026 21.394-9.086 4.081-19.901-.865-23.996-9.597-4.187-8.915-.584-20.082 8.532-25.112 2.275 6.456 4.566 12.905 6.841 19.361l18.649-6.054z"/><path fill="#12415D" d="M169.526 100.645c.136 1.267.546 2.519.902 3.733.379 1.305.796 2.602 1.229 3.9a163 163 0 0 0 2.692 7.465 190 190 0 0 0 1.653 4.15c.091.212.334.705.63.485.273-.212.114-.872.015-1.115-1.957-4.863-3.754-9.779-5.476-14.726-.235-.667-.47-1.342-.713-2.01-.242-.668-.462-1.343-.804-1.965-.075-.137-.144-.038-.128.076z"/><path fill="#12415D" d="M176.517 120.469c.645-.076 1.289-.341 1.911-.538.622-.198 1.259-.425 1.881-.645 1.252-.425 2.511-.865 3.754-1.298 2.503-.864 5.013-1.737 7.516-2.602.69-.243 1.381-.47 2.071-.721q.544-.192 1.099-.386c.167-.061.364-.099.516-.183.182-.098.228-.212.281-.402.023-.075 0-.212-.061-.265-.28-.243-.417-.167-.743-.061l-.978.326c-.63.213-1.252.425-1.881.645l-3.755 1.298q-3.763 1.294-7.515 2.602c-.691.243-1.381.47-2.071.721-.69.25-1.517.485-2.177.88-.151.091-.03.667.16.644z"/><path fill="#12415D" d="M169.502 100.403c-4.831 2.595-8.449 7.124-9.875 12.419-1.433 5.296-.47 11.327 2.602 16.031 3.041 4.65 8.138 7.996 13.651 8.77 2.761.387 5.598.152 8.229-.789 2.632-.941 4.862-2.443 6.72-4.393 3.944-4.142 5.741-9.999 5.104-15.659a31 31 0 0 0-.326-2.215c-.046-.197-.152-.865-.448-.887-.295-.023-.144.698-.121.811.546 2.519.402 5.288-.227 7.799-.63 2.512-1.714 4.886-3.284 6.957-3.231 4.249-8.252 6.821-13.606 6.783-5.287-.038-10.489-2.549-13.948-6.517a18.5 18.5 0 0 1-2.275-3.247 17 17 0 0 1-.812-1.722c-.242-.6-.439-1.207-.591-1.738-.652-2.359-.796-4.87-.425-7.374.766-5.257 3.701-10.052 8.024-13.148a21 21 0 0 1 1.767-1.122c.213-.129-.022-.85-.182-.759h.023"/><path fill="#12415D" d="m228.28 144.853-24.178-14.794c4.019-8.945 3.663-19.794-2.185-28.533-9.177-13.717-28.13-16.638-40.81-8.004-14.281 9.733-16.807 31.575-5.074 44.427 9.935 10.879 27.47 12.419 39.339 3.255a28.4 28.4 0 0 0 4.915-4.856l24.155 14.786 3.838-6.274zm-36.89-8.915c-9.192 7.094-22.775 5.903-30.473-2.518-9.093-9.946-7.137-26.872 3.929-34.413 9.814-6.692 24.504-4.423 31.611 6.198 6.712 10.03 4.088 23.663-5.074 30.741z"/><path fill="#12415D" d="M151.322 85.184c-.099 1.434.311 2.921.591 4.325.304 1.547.698 3.08 1.054 4.627.357 1.548.706 2.99 1.047 4.484.394 1.707.683 3.528 1.403 5.129.159.356.599.933 1.032.705.462-.243.386-1.115.348-1.525-.129-1.578-.743-3.194-1.168-4.719-.424-1.524-.834-3.057-1.251-4.574-.417-1.518-.819-3.096-1.289-4.628-.402-1.305-.736-2.77-1.487-3.907-.114-.175-.273-.16-.288.068zM168.327 158.941c3.823-.402 7.562-1.35 11.301-2.185 3.746-.834 7.311-1.624 10.959-2.443 7.394-1.646 14.804-3.255 22.199-4.901q3.069-.692 6.151-1.373c2.047-.463 4.254-1.07 6.416-1.419.569-.098.015-2.564-.584-2.397-1.851.516-3.739.842-5.613 1.259l-5.612 1.252c-3.655.812-7.303 1.631-10.959 2.443-7.395 1.646-14.782 3.346-22.169 5.007-4.179.933-8.433 1.715-12.483 3.126-.425.144-.053 1.684.402 1.639h-.008z"/><path fill="#12415D" d="M225.966 145.907c.038-1.783-.637-3.611-1.092-5.31-.455-1.7-.948-3.437-1.411-5.159a560 560 0 0 1-2.745-10.53 640 640 0 0 1-5.112-21.918c-.865-4.044-1.798-8.088-2.511-12.162-.091-.538-.402-2.154-1.206-2.154s-.523 1.623-.439 2.033c.773 3.725 1.433 7.48 2.214 11.213a625 625 0 0 0 7.782 32.683c.53 1.973 1.046 3.945 1.607 5.91.281.971.554 1.942.85 2.913.296.972.652 2.079 1.251 2.944.433.622.797.038.804-.463z"/><path fill="#12415D" d="M193.924 77.013c.341.88 1.115 1.373 1.866 1.904.796.562 1.592 1.123 2.351 1.738 1.532 1.229 3.17 2.329 4.747 3.505 3.064 2.299 5.969 4.81 9.056 7.078.5.372.705-.296.72-.69.016-.63-.197-1.374-.667-1.814-2.708-2.518-5.734-4.68-8.745-6.835-1.456-1.032-2.904-2.079-4.421-3.035-.774-.485-1.57-.933-2.359-1.41-.789-.479-1.426-.926-2.26-1.184-.121-.038-.174.045-.235.136-.129.197-.137.38-.053.6z"/><path fill="#12415D" d="M151.558 86.223c1.441-.083 2.889-.477 4.3-.789 1.411-.31 2.753-.599 4.133-.88 2.807-.591 5.605-1.198 8.411-1.76a669 669 0 0 1 16.883-3.209c1.608-.288 3.223-.561 4.838-.834.759-.122 1.525-.258 2.283-.38.842-.136 1.729-.205 2.533-.508.327-.121-.053-1.654-.402-1.67-1.418-.052-2.935.38-4.33.608s-2.776.463-4.164.713a658 658 0 0 0-8.456 1.532 551 551 0 0 0-16.83 3.46c-1.6.349-3.185.728-4.785 1.108-1.601.379-3.239.675-4.733 1.304-.318.137-.03 1.343.319 1.32z"/><path fill="#12415D" d="M194.142 76.718c-.023 1.282.417 2.647.698 3.891.311 1.381.637 2.762.948 4.135.637 2.807 1.32 5.6 2.002 8.39.038.19.22.73.508.661 4.604-1.032 9.238-1.927 13.849-2.898.447-.099.121-1.533-.349-1.434-4.619.94-9.222 1.965-13.856 2.853l.508.66a545 545 0 0 0-2.002-8.391c-.342-1.373-.675-2.754-1.024-4.12-.311-1.236-.531-2.655-1.138-3.785-.068-.13-.159-.1-.159.03zM163.51 138.844c-.22.63-.023 1.335.091 1.965.144.865.333 1.722.508 2.58.364 1.737.743 3.474 1.107 5.212s.751 3.376 1.138 5.06c.189.842.386 1.692.591 2.526.205.835.402 1.829.979 2.466.144.159.47.364.568.023.251-.835.069-1.723-.113-2.557-.182-.835-.387-1.692-.584-2.526-.41-1.73-.804-3.46-1.244-5.174s-.842-3.354-1.267-5.03c-.227-.88-.44-1.768-.705-2.641-.205-.675-.341-1.433-.842-1.957a.134.134 0 0 0-.227.053"/><path fill="#fff" d="M448.319 20.053c.766-4.666 2.405-9.279 5.416-12.928 3.01-3.641 7.515-6.213 12.24-6.183 3.337.015 6.553 1.297 9.443 2.974a34.76 34.76 0 0 1 11.702 11.19c.819 1.275 1.578 2.633 2.731 3.604 1.676 1.411 3.943 1.844 6.09 2.268 6.681 1.313 13.719 3.316 18.126 8.505.281.326.561.72.516 1.153-.038.319-.251.584-.463.827a26.2 26.2 0 0 1-4.778 4.332c-.941.668-1.972 1.313-2.51 2.33-.933 1.767-.076 3.891.637 5.757.766 1.996 1.365 4.112 1.236 6.244s-1.1 4.31-2.897 5.463c-1.798 1.153-4.475.993-5.833-.66.607 2.222-.265 4.764-2.093 6.16-1.828 1.388-4.512 1.548-6.492.372-.44 2.298-1.562 4.536-3.458 5.917-1.889 1.373-4.619 1.692-6.576.418.213 2.124-1.274 4.286-3.329 4.855-3.102.842-6.045-1.654-8.146-4.082-3.769-4.377-6.985-9.202-10.185-14.012-2.768-4.165-5.552-8.414-7.365-13.102-.894-2.314-1.501-4.704-1.767-7.17-.227-2.109-1.683-3.732-2.191-5.826-.66-2.747-.524-5.645-.069-8.406h.015"/><path fill="#E3E7F6" d="M494.175 56.984c2.48.531 4.627.342 6.075.084-1.046 3.907-2.806 4.658-3.306 4.832-3.163 1.085-8.419-2.92-12.128-10.84 1.017 1.274 4.119 4.794 9.367 5.917zM501.902 50.058a20.3 20.3 0 0 0 6.075.675c-.251.948-1.108 4.104-3.307 4.833-2.958.97-7.85-2.587-10.838-9.818 1.464 1.268 4.171 3.263 8.077 4.31zM485.392 62.568c2.328.524 4.376.486 5.878.319-.471 2.39-2.276 4.264-4.543 4.719-2.852.584-4.968-1.358-5.165-1.548-1.911-3.057-3.815-6.115-5.734-9.18 1.289 1.427 4.482 4.537 9.564 5.683zM472.878 71.043c1.646 2.291 4.748 2.822 6.849 1.396 1.797-1.222 2.571-3.68 1.744-5.903-.114.296-1.13 2.815-3.033 3.141-2.101.35-5.014-2.018-5.469-6.168a982 982 0 0 0-3.094 2.701c1.001 1.609 1.995 3.224 2.996 4.833zM454.433 16.145c-1.645 7.929 2.996 14.172 3.77 15.174 5.612 8.2 11.232 16.394 16.844 24.596-3.041 1.836-6.082 3.656-9.123 5.492-5.317-8.034-10.634-16.068-15.942-24.102-6.606-9.984-5.363-14.65-5.15-16.85.72-7.291 5.62-15.674 14.084-18.656 5.119-1.798 9.738-.994 11.983-.432-8.343 1.327-14.896 7.283-16.45 14.786z"/><path fill="#12415D" d="M450.095 37.449c-.22-.516-.418-.94-.721-1.411a43 43 0 0 1-1.221-2.056 25.7 25.7 0 0 1-2.389-6.031c-1.35-5.357-.485-11.016 2.488-15.682 2.919-4.575 7.47-8.004 12.817-9.127 4.74-1.001 9.852-.174 14.129 2.064a27.4 27.4 0 0 1 6.872 5.09 26.4 26.4 0 0 1 2.904 3.52c.425.623.827 1.268 1.199 1.92.402.706.697 1.373 1.289 1.935.637.607.971-1.518.902-1.814-.318-1.585-1.175-2.943-2.07-4.278a28 28 0 0 0-2.601-3.346c-1.843-2.026-4.005-3.816-6.417-5.121-4.52-2.443-9.753-3.65-14.872-2.883-12.332 1.874-20.091 15.067-18.384 26.895a22.7 22.7 0 0 0 2.677 7.829 20 20 0 0 0 1.661 2.526c.402.509.682.812 1.221 1.108.508.28.614-.857.5-1.13zM498.725 31.418c.577 1.213 1.252 2.39 1.798 3.618.576 1.29 1.031 2.618 1.661 3.892 1.175 2.39 2.419 4.75 3.663 7.101.614 1.154 1.304 2.3 1.866 3.483.326.69.295 1.57.091 2.29-.455 1.579-2.025 2.77-3.618 2.975-2.078.273-4.27-.933-5.324-2.701-.205-.349-.486-.038-.614.205-.182.341-.289.887-.114 1.252.902 1.965 2.669 3.725 4.937 3.869 2.086.129 3.898-1.093 4.975-2.815 1.214-1.942 1.858-5.045.728-7.17-1.418-2.662-3.048-5.234-4.588-7.836-.774-1.305-1.547-2.724-2.533-3.87-1.13-1.32-1.949-2.882-2.897-4.331-.015-.023-.031.03-.023.038h-.015z"/><path fill="#12415D" d="M474.395 26.403c-3.14-.303-8.236-1.745-8.456-3.877-.152-1.48 2.063-3.216 11.164-6.949 14.888-6.115 22.343-9.172 29.745-8.004 3.246.508 12.362 2.018 17.095 9.832 4.452 7.352 2.048 15.401 1.615 16.865-3.61 12.093-16.071 16.13-17.277 16.501a165 165 0 0 0-6.514-12.093 171 171 0 0 0-7.463-11.501 16.5 16.5 0 0 0 9.078 1.904c4.429-.349 7.448-2.397 8.616-3.277a32 32 0 0 1-9.61 1.312c-6.279-.106-11.126-2.048-13.848-3.399a43.3 43.3 0 0 1-7.327 2.08c-2.495.477-4.414.841-6.81.606h-.015zM481.477 66.134c.114.972.577 1.54 1.373 2.094.637.44 1.358.751 2.116.918a5.28 5.28 0 0 0 4.551-1.1c2.745-2.268 3.079-6.744.978-9.513-.273-.357-.66.455-.713.614-.144.417-.22.979.046 1.358.963 1.38 2.495 2.299 4.088 2.792 1.441.448 3.155.053 4.353-.835 1.411-1.047 2.184-2.875 2.404-4.574.121-.91.121-1.874-.068-2.777-.144-.66-.44-2.253-1.289-2.284-.607-.022-.729 1.366-.668 1.768.167 1.214.963 2.428.751 3.627-.19 1.084-.963 1.919-2.01 2.374-1.122.493-2.351.524-3.549.357-1.411-.198-2.549-1.275-3.352-2.405l-.668 1.98c.743.97 1.244 2.306 1.001 3.55-.242 1.245-1.168 2.246-2.252 2.785a5.9 5.9 0 0 1-3.686.478 5.4 5.4 0 0 1-1.851-.751c-.5-.327-.819-.812-1.464-.676-.075.016-.106.19-.098.243v-.023z"/><path fill="#12415D" d="m493.075 45.005-.138.094a.92.92 0 0 0-.239 1.276l6.491 9.494a.917.917 0 0 0 1.275.24l.138-.095a.92.92 0 0 0 .239-1.276l-6.491-9.493a.917.917 0 0 0-1.275-.24M484.27 50.576l-.138.094a.92.92 0 0 0-.239 1.276l6.491 9.493a.917.917 0 0 0 1.275.24l.138-.095a.92.92 0 0 0 .24-1.276l-6.491-9.493a.92.92 0 0 0-1.276-.24M475.022 56.471l-.138.094a.92.92 0 0 0-.239 1.276l6.491 9.494a.917.917 0 0 0 1.275.239l.138-.094a.92.92 0 0 0 .239-1.276l-6.49-9.493a.92.92 0 0 0-1.276-.24"/><path fill="#12415D" d="M468.365 65.436c.182 1.123 1.092 2.17 1.722 3.096.629.925 1.251 1.79 1.903 2.67 1.047 1.411 2.549 2.526 4.316 2.822 3.64.615 6.158-2.875 6.007-6.243-.038-.918-.281-1.882-.736-2.678-.364-.63-1.085-1.73-1.942-1.465-.333.107-.379.79-.28 1.055.318.865 1.13 1.48 1.554 2.291.38.728.592 1.563.41 2.375-.379 1.722-2.086 2.875-3.8 2.867-1.797 0-3.42-.97-4.558-2.306-.728-.85-1.372-1.775-2.085-2.648-.38-.47-.782-.925-1.184-1.38-.295-.342-.652-.91-1.145-.888-.159 0-.189.303-.174.425z"/><path fill="#12415D" d="M480.008 55.809c-.827-1.738-3.2-2.618-5.332-1.64-.098.054-3.875 2.3-3.966 2.353 0 0-.781.463-.789.47-.007-.007-.015-.023-.03-.03-1.661.948-3.322 1.904-4.983 2.852 2.321-1.737 4.649-3.482 6.97-5.22.902-.735 1.812-1.463 2.715-2.2 2.207-1.593 2.457-4.665.903-6.357-1.305-1.434-3.747-1.715-5.605-.425q-2.183 1.208-4.376 2.428l-6.705 4.082c2.093-1.57 4.187-3.149 6.28-4.72 0 0 .061-.045.091-.06.053-.045.121-.084.174-.137h.008c1.335-.902 2.662-1.805 3.997-2.716 2.237-1.775 2.359-5.022.629-6.76-1.494-1.501-4.148-1.668-6.044-.143-1.259.796-2.511 1.585-3.762 2.382 0 0-.008-.015 0-.015-2.093 1.229-4.179 2.458-6.272 3.687 1.949-1.487 3.898-2.967 5.84-4.454 0 0-.008-.015-.015-.022 1.145-.858 2.29-1.707 3.42-2.557 1.532-1.047 2.169-2.928 1.608-4.499-.713-1.972-2.958-2.45-4.202-2.405-1.107.046-1.934.508-2.359.79-3.101 1.835-6.203 3.671-9.298 5.507-.387.25-1.615 1.108-2.002 2.686-.493 2.025.705 4.074 2.336 5.037 1.335.797 2.761.637 3.337.539-1.744 1.669-2.108 4.317-.91 6.342 1.122 1.882 3.382 2.845 5.574 2.352-.349.539-1.001 1.707-1.039 3.277-.007.547-.076 3.263 2.002 4.59 1.548.987 3.717.835 5.416-.394-1.396 1.472-1.73 3.588-.895 5.19 1.061 2.017 3.852 2.935 6.234 1.729 3.42-2.435 6.833-4.87 10.246-7.29 1.107-1.222 1.418-2.922.796-4.234V55.8z"/><path fill="#fff" d="M449.291 39.05c1.472-1.389 3.125-2.64 4.816-3.748 1.805-1.191 3.679-2.337 5.628-3.293.023-.007.045-.114.015-.098-1.972.637-3.807 1.441-5.529 2.594-1.828 1.222-3.428 2.663-4.937 4.256-.053.061-.084.38.015.289zM454.281 46.97c.888-.432 1.653-1.123 2.45-1.714a73 73 0 0 1 2.692-1.927 374 374 0 0 1 5.878-3.885c.023-.015.046-.113 0-.098a26 26 0 0 0-5.772 3.042c-1.789 1.252-3.868 2.7-5.263 4.507 0 .007-.023.083 0 .075zM460.288 54.193c.75-.547 1.547-1.047 2.32-1.57.85-.585 1.692-1.177 2.556-1.746 1.699-1.123 3.322-2.352 5.051-3.414.031-.015.046-.129.008-.114-1.76.797-3.504 1.594-5.097 2.701-.819.577-1.638 1.161-2.411 1.806-.857.713-1.639 1.48-2.435 2.253-.015.015-.023.106 0 .084zM472.097 20.592c5.9-2.049 11.725-4.28 17.588-6.434 5.422-1.987 11.042-3.831 16.905-3.3 1.532.137 3.011.47 4.482.91s2.966.941 4.323 1.776c.038.022.091-.182.053-.213-1.062-.88-2.245-1.707-3.504-2.29-1.259-.585-2.609-.873-3.944-1.078-2.775-.417-5.589-.258-8.342.258-5.977 1.123-11.604 3.778-17.216 6.023a512 512 0 0 0-10.36 4.302c-.015 0-.015.046 0 .046zM522.447 28.315c-.038 3.566-.925 6.95-2.935 9.915-.895 1.313-1.949 2.504-3.072 3.627-1.221 1.221-2.449 2.412-3.807 3.475-.038.03-.061.235 0 .204 1.494-.804 2.943-1.669 4.202-2.807a18.7 18.7 0 0 0 3.413-4.187c1.79-2.982 3.117-6.82 2.26-10.31-.023-.084-.061.052-.061.075zM464.801 62.356c.515-.372 1.046-.713 1.554-1.077s1.077-.736 1.608-1.116c1.153-.826 2.245-1.76 3.443-2.503.023-.015.023-.083 0-.076-1.145.615-2.32 1.13-3.39 1.874-.553.387-1.084.827-1.608 1.267-.576.486-1.092 1.009-1.63 1.54-.023.015-.031.137 0 .106z"/></svg>