<svg xmlns="http://www.w3.org/2000/svg" width="692" height="648" fill="none" viewBox="0 0 692 648"><rect width="689.333" height="645.333" x="1.333" y="1.5" fill="#EDEFF1" fill-opacity=".24" rx="15.333"/><rect width="689.333" height="645.333" x="1.333" y="1.5" stroke="url(#a)" stroke-width="1.333" rx="15.333"/><path fill="#fff" d="M607.308 234.967H95.854a5.333 5.333 0 0 0-5.333 5.333v336.813a5.334 5.334 0 0 0 5.333 5.334h511.454a5.334 5.334 0 0 0 5.333-5.334V240.3a5.333 5.333 0 0 0-5.333-5.333"/><path fill="#D5EBF9" d="M612.641 207.82H90.521v84.2h522.12z"/><path fill="#667A86" d="M226.401 266.233c-.654.614-1.627.907-2.934.907h-2.333v4.947h-1.16V260.5h3.493c1.294 0 2.267.307 2.934.907.666.6.986 1.413.986 2.426s-.32 1.8-.973 2.4zm-.214-2.413c0-.773-.213-1.36-.653-1.76-.427-.4-1.12-.6-2.067-.6h-2.333v4.68h2.333q2.72 0 2.72-2.32M229.347 265.087a3.96 3.96 0 0 1 1.546-1.627c.654-.386 1.4-.573 2.227-.573s1.6.2 2.227.6 1.08.907 1.346 1.52v-1.987h1.16v9.054h-1.16v-2a3.7 3.7 0 0 1-1.373 1.533c-.627.4-1.373.6-2.227.6s-1.56-.2-2.213-.587a4.1 4.1 0 0 1-1.547-1.64c-.373-.706-.56-1.52-.56-2.453q0-1.4.56-2.44zm6.906.547a3.2 3.2 0 0 0-1.213-1.28 3.4 3.4 0 0 0-1.707-.454 3.54 3.54 0 0 0-1.72.427 3.1 3.1 0 0 0-1.2 1.253c-.293.547-.44 1.2-.44 1.947s.147 1.387.44 1.947q.441.84 1.2 1.28.76.44 1.72.44c.64 0 1.187-.147 1.707-.454a3.1 3.1 0 0 0 1.213-1.28c.294-.546.454-1.2.454-1.92s-.147-1.373-.454-1.92zM240.493 261.073a.86.86 0 0 1-.253-.613c0-.24.08-.44.253-.6q.24-.24.6-.24c.24 0 .427.08.6.24.16.16.253.36.253.6s-.08.453-.253.613a.83.83 0 0 1-.6.254.8.8 0 0 1-.6-.254m1.187 1.96v9.054h-1.16v-9.054zM244.347 265.087a4.04 4.04 0 0 1 1.546-1.627c.654-.387 1.4-.573 2.227-.573s1.52.2 2.16.586c.64.387 1.107.894 1.413 1.507v-5.173h1.16v12.266h-1.16v-2.026c-.28.626-.733 1.146-1.36 1.546-.626.4-1.373.6-2.226.6-.854 0-1.574-.2-2.227-.586a4.1 4.1 0 0 1-1.547-1.64c-.373-.707-.56-1.52-.56-2.454q0-1.4.56-2.44zm6.893.546a3.2 3.2 0 0 0-1.213-1.28 3.4 3.4 0 0 0-1.707-.453c-.627 0-1.213.147-1.72.427a3.1 3.1 0 0 0-1.2 1.253c-.293.547-.44 1.2-.44 1.947 0 .746.147 1.386.44 1.946q.44.84 1.2 1.28t1.72.44c.64 0 1.187-.146 1.707-.453.506-.293.92-.72 1.213-1.28.293-.547.453-1.2.453-1.92s-.146-1.373-.453-1.92zM261.212 271.14h4.16v.947h-5.32V260.5h1.16v10.653zM275.186 268.007h-7.506c.026.68.2 1.266.493 1.76.293.493.693.853 1.173 1.106a3.35 3.35 0 0 0 1.587.374c.747 0 1.387-.187 1.893-.547.507-.36.854-.853 1.014-1.48h1.226c-.226.88-.693 1.6-1.413 2.16s-1.64.84-2.733.84c-.854 0-1.614-.187-2.294-.573-.68-.387-1.2-.92-1.586-1.627s-.574-1.52-.574-2.467c0-.946.187-1.76.56-2.466a3.94 3.94 0 0 1 1.574-1.627c.68-.373 1.44-.56 2.306-.56s1.614.187 2.267.56 1.147.88 1.493 1.52q.52.96.52 2.12c0 .4 0 .707-.04.907zm-1.546-2.68c-.28-.48-.667-.84-1.147-1.08a3.55 3.55 0 0 0-1.587-.36c-.866 0-1.6.28-2.2.826-.613.56-.946 1.334-1.013 2.334h6.373c0-.68-.12-1.254-.4-1.72zM277.373 265.087a3.96 3.96 0 0 1 1.546-1.627c.654-.387 1.4-.573 2.227-.573s1.6.2 2.227.6 1.08.906 1.346 1.52v-1.987h1.16v9.053h-1.16v-2a3.7 3.7 0 0 1-1.373 1.534c-.627.4-1.373.6-2.227.6s-1.56-.2-2.213-.587a4.1 4.1 0 0 1-1.547-1.64c-.373-.707-.56-1.52-.56-2.453q0-1.4.56-2.44zm6.906.546a3.2 3.2 0 0 0-1.213-1.28 3.4 3.4 0 0 0-1.707-.453 3.54 3.54 0 0 0-1.72.427 3.1 3.1 0 0 0-1.2 1.253c-.293.547-.44 1.2-.44 1.947 0 .746.147 1.386.44 1.946q.441.84 1.2 1.28.76.44 1.72.44c.64 0 1.187-.146 1.707-.453a3.1 3.1 0 0 0 1.213-1.28c.294-.547.454-1.2.454-1.92s-.147-1.373-.454-1.92zM291.759 270.953l3.053-7.933h1.227l-3.627 9.053h-1.306l-3.627-9.053h1.24l3.053 7.933zM305.772 268.006h-7.506c.026.68.2 1.267.493 1.76s.693.854 1.173 1.107a3.36 3.36 0 0 0 1.587.373c.747 0 1.387-.186 1.893-.546.507-.36.854-.854 1.014-1.48h1.226c-.226.88-.693 1.6-1.413 2.16s-1.64.84-2.733.84c-.854 0-1.614-.187-2.294-.574s-1.2-.92-1.586-1.626c-.387-.707-.574-1.52-.574-2.467s.187-1.76.56-2.467a3.94 3.94 0 0 1 1.574-1.626c.68-.374 1.44-.56 2.306-.56s1.614.186 2.267.56c.653.373 1.147.88 1.493 1.52q.52.96.52 2.12c0 .4 0 .706-.04.906zm-1.56-2.68c-.28-.48-.666-.84-1.146-1.08a3.56 3.56 0 0 0-1.587-.36c-.867 0-1.6.28-2.2.827-.613.56-.947 1.333-1.013 2.333h6.373c0-.68-.12-1.253-.4-1.72zM308.492 271.487c-.653-.48-1.027-1.134-1.107-1.96h1.2q.081.76.72 1.24c.427.32 1 .466 1.72.466q.94 0 1.48-.44c.36-.293.534-.666.534-1.106 0-.307-.094-.56-.294-.76s-.453-.36-.76-.467c-.306-.12-.72-.24-1.24-.373a12 12 0 0 1-1.64-.534 2.7 2.7 0 0 1-1.066-.786q-.44-.52-.44-1.4c0-.44.133-.854.4-1.227.266-.373.64-.68 1.133-.893.48-.227 1.04-.334 1.653-.334.974 0 1.76.24 2.36.734.6.493.92 1.173.96 2.026h-1.16c-.026-.533-.24-.96-.626-1.28-.387-.32-.907-.493-1.56-.493-.587 0-1.067.133-1.427.413s-.547.614-.547 1.027c0 .36.107.64.32.867s.48.4.8.533c.32.12.747.267 1.294.427q.98.26 1.56.52c.386.173.72.413 1 .733s.426.747.426 1.28c0 .493-.133.92-.4 1.307-.266.386-.64.68-1.106.906-.467.227-1.027.334-1.64.334-1.04 0-1.894-.24-2.547-.72zM130.559 271.927h-1.16l-6.413-9.747v9.747h-1.16V260.34h1.16l6.413 9.733v-9.733h1.16zM133.227 264.94c.373-.707.88-1.24 1.547-1.627.653-.386 1.4-.573 2.226-.573s1.6.2 2.227.6 1.08.907 1.347 1.52v-1.987h1.16v9.054h-1.16v-2a3.7 3.7 0 0 1-1.374 1.533c-.626.4-1.373.6-2.226.6-.854 0-1.56-.2-2.214-.587a4.07 4.07 0 0 1-1.546-1.64c-.374-.706-.56-1.52-.56-2.453q0-1.4.56-2.44zm6.907.533a3.2 3.2 0 0 0-1.214-1.28 3.4 3.4 0 0 0-1.706-.453c-.627 0-1.214.147-1.72.427a3.1 3.1 0 0 0-1.2 1.253c-.294.547-.44 1.2-.44 1.947 0 .746.146 1.386.44 1.946q.44.84 1.2 1.28t1.72.44c.64 0 1.186-.146 1.706-.453.507-.293.92-.72 1.214-1.28.293-.547.453-1.2.453-1.92s-.147-1.373-.453-1.92zM157.772 263.713c.667.667 1 1.64 1 2.907v5.307h-1.147v-5.174c0-.986-.24-1.733-.72-2.253s-1.12-.773-1.946-.773c-.827 0-1.534.28-2.04.84-.507.56-.76 1.386-.76 2.453v4.907h-1.147v-5.174c0-.986-.24-1.733-.707-2.253s-1.133-.773-1.96-.773c-.826 0-1.533.28-2.04.84-.506.56-.76 1.386-.76 2.453v4.907h-1.16v-9.054h1.16v1.56c.294-.56.694-.986 1.227-1.28a3.6 3.6 0 0 1 1.773-.44c.787 0 1.467.187 2.067.56.587.374 1.027.934 1.28 1.654.24-.72.667-1.267 1.253-1.654.587-.386 1.267-.573 2.014-.573 1.066 0 1.92.333 2.6 1zM169.493 267.847h-7.506c.026.68.2 1.266.493 1.76.293.493.693.853 1.173 1.106a3.35 3.35 0 0 0 1.587.374c.747 0 1.387-.187 1.893-.547.507-.36.854-.853 1.014-1.48h1.226c-.226.88-.693 1.6-1.413 2.16s-1.64.84-2.733.84c-.854 0-1.614-.187-2.294-.573-.68-.387-1.2-.92-1.586-1.627s-.574-1.52-.574-2.467c0-.946.187-1.76.56-2.466a3.94 3.94 0 0 1 1.574-1.627c.68-.373 1.44-.56 2.306-.56s1.614.187 2.267.56 1.147.88 1.493 1.52q.52.96.52 2.12c0 .4 0 .707-.04.907zm-1.546-2.667c-.28-.48-.667-.84-1.147-1.08a3.55 3.55 0 0 0-1.587-.36c-.866 0-1.6.28-2.2.827-.613.56-.946 1.333-1.013 2.333h6.373c0-.68-.12-1.253-.4-1.72zM373.121 271.58a5.4 5.4 0 0 1-2.067-2.107c-.506-.906-.76-1.92-.76-3.053s.254-2.16.76-3.053a5.4 5.4 0 0 1 2.067-2.107q1.3-.76 2.92-.76c1.08 0 2.067.253 2.933.76.88.507 1.56 1.2 2.054 2.107.493.906.746 1.92.746 3.053s-.253 2.16-.746 3.053a5.47 5.47 0 0 1-2.054 2.107c-.866.507-1.853.76-2.933.76s-2.04-.253-2.92-.76m5.24-.853c.68-.4 1.227-.974 1.627-1.72q.6-1.12.6-2.6c0-.987-.2-1.84-.6-2.587-.4-.733-.934-1.307-1.627-1.707q-1.02-.6-2.32-.6t-2.32.6c-.68.4-1.227.974-1.627 1.707-.4.747-.6 1.6-.6 2.587q0 1.48.6 2.6c.4.746.934 1.32 1.627 1.72q1.02.6 2.32.6t2.32-.6M387.118 271.087l3.054-7.934h1.226l-3.626 9.054h-1.307l-3.627-9.054h1.24l3.054 7.934zM401.134 268.14h-7.507c.027.68.2 1.267.494 1.76.293.493.693.853 1.173 1.107.48.253 1.013.373 1.587.373.746 0 1.386-.187 1.893-.547s.853-.853 1.013-1.48h1.227c-.227.88-.693 1.6-1.413 2.16s-1.64.84-2.734.84c-.853 0-1.613-.186-2.293-.573s-1.2-.92-1.587-1.627c-.386-.706-.573-1.52-.573-2.466s.187-1.76.56-2.467a3.94 3.94 0 0 1 1.573-1.627c.68-.373 1.44-.56 2.307-.56s1.613.187 2.267.56 1.146.88 1.493 1.52q.52.96.52 2.12c0 .4 0 .707-.04.907zm-1.547-2.68c-.28-.48-.666-.84-1.146-1.08a3.56 3.56 0 0 0-1.587-.36c-.867 0-1.6.28-2.2.827-.613.56-.947 1.333-1.013 2.333h6.373c0-.68-.12-1.253-.4-1.72zM405.612 263.46c.52-.307 1.173-.467 1.933-.467v1.214h-.319c-.84 0-1.521.226-2.027.68-.507.453-.76 1.213-.76 2.266v5.054h-1.16v-9.054h1.16v1.614c.253-.56.64-1 1.173-1.307M414.92 265.58v.973h-6.454v-.973zM419.414 264.14v5.627c0 .56.107.933.32 1.146.213.214.587.32 1.107.32h1.066v1h-1.24c-.813 0-1.426-.186-1.826-.573q-.6-.58-.6-1.88v-5.627h-1.267v-.973h1.267v-2.267h1.173v2.267h2.493v.973h-2.493zM423.787 261.207a.86.86 0 0 1-.253-.614c0-.24.08-.44.253-.6q.24-.24.6-.24c.24 0 .427.08.6.24.16.16.253.36.253.6s-.08.454-.253.614a.83.83 0 0 1-.6.253.8.8 0 0 1-.6-.253m1.173 1.946v9.054h-1.16v-9.054zM440.973 263.993c.666.667 1 1.64 1 2.907v5.307h-1.147v-5.174c0-.986-.24-1.733-.72-2.253s-1.12-.773-1.947-.773c-.826 0-1.533.28-2.04.84-.506.56-.76 1.386-.76 2.453v4.907h-1.146v-5.174c0-.986-.24-1.733-.707-2.253s-1.133-.773-1.96-.773-1.533.28-2.04.84-.76 1.386-.76 2.453v4.907h-1.16v-9.054h1.16v1.56c.293-.56.693-.986 1.227-1.28a3.6 3.6 0 0 1 1.773-.44c.787 0 1.467.187 2.067.56.586.374 1.026.934 1.28 1.654.24-.72.666-1.267 1.253-1.654.587-.386 1.267-.573 2.013-.573 1.067 0 1.92.333 2.6 1zM452.707 268.14H445.2c.027.68.2 1.267.493 1.76.294.493.694.853 1.174 1.107.48.253 1.013.373 1.586.373.747 0 1.387-.187 1.894-.547s.853-.853 1.013-1.48h1.227c-.227.88-.693 1.6-1.413 2.16s-1.641.84-2.734.84c-.853 0-1.613-.186-2.293-.573s-1.2-.92-1.587-1.627c-.386-.706-.573-1.52-.573-2.466s.187-1.76.56-2.467a3.94 3.94 0 0 1 1.573-1.627c.68-.373 1.44-.56 2.307-.56s1.613.187 2.266.56a3.8 3.8 0 0 1 1.494 1.52q.52.96.52 2.12c0 .4 0 .707-.04.907zm-1.547-2.68c-.28-.48-.666-.84-1.146-1.08a3.56 3.56 0 0 0-1.587-.36c-.867 0-1.6.28-2.2.827-.613.56-.947 1.333-1.013 2.333h6.373c0-.68-.12-1.253-.4-1.72zM517.747 266.073c-.653.614-1.627.907-2.933.907h-2.334v4.947h-1.16V260.34h3.494c1.293 0 2.266.307 2.933.907s.987 1.413.987 2.426-.32 1.8-.974 2.4zm-.213-2.4c0-.773-.214-1.36-.654-1.76-.426-.4-1.12-.6-2.066-.6h-2.334v4.68h2.334q2.72 0 2.72-2.32M528.827 267.847h-7.507c.027.68.2 1.266.494 1.76.293.493.693.853 1.173 1.106s1.013.374 1.587.374c.746 0 1.386-.187 1.893-.547s.853-.853 1.013-1.48h1.227c-.227.88-.693 1.6-1.413 2.16s-1.64.84-2.734.84c-.853 0-1.613-.187-2.293-.573-.68-.387-1.2-.92-1.587-1.627-.386-.707-.573-1.52-.573-2.467 0-.946.187-1.76.56-2.466a3.94 3.94 0 0 1 1.573-1.627c.68-.373 1.44-.56 2.307-.56s1.613.187 2.267.56 1.146.88 1.493 1.52q.52.96.52 2.12c0 .4 0 .707-.04.907zm-1.56-2.667c-.28-.48-.667-.84-1.147-1.08a3.55 3.55 0 0 0-1.586-.36c-.867 0-1.6.28-2.2.827-.614.56-.947 1.333-1.014 2.333h6.374c0-.68-.12-1.253-.4-1.72zM537.88 263.713c.68.667 1.027 1.64 1.027 2.907v5.307h-1.147v-5.174c0-.986-.24-1.733-.733-2.253-.494-.52-1.16-.773-2.013-.773-.854 0-1.574.28-2.094.826-.52.56-.773 1.36-.773 2.44v4.947h-1.16v-9.053h1.16v1.546a3.07 3.07 0 0 1 1.24-1.266c.533-.294 1.16-.44 1.84-.44 1.08 0 1.973.333 2.653 1zM541.505 264.94c.374-.707.88-1.24 1.547-1.627.653-.386 1.4-.573 2.227-.573.826 0 1.6.2 2.226.6.627.4 1.08.907 1.347 1.52v-1.987h1.16v9.054h-1.16v-2a3.7 3.7 0 0 1-1.373 1.533c-.627.4-1.374.6-2.227.6s-1.56-.2-2.213-.587a4.07 4.07 0 0 1-1.547-1.64c-.373-.706-.56-1.52-.56-2.453q0-1.4.56-2.44zm6.907.533a3.2 3.2 0 0 0-1.213-1.28 3.4 3.4 0 0 0-1.707-.453c-.627 0-1.213.147-1.72.427a3.1 3.1 0 0 0-1.2 1.253c-.293.547-.44 1.2-.44 1.947 0 .746.147 1.386.44 1.946q.44.84 1.2 1.28t1.72.44c.64 0 1.187-.146 1.707-.453.506-.293.92-.72 1.213-1.28.293-.547.453-1.2.453-1.92s-.146-1.373-.453-1.92zM553.826 259.66v12.267h-1.159V259.66zM557.974 263.847v5.626c0 .56.106.934.32 1.147.213.213.586.32 1.106.32h1.067v1h-1.24c-.813 0-1.427-.187-1.827-.573q-.6-.58-.6-1.88v-5.627h-1.266v-.973h1.266v-2.267h1.174v2.267h2.493v.973h-2.493zM562.36 260.913a.86.86 0 0 1-.253-.613c0-.24.08-.44.253-.6q.24-.24.6-.24c.24 0 .427.08.6.24.16.16.254.36.254.6s-.08.453-.254.613a.83.83 0 0 1-.6.254.8.8 0 0 1-.6-.254m1.174 1.96v9.054h-1.16v-9.054zM574.332 267.847h-7.507c.027.68.2 1.266.493 1.76.294.493.694.853 1.174 1.106s1.013.374 1.586.374c.747 0 1.387-.187 1.894-.547s.853-.853 1.013-1.48h1.227c-.227.88-.693 1.6-1.413 2.16s-1.641.84-2.734.84c-.853 0-1.613-.187-2.293-.573-.68-.387-1.2-.92-1.587-1.627-.386-.707-.573-1.52-.573-2.467 0-.946.187-1.76.56-2.466a3.93 3.93 0 0 1 1.573-1.627c.68-.373 1.44-.56 2.307-.56s1.613.187 2.266.56c.654.373 1.147.88 1.494 1.52q.52.96.52 2.12c0 .4 0 .707-.04.907zm-1.56-2.667c-.28-.48-.667-.84-1.147-1.08a3.55 3.55 0 0 0-1.587-.36c-.866 0-1.599.28-2.199.827-.614.56-.947 1.333-1.014 2.333h6.373c0-.68-.119-1.253-.399-1.72zM577.052 271.34c-.653-.48-1.027-1.133-1.107-1.96h1.2q.081.76.72 1.24c.427.32 1 .467 1.72.467q.94 0 1.48-.44c.36-.294.534-.667.534-1.107 0-.307-.094-.56-.294-.76s-.453-.36-.76-.467c-.306-.12-.72-.24-1.24-.373-.68-.173-1.226-.36-1.64-.533a2.7 2.7 0 0 1-1.066-.787q-.44-.52-.44-1.4c0-.44.133-.853.4-1.227.266-.373.64-.68 1.133-.893.48-.227 1.04-.333 1.653-.333.974 0 1.76.24 2.36.733s.92 1.173.96 2.027h-1.16c-.026-.534-.24-.96-.626-1.28-.387-.32-.907-.494-1.56-.494-.587 0-1.067.134-1.427.414s-.547.613-.547 1.026c0 .36.107.64.32.867s.48.4.8.533c.32.12.747.267 1.294.427q.98.26 1.56.52c.386.173.72.413 1 .733s.426.747.426 1.28c0 .494-.133.92-.4 1.307-.266.387-.64.68-1.106.907s-1.027.333-1.64.333c-1.04 0-1.894-.24-2.547-.72z"/><path fill="#000" d="M134.64 346.193h-1.56l-6.293-9.533v9.533h-1.56v-12h1.56l6.293 9.52v-9.52h1.56zM145.854 342.073h-7.533c.053.934.373 1.654.947 2.174.573.52 1.28.786 2.106.786.68 0 1.24-.16 1.694-.466.453-.32.773-.734.96-1.267h1.68a4.12 4.12 0 0 1-1.507 2.213c-.76.574-1.693.854-2.813.854q-1.341 0-2.4-.6c-.707-.4-1.254-.974-1.654-1.707s-.6-1.6-.6-2.573c0-.974.2-1.827.587-2.56a4.1 4.1 0 0 1 1.64-1.694c.707-.4 1.52-.586 2.427-.586.906 0 1.68.2 2.373.586a3.94 3.94 0 0 1 1.587 1.614c.373.68.56 1.453.56 2.306 0 .294-.014.614-.054.947zm-1.96-2.813a2.53 2.53 0 0 0-1.08-.973c-.453-.227-.946-.334-1.506-.334-.787 0-1.467.254-2.014.76-.56.507-.88 1.2-.96 2.094h5.947c0-.6-.133-1.107-.4-1.534zM154.561 337.06c.573.307 1.027.76 1.347 1.36.333.613.493 1.347.493 2.213v5.547h-1.547v-5.333c0-.947-.24-1.654-.706-2.16-.467-.494-1.107-.747-1.92-.747-.814 0-1.48.253-1.974.773-.493.52-.733 1.267-.733 2.254v5.213h-1.56v-12.72h1.56v4.64q.46-.72 1.28-1.12c.547-.267 1.16-.4 1.827-.4.706 0 1.346.147 1.92.453zM158.959 338.913a4.1 4.1 0 0 1 1.613-1.693q1.02-.6 2.28-.6c.84 0 1.547.173 2.147.533.613.36 1.053.8 1.36 1.334v-1.72h1.586v9.413h-1.586v-1.747c-.307.547-.774 1-1.387 1.36s-1.32.547-2.133.547a4.44 4.44 0 0 1-2.267-.613 4.3 4.3 0 0 1-1.6-1.734c-.387-.746-.587-1.586-.587-2.546s.2-1.814.587-2.534zm6.96.694a2.9 2.9 0 0 0-1.16-1.214 3.2 3.2 0 0 0-1.614-.426c-.586 0-1.12.133-1.6.413s-.866.68-1.146 1.2-.427 1.147-.427 1.853c0 .707.147 1.347.427 1.88a3 3 0 0 0 1.146 1.227c.48.28 1.014.427 1.6.427a3.2 3.2 0 0 0 1.614-.427c.493-.28.88-.693 1.16-1.227.28-.533.426-1.16.426-1.866s-.146-1.334-.426-1.854zM263.213 334.887c.733-.6 1.68-.894 2.853-.894.773 0 1.453.147 2.013.427s1 .667 1.293 1.147a3.06 3.06 0 0 1 .441 1.626c0 .707-.201 1.32-.614 1.84a2.72 2.72 0 0 1-1.586 1v.08c.746.187 1.333.547 1.773 1.08.44.534.653 1.24.653 2.107q0 .98-.44 1.76c-.293.52-.746.933-1.346 1.227-.6.293-1.307.44-2.147.44-1.213 0-2.214-.32-2.987-.96s-1.213-1.534-1.307-2.707h1.507q.12 1.04.84 1.68c.48.44 1.12.653 1.92.653s1.413-.213 1.827-.626.626-.96.626-1.627c0-.853-.28-1.48-.853-1.853q-.86-.56-2.6-.56h-.4v-1.307h.414c1.053 0 1.853-.187 2.386-.52s.814-.867.814-1.573c0-.614-.2-1.094-.6-1.467s-.961-.547-1.694-.547-1.28.187-1.72.547-.693.853-.773 1.48h-1.534c.08-1.053.494-1.88 1.227-2.48zM266.199 401.82c-1.013 0-1.787.387-2.28 1.173-.507.787-.747 2.08-.733 3.88q.399-.9 1.32-1.4a4.2 4.2 0 0 1 2.053-.506c1.173 0 2.12.373 2.827 1.106s1.053 1.747 1.053 3.04c0 .774-.147 1.48-.453 2.094a3.6 3.6 0 0 1-1.374 1.48c-.613.373-1.36.546-2.226.546-1.174 0-2.107-.266-2.774-.786s-1.133-1.254-1.386-2.187c-.254-.933-.4-2.067-.4-3.44 0-4.2 1.466-6.307 4.4-6.307 1.12 0 2 .307 2.653.907.64.613 1.013 1.373 1.133 2.307h-1.44c-.253-1.267-1.04-1.907-2.36-1.907zm-1.373 4.773c-.44.2-.787.507-1.054.907-.266.4-.4.907-.4 1.48q0 1.3.76 2.12c.507.547 1.227.813 2.16.813.8 0 1.44-.253 1.92-.746.48-.494.707-1.174.707-2.014 0-.893-.227-1.6-.693-2.106-.454-.507-1.134-.76-2.014-.76-.493 0-.96.106-1.386.306M269.613 469.14h-6.027v3.92c.267-.373.654-.667 1.174-.907a3.9 3.9 0 0 1 1.666-.346c.947 0 1.72.2 2.32.586.6.4 1.027.907 1.28 1.534.254.626.387 1.28.387 1.986 0 .827-.16 1.56-.467 2.214a3.5 3.5 0 0 1-1.413 1.546q-.96.56-2.36.56c-1.2 0-2.173-.306-2.92-.933s-1.2-1.44-1.36-2.48h1.533c.147.653.467 1.16.947 1.533.48.36 1.093.547 1.827.547.906 0 1.586-.267 2.04-.813.453-.547.693-1.267.693-2.16s-.227-1.587-.693-2.067c-.454-.48-1.134-.733-2.027-.733-.613 0-1.133.146-1.587.44a2.5 2.5 0 0 0-.986 1.2h-1.48v-7.014h7.48v1.374zM263.507 547.273a13.6 13.6 0 0 0 2.093-2.36c.574-.813.854-1.626.854-2.413 0-.747-.174-1.333-.547-1.76-.36-.427-.947-.64-1.747-.64s-1.386.24-1.813.733c-.427.494-.667 1.134-.693 1.947h-1.507c.04-1.28.44-2.28 1.173-2.973s1.68-1.054 2.84-1.054 2.12.334 2.814.974c.693.653 1.04 1.56 1.04 2.693 0 .947-.28 1.88-.854 2.773-.573.894-1.213 1.694-1.933 2.374s-1.64 1.48-2.773 2.386h5.906v1.307h-8.266v-1.12c1.453-1.173 2.6-2.133 3.426-2.88zM392.52 335.233c.64-1.106 1.76-1.653 3.373-1.653s2.707.56 3.347 1.653c.64 1.094.96 2.64.96 4.614s-.32 3.56-.96 4.68c-.64 1.106-1.76 1.666-3.347 1.666s-2.72-.56-3.373-1.666q-.96-1.66-.96-4.68c0-2.014.32-3.507.96-4.614m5.933 2.08c-.133-.693-.4-1.253-.813-1.68-.4-.426-1-.64-1.76-.64s-1.373.214-1.773.64-.68.987-.814 1.68c-.133.694-.2 1.534-.2 2.534s.067 1.893.2 2.6c.134.706.4 1.266.814 1.68.4.426 1 .64 1.773.64q1.16 0 1.76-.64c.4-.427.68-.987.813-1.68q.2-1.04.2-2.6c0-1.04-.066-1.84-.2-2.534M402.346 345.993a1.06 1.06 0 0 1-.307-.76c0-.306.107-.546.307-.76.213-.2.453-.306.76-.306.306 0 .533.106.733.306.2.214.307.454.307.76 0 .307-.107.547-.307.76-.2.2-.44.307-.733.307-.294 0-.547-.107-.76-.307M413.879 335.127h-6.027v3.92c.267-.374.653-.667 1.173-.907a3.9 3.9 0 0 1 1.667-.347c.947 0 1.72.2 2.32.587.6.4 1.027.907 1.28 1.533a5.2 5.2 0 0 1 .387 1.987c0 .827-.16 1.56-.467 2.213a3.52 3.52 0 0 1-1.413 1.547q-.96.56-2.36.56c-1.2 0-2.174-.307-2.92-.933-.747-.627-1.2-1.44-1.36-2.48h1.533c.147.653.467 1.16.947 1.533.48.36 1.093.547 1.826.547.907 0 1.587-.267 2.04-.814s.694-1.266.694-2.16c0-.893-.227-1.586-.694-2.066-.453-.48-1.133-.734-2.026-.734-.614 0-1.134.147-1.587.44a2.5 2.5 0 0 0-.987 1.2h-1.48v-7.013h7.48v1.373zM423.6 337.06c.573.307 1.027.76 1.347 1.36.333.613.493 1.347.493 2.213v5.547h-1.547v-5.333c0-.947-.24-1.654-.706-2.16-.467-.494-1.107-.747-1.92-.747-.814 0-1.48.253-1.974.773-.493.52-.733 1.267-.733 2.254v5.213H417v-12.72h1.56v4.64q.46-.72 1.28-1.12c.547-.267 1.16-.4 1.827-.4.706 0 1.346.147 1.92.453zM430.747 337.047c.506-.294 1.133-.454 1.866-.454v1.614h-.413c-1.76 0-2.627.946-2.627 2.853v5.12h-1.56v-9.413h1.56v1.533c.28-.533.667-.96 1.174-1.253M400.987 401.74v-1.427h3.227v12.427h-1.587v-11h-1.653zM413.759 403.607c.573.306 1.026.76 1.346 1.36.334.613.494 1.346.494 2.213v5.547h-1.547v-5.334c0-.946-.24-1.653-.707-2.16-.466-.493-1.106-.746-1.92-.746s-1.48.253-1.973.773-.733 1.267-.733 2.253v5.214h-1.56v-12.72h1.56v4.64q.46-.72 1.28-1.12c.546-.267 1.16-.4 1.826-.4.707 0 1.347.146 1.92.453zM420.892 403.593c.507-.293 1.133-.453 1.867-.453v1.613h-.414c-1.76 0-2.626.947-2.626 2.854v5.12h-1.56v-9.414h1.56v1.534c.28-.534.666-.96 1.173-1.254M395.239 475.607a13.7 13.7 0 0 0 2.093-2.36c.574-.814.854-1.627.854-2.414 0-.746-.174-1.333-.547-1.76-.36-.426-.947-.64-1.747-.64s-1.386.24-1.813.734c-.427.493-.667 1.133-.693 1.946h-1.507c.04-1.28.44-2.28 1.173-2.973s1.68-1.053 2.84-1.053 2.12.333 2.814.973c.693.653 1.04 1.56 1.04 2.693 0 .947-.28 1.88-.854 2.774-.573.893-1.213 1.693-1.933 2.373s-1.64 1.48-2.773 2.387h5.906v1.306h-8.266v-1.12c1.453-1.173 2.6-2.133 3.426-2.88zM401.893 479.54a1.06 1.06 0 0 1-.307-.76c0-.307.107-.547.307-.76.213-.2.453-.307.76-.307.306 0 .533.107.733.307.2.213.307.453.307.76s-.107.547-.307.76c-.2.2-.44.307-.733.307-.294 0-.547-.107-.76-.307M413.426 468.673h-6.027v3.92c.267-.373.653-.666 1.173-.906a3.9 3.9 0 0 1 1.667-.347c.947 0 1.72.2 2.32.587.6.4 1.027.906 1.28 1.533a5.2 5.2 0 0 1 .387 1.987c0 .826-.16 1.56-.467 2.213a3.53 3.53 0 0 1-1.413 1.547q-.96.56-2.36.56c-1.2 0-2.174-.307-2.92-.934-.747-.626-1.2-1.44-1.36-2.48h1.533c.147.654.467 1.16.947 1.534.48.36 1.093.546 1.826.546.907 0 1.587-.266 2.04-.813s.694-1.267.694-2.16-.227-1.587-.694-2.067c-.453-.48-1.133-.733-2.026-.733-.614 0-1.134.147-1.587.44a2.5 2.5 0 0 0-.987 1.2h-1.48v-7.013h7.48v1.373zM423.147 470.607a3.23 3.23 0 0 1 1.347 1.36c.333.613.493 1.346.493 2.213v5.547h-1.547v-5.334c0-.946-.24-1.653-.706-2.16-.467-.493-1.107-.746-1.92-.746-.814 0-1.48.253-1.974.773-.493.52-.733 1.267-.733 2.253v5.214h-1.56v-12.72h1.56v4.64a3.1 3.1 0 0 1 1.28-1.12c.547-.267 1.16-.4 1.827-.4.706 0 1.346.146 1.92.453zM430.293 470.593c.507-.293 1.134-.453 1.867-.453v1.613h-.413c-1.76 0-2.627.947-2.627 2.854v5.12h-1.56v-9.414h1.56v1.534c.28-.534.667-.96 1.173-1.254M393.787 539.94v-1.427h3.226v12.427h-1.586v-11h-1.654zM399.708 550.74a1.06 1.06 0 0 1-.307-.76c0-.306.107-.546.307-.76.213-.2.453-.306.76-.306.306 0 .533.106.733.306.2.214.307.454.307.76 0 .307-.107.547-.307.76-.2.2-.44.307-.733.307-.294 0-.547-.107-.76-.307M411.241 539.873h-6.027v3.92c.267-.373.654-.666 1.174-.906a3.9 3.9 0 0 1 1.666-.347c.947 0 1.72.2 2.32.587.6.4 1.027.906 1.28 1.533s.387 1.28.387 1.987c0 .826-.16 1.56-.467 2.213a3.52 3.52 0 0 1-1.413 1.547q-.96.56-2.36.56c-1.2 0-2.173-.307-2.92-.934-.747-.626-1.2-1.439-1.36-2.479h1.533c.147.653.467 1.159.947 1.533.48.36 1.093.547 1.827.547.906 0 1.586-.267 2.04-.814s.693-1.267.693-2.16-.227-1.586-.693-2.066c-.454-.48-1.134-.734-2.027-.734-.613 0-1.133.147-1.587.44a2.5 2.5 0 0 0-.986 1.2h-1.48v-7.013h7.48v1.373zM420.959 541.807c.574.306 1.027.76 1.347 1.36.333.613.493 1.346.493 2.213v5.547h-1.546v-5.334c0-.946-.24-1.653-.707-2.16-.467-.493-1.107-.746-1.92-.746s-1.48.253-1.973.773-.734 1.267-.734 2.253v5.214h-1.56v-12.72h1.56v4.64q.46-.72 1.28-1.12c.547-.267 1.16-.4 1.827-.4.707 0 1.347.146 1.92.453zM428.106 541.793c.507-.293 1.133-.453 1.867-.453v1.613h-.414c-1.76 0-2.626.947-2.626 2.854v5.12h-1.56v-9.414h1.56v1.534c.28-.534.666-.96 1.173-1.254M536.986 334.967c.733-.6 1.68-.894 2.853-.894.774 0 1.454.147 2.014.427s1 .667 1.293 1.147.44 1.026.44 1.626c0 .707-.2 1.32-.613 1.84-.414.52-.934.854-1.587 1v.08c.747.187 1.333.547 1.773 1.08.44.534.654 1.24.654 2.107q0 .98-.44 1.76c-.294.52-.747.933-1.347 1.227-.6.293-1.307.44-2.147.44-1.213 0-2.213-.32-2.986-.96s-1.214-1.534-1.307-2.707h1.507q.12 1.04.84 1.68c.48.44 1.12.653 1.92.653s1.413-.213 1.826-.626.627-.96.627-1.627c0-.853-.28-1.48-.853-1.853q-.86-.56-2.6-.56h-.4V339.5h.413c1.053 0 1.853-.187 2.387-.52.533-.333.813-.867.813-1.573 0-.614-.2-1.094-.6-1.467s-.96-.547-1.693-.547-1.28.187-1.72.547-.694.853-.774 1.48h-1.533c.08-1.053.493-1.88 1.227-2.48zM539.985 401.913c-1.013 0-1.787.387-2.28 1.173-.507.787-.746 2.08-.733 3.88q.4-.9 1.32-1.4a4.2 4.2 0 0 1 2.053-.506c1.174 0 2.12.373 2.827 1.106s1.053 1.747 1.053 3.04c0 .774-.147 1.48-.453 2.094a3.6 3.6 0 0 1-1.374 1.48c-.613.373-1.359.546-2.226.546-1.173 0-2.107-.266-2.774-.786s-1.133-1.254-1.386-2.187-.4-2.067-.4-3.44c0-4.2 1.467-6.307 4.4-6.307 1.12 0 2 .307 2.653.907.64.613 1.014 1.373 1.134 2.307h-1.441c-.253-1.267-1.04-1.907-2.36-1.907zm-1.386 4.76c-.44.2-.787.507-1.054.907s-.4.906-.4 1.48q0 1.3.76 2.12c.507.546 1.227.813 2.16.813.8 0 1.44-.253 1.92-.747.48-.493.707-1.173.707-2.013 0-.893-.227-1.6-.694-2.107-.453-.506-1.133-.76-2.013-.76-.493 0-.96.107-1.386.307M543.387 469.22h-6.027v3.92c.266-.373.653-.667 1.173-.907a3.9 3.9 0 0 1 1.667-.346c.946 0 1.72.2 2.32.587.6.4 1.027.906 1.28 1.533s.387 1.28.387 1.986c0 .827-.16 1.56-.467 2.214a3.53 3.53 0 0 1-1.413 1.546q-.96.56-2.361.56c-1.2 0-2.173-.306-2.92-.933-.746-.626-1.199-1.44-1.359-2.48h1.533c.146.653.466 1.16.946 1.534.48.36 1.094.546 1.827.546.907 0 1.587-.267 2.04-.813.454-.547.694-1.267.694-2.16s-.227-1.587-.694-2.067c-.453-.48-1.133-.733-2.027-.733-.613 0-1.133.146-1.586.44a2.5 2.5 0 0 0-.987 1.2h-1.48v-7.014h7.48v1.374zM533.666 540.527c.64-1.107 1.76-1.653 3.373-1.653s2.707.56 3.347 1.653.96 2.64.96 4.613-.32 3.56-.96 4.68c-.64 1.107-1.76 1.667-3.347 1.667s-2.72-.56-3.373-1.667q-.96-1.659-.96-4.68c0-2.013.32-3.506.96-4.613m5.946 2.08c-.133-.693-.4-1.253-.813-1.68-.4-.427-1-.64-1.76-.64s-1.373.213-1.773.64-.68.987-.814 1.68-.2 1.533-.2 2.533.067 1.894.2 2.6c.134.707.4 1.267.814 1.68.4.427 1 .64 1.773.64q1.16 0 1.76-.64c.4-.426.68-.986.813-1.68q.2-1.04.2-2.6c0-1.04-.066-1.84-.2-2.533M131.639 410.687h-5.226l-.96 2.666h-1.654l4.334-11.906h1.8l4.32 11.906h-1.654zm-.44-1.267-2.16-6.053-2.16 6.053h4.334zM144.253 403.94l-5.667 13.853h-1.613l1.853-4.533-3.8-9.32h1.733l2.96 7.627 2.92-7.627zM145.813 406.073a4.1 4.1 0 0 1 1.613-1.693q1.02-.6 2.28-.6c.84 0 1.547.173 2.147.533.613.36 1.053.8 1.36 1.334v-1.72h1.587v9.413h-1.587v-1.747c-.307.547-.773 1-1.387 1.36-.613.36-1.32.547-2.133.547a4.45 4.45 0 0 1-2.267-.613 4.3 4.3 0 0 1-1.6-1.734c-.386-.746-.586-1.586-.586-2.546s.2-1.814.586-2.534zm6.96.694a2.9 2.9 0 0 0-1.16-1.214 3.2 3.2 0 0 0-1.613-.426c-.587 0-1.12.133-1.6.413s-.867.68-1.147 1.2-.427 1.147-.427 1.853c0 .707.147 1.347.427 1.88.28.534.667.947 1.147 1.227s1.013.427 1.6.427c.586 0 1.12-.147 1.613-.427s.88-.693 1.16-1.227c.28-.533.427-1.16.427-1.866s-.147-1.334-.427-1.854zM157.441 406.073a4.1 4.1 0 0 1 1.613-1.693q1.02-.6 2.28-.6c.84 0 1.547.173 2.147.533.613.36 1.053.8 1.36 1.334v-1.72h1.586v9.413h-1.586v-1.747c-.307.547-.774 1-1.387 1.36s-1.32.547-2.133.547a4.44 4.44 0 0 1-2.267-.613 4.3 4.3 0 0 1-1.6-1.734c-.387-.746-.587-1.586-.587-2.546s.2-1.814.587-2.534zm6.96.694a2.9 2.9 0 0 0-1.16-1.214 3.2 3.2 0 0 0-1.614-.426c-.586 0-1.12.133-1.6.413s-.866.68-1.146 1.2-.427 1.147-.427 1.853c0 .707.147 1.347.427 1.88a3 3 0 0 0 1.146 1.227c.48.28 1.014.427 1.6.427a3.2 3.2 0 0 0 1.614-.427c.493-.28.88-.693 1.16-1.227.28-.533.426-1.16.426-1.866s-.146-1.334-.426-1.854zM176.426 404.807c.706.693 1.066 1.693 1.066 3v5.546h-1.546v-5.333c0-.947-.24-1.653-.707-2.16-.467-.493-1.107-.747-1.92-.747s-1.48.254-1.973.774-.734 1.266-.734 2.253v5.213h-1.56v-9.413h1.56v1.347c.307-.48.734-.854 1.267-1.12q.8-.4 1.76-.4c1.147 0 2.08.346 2.787 1.04M131.053 481.18l-4.933-5.467v5.467h-1.56v-11.973h1.56v5.546l4.947-5.546h1.973l-5.427 6 5.48 5.986h-2.04zM134.852 473.9a4.1 4.1 0 0 1 1.613-1.694q1.02-.6 2.28-.6c.84 0 1.547.174 2.147.534.613.36 1.053.8 1.36 1.333v-1.72h1.587v9.413h-1.587v-1.746c-.307.546-.773 1-1.387 1.36-.613.36-1.32.546-2.133.546a4.45 4.45 0 0 1-2.267-.613 4.3 4.3 0 0 1-1.6-1.733c-.386-.747-.586-1.587-.586-2.547s.2-1.813.586-2.533zm6.96.693a2.9 2.9 0 0 0-1.16-1.213 3.2 3.2 0 0 0-1.613-.427c-.587 0-1.12.133-1.6.413s-.867.68-1.147 1.2-.427 1.147-.427 1.854c0 .706.147 1.346.427 1.88s.667.946 1.147 1.226 1.013.427 1.6.427c.586 0 1.12-.147 1.613-.427a2.95 2.95 0 0 0 1.16-1.226c.28-.534.427-1.16.427-1.867s-.147-1.333-.427-1.853zM149.44 472.14c.613-.36 1.32-.533 2.106-.533q1.281 0 2.28.6c.667.4 1.214.96 1.6 1.693.387.72.587 1.573.587 2.533s-.2 1.8-.587 2.547a4.2 4.2 0 0 1-1.613 1.733c-.68.414-1.44.614-2.28.614s-1.533-.174-2.133-.534c-.614-.36-1.08-.813-1.387-1.36v1.734h-1.56v-12.72h1.56v5.053c.32-.56.787-1.013 1.413-1.373zm4.56 2.44a2.8 2.8 0 0 0-1.16-1.2 3.34 3.34 0 0 0-1.614-.413c-.586 0-1.106.146-1.586.426-.494.28-.88.694-1.174 1.227q-.44.8-.44 1.84c0 .693.147 1.333.44 1.867.294.533.68.946 1.174 1.226s1.013.427 1.586.427 1.12-.147 1.614-.427a2.95 2.95 0 0 0 1.16-1.226c.28-.534.426-1.16.426-1.88s-.146-1.334-.426-1.854zM158.145 469.913c-.213-.2-.307-.453-.307-.76 0-.306.107-.546.307-.76s.453-.306.76-.306.533.106.733.306.294.454.294.76c0 .307-.107.547-.294.76a.95.95 0 0 1-.733.307 1.08 1.08 0 0 1-.76-.307m1.507 1.84v9.414h-1.56v-9.414zM165.054 472.033c.506-.293 1.133-.453 1.866-.453v1.613h-.413c-1.76 0-2.627.947-2.627 2.854v5.12h-1.56v-9.414h1.56v1.534c.28-.534.667-.96 1.174-1.254M136.707 541.26v11.893h-1.56v-8.866l-3.947 8.866h-1.107l-3.973-8.88v8.88h-1.56V541.26h1.68l4.4 9.827 4.4-9.827zM141.067 552.7c-.72-.4-1.28-.973-1.68-1.707-.4-.733-.614-1.6-.614-2.573s.214-1.813.627-2.547a4.38 4.38 0 0 1 1.707-1.706c.72-.4 1.533-.587 2.426-.587s1.707.2 2.427.587c.72.4 1.293.96 1.707 1.693.413.733.626 1.587.626 2.56s-.213 1.827-.64 2.573a4.47 4.47 0 0 1-1.746 1.707q-1.1.6-2.44.6c-.894 0-1.68-.2-2.4-.6m3.986-1.173a3 3 0 0 0 1.2-1.187c.307-.533.454-1.173.454-1.92s-.147-1.4-.44-1.92-.694-.92-1.174-1.173a3.3 3.3 0 0 0-1.56-.387c-.56 0-1.093.133-1.573.387-.48.253-.853.653-1.147 1.173-.28.533-.426 1.173-.426 1.92s.146 1.413.426 1.947c.28.533.654.92 1.12 1.173s.987.387 1.547.387a3.3 3.3 0 0 0 1.587-.4zM157.733 544.593c.706.694 1.066 1.694 1.066 3v5.547h-1.546v-5.333c0-.947-.24-1.654-.707-2.16-.467-.494-1.107-.747-1.92-.747s-1.48.253-1.973.773-.734 1.267-.734 2.254v5.213h-1.56v-9.413h1.56v1.346a3.14 3.14 0 0 1 1.267-1.12q.8-.4 1.76-.4c1.147 0 2.08.347 2.787 1.04M161.4 541.887c-.213-.2-.306-.454-.306-.76 0-.307.106-.547.306-.76.2-.214.454-.307.76-.307.307 0 .534.107.734.307s.293.453.293.76c0 .306-.107.546-.293.76a.95.95 0 0 1-.734.306 1.08 1.08 0 0 1-.76-.306m1.52 1.84v9.413h-1.56v-9.413zM170.839 553.14l-3.693-4.16v4.16h-1.56v-12.72h1.56v7.48l3.627-4.173h2.186l-4.44 4.693 4.454 4.72zM174.427 545.873a4.1 4.1 0 0 1 1.614-1.693q1.02-.6 2.28-.6c.84 0 1.546.173 2.146.533.614.36 1.054.8 1.36 1.334v-1.72h1.587v9.413h-1.587v-1.747c-.306.547-.773 1-1.386 1.36-.614.36-1.32.547-2.134.547a4.44 4.44 0 0 1-2.266-.613 4.3 4.3 0 0 1-1.6-1.734c-.387-.746-.587-1.586-.587-2.546s.2-1.814.587-2.534zm6.96.694a2.9 2.9 0 0 0-1.16-1.214 3.2 3.2 0 0 0-1.613-.426c-.587 0-1.12.133-1.6.413s-.867.68-1.147 1.2-.426 1.147-.426 1.853c0 .707.146 1.347.426 1.88.28.534.667.947 1.147 1.227s1.013.427 1.6.427 1.12-.147 1.613-.427c.494-.28.88-.693 1.16-1.227.28-.533.427-1.16.427-1.866s-.147-1.334-.427-1.854z"/><path stroke="#BCBCBC" stroke-miterlimit="10" stroke-width=".64" d="M90.521 363.74h522.107M90.521 435.46h522.107M90.521 507.193h522.107"/><g filter="url(#b)"><path fill="#0093E1" d="M595.426 585.46c22.688 0 41.08-18.392 41.08-41.08s-18.392-41.08-41.08-41.08-41.08 18.392-41.08 41.08 18.392 41.08 41.08 41.08"/><path fill="#F5FAFF" stroke="#0093E1" stroke-width=".253" d="M614.692 532.807h-9.253c-.853 0-1.547.693-1.547 1.546v1.547c0 .853.694 1.547 1.547 1.547h6.933v19.266h-33.92v-19.266h6.934c.853 0 1.546-.694 1.546-1.547v-1.547c0-.853-.693-1.546-1.546-1.546h-9.254a2.316 2.316 0 0 0-2.306 2.306v23.894a2.316 2.316 0 0 0 2.306 2.306h38.547a2.316 2.316 0 0 0 2.307-2.306v-23.894a2.316 2.316 0 0 0-2.307-2.306z"/><path fill="#F5FAFF" stroke="#0093E1" stroke-width=".253" d="M585.466 541.767a.78.78 0 0 0 .16.84l9.253 9.253c.16.147.347.227.547.227a.8.8 0 0 0 .546-.227l9.254-9.253c.48-.467.12-1.347-.547-1.32h-5.4V528.18a.774.774 0 0 0-.773-.773h-6.174a.774.774 0 0 0-.773.773v13.107h-5.4c-.307 0-.6.186-.707.48z"/></g><g filter="url(#c)"><path fill="#fff" stroke="#0093E1" stroke-miterlimit="10" stroke-width=".4" d="M430.893 77.02H59.453a5.333 5.333 0 0 0-5.333 5.333v154.334a5.333 5.333 0 0 0 5.333 5.333h371.44a5.333 5.333 0 0 0 5.333-5.333V82.353a5.333 5.333 0 0 0-5.333-5.333Z"/><g filter="url(#d)"><path fill="#fff" stroke="#272223" stroke-miterlimit="10" stroke-width=".333" d="M135.399 219.313c33.027 0 59.8-26.773 59.8-59.8s-26.773-59.8-59.8-59.8-59.8 26.774-59.8 59.8c0 33.027 26.773 59.8 59.8 59.8Z"/><path fill="#97DCBB" d="M84.227 159.513c0 15.4 6.813 29.2 17.586 38.587 6.267-5.947 12.734-11.693 19.307-17.347-6.827-4.6-11.32-12.4-11.32-21.24 0-3.426.68-6.68 1.907-9.666-8.04-2.974-16.094-5.88-24.134-8.534a50.9 50.9 0 0 0-3.346 18.2"/><path fill="#97DCBB" d="M135.399 108.353c-21.853 0-40.48 13.694-47.826 32.974 8.04 2.666 16.093 5.56 24.133 8.533 3.813-9.347 12.973-15.933 23.693-15.933 13.694 0 24.854 10.773 25.534 24.293h25.6c-.694-27.653-23.307-49.867-51.134-49.867"/><path fill="#003A5E" d="M135.399 185.113c-5.293 0-10.2-1.6-14.28-4.346-6.573 5.653-13.04 11.4-19.307 17.346 8.987 7.827 20.721 12.587 33.587 12.587 14.467 0 27.52-6.013 36.827-15.653-7.76-4.587-15.667-9.014-23.067-13.947-3.973 2.533-8.68 4.027-13.747 4.027z"/><path fill="#9A7995" d="M160.986 159.513c0 9.067-4.733 17.014-11.84 21.56 7.413 4.934 15.32 9.36 23.067 13.947 8.88-9.2 14.346-21.707 14.346-35.507 0-.44-.026-.866-.026-1.293h-25.6c.026.427.066.853.066 1.293z"/></g><path fill="#000" d="M259.907 119.5c-.574.533-1.44.8-2.587.8h-2.067v4.36h-1.026v-10.24h3.093c1.147 0 2 .267 2.587.8.586.533.866 1.253.866 2.133s-.293 1.587-.866 2.12zm-.187-2.12c0-.68-.187-1.2-.573-1.547-.387-.346-.987-.533-1.827-.533h-2.067v4.133h2.067c1.6 0 2.4-.68 2.4-2.053M264.546 116.94c.466-.28 1.026-.414 1.706-.414v1.067h-.28c-.746 0-1.333.2-1.786.6q-.68.6-.68 2v4.467h-1.027v-8h1.027v1.426c.226-.493.573-.88 1.026-1.16zM275.001 121.073h-6.64c.027.6.173 1.12.44 1.547s.613.76 1.04.973a3.1 3.1 0 0 0 1.4.333q1 0 1.68-.48c.453-.32.76-.76.893-1.306h1.08a3.38 3.38 0 0 1-1.253 1.906c-.64.494-1.44.734-2.413.734a4.1 4.1 0 0 1-2.027-.507 3.47 3.47 0 0 1-1.4-1.44c-.333-.627-.507-1.347-.507-2.173s.16-1.56.494-2.187a3.5 3.5 0 0 1 1.386-1.44c.587-.333 1.28-.493 2.04-.493s1.427.16 2 .493a3.4 3.4 0 0 1 1.32 1.333c.307.56.467 1.187.467 1.867 0 .347 0 .613-.027.8zm-1.373-2.36a2.4 2.4 0 0 0-1.014-.947 3.1 3.1 0 0 0-1.4-.32c-.76 0-1.413.24-1.946.734-.534.493-.84 1.173-.894 2.066h5.627c0-.6-.107-1.106-.36-1.52zM277.413 124.153c-.586-.426-.906-1-.973-1.733h1.053c.054.453.267.813.64 1.093.374.28.88.414 1.52.414.56 0 1-.134 1.307-.4.32-.267.48-.587.48-.987a.94.94 0 0 0-.267-.68 1.8 1.8 0 0 0-.666-.413 9 9 0 0 0-1.094-.334c-.6-.16-1.08-.306-1.453-.466a2.6 2.6 0 0 1-.947-.694c-.253-.306-.386-.72-.386-1.24 0-.386.12-.746.346-1.08.227-.333.56-.6 1-.786s.92-.294 1.467-.294c.853 0 1.547.214 2.08.654s.813 1.026.853 1.8h-1.026c-.027-.467-.214-.854-.547-1.134-.333-.293-.8-.426-1.387-.426-.52 0-.933.12-1.253.36s-.48.546-.48.906c0 .307.093.574.28.774s.427.36.707.466.666.24 1.146.374c.574.16 1.04.306 1.374.453q.52.22.88.64c.24.28.373.653.386 1.133 0 .427-.12.814-.346 1.147-.227.333-.56.6-.987.8-.413.2-.907.293-1.453.293-.92 0-1.667-.213-2.254-.64M291.574 121.073h-6.64c.027.6.173 1.12.44 1.547s.613.76 1.04.973a3.1 3.1 0 0 0 1.4.333q1 0 1.68-.48c.453-.32.76-.76.893-1.306h1.08a3.38 3.38 0 0 1-1.253 1.906c-.64.494-1.44.734-2.413.734a4.1 4.1 0 0 1-2.027-.507 3.47 3.47 0 0 1-1.4-1.44c-.333-.627-.507-1.347-.507-2.173s.16-1.56.494-2.187a3.5 3.5 0 0 1 1.386-1.44c.587-.333 1.28-.493 2.04-.493s1.427.16 2 .493a3.4 3.4 0 0 1 1.32 1.333c.307.56.467 1.187.467 1.867 0 .347 0 .613-.027.8zm-1.36-2.36a2.4 2.4 0 0 0-1.013-.947 3.1 3.1 0 0 0-1.4-.32c-.76 0-1.414.24-1.947.734-.533.493-.84 1.173-.893 2.066h5.626c0-.6-.106-1.106-.36-1.52zM299.572 117.42c.6.586.907 1.453.907 2.573v4.693h-1.013v-4.573c0-.867-.214-1.533-.654-1.987-.44-.453-1.026-.693-1.773-.693s-1.387.24-1.84.733c-.453.494-.693 1.214-.693 2.16v4.36h-1.027v-8h1.027v1.36a2.54 2.54 0 0 1 1.093-1.12 3.45 3.45 0 0 1 1.627-.386c.96 0 1.733.293 2.346.88M304.092 117.54v4.96c0 .493.093.827.28 1.013.187.187.507.28.987.28h.933v.88h-1.093c-.72 0-1.254-.173-1.614-.506-.36-.334-.533-.894-.533-1.667v-4.96h-1.107v-.867h1.107v-2h1.04v2h2.2v.867zM260.16 159.66h-4.653l-.893 2.427h-1.08l3.733-10.107h1.16l3.72 10.107h-1.08l-.893-2.427zm-.306-.853-2.027-5.534-2.027 5.534h4.054M266.013 154.5c.547-.347 1.2-.533 1.96-.533s1.387.173 1.96.506a3.55 3.55 0 0 1 1.36 1.44c.334.627.494 1.334.494 2.16s-.16 1.547-.494 2.174a3.67 3.67 0 0 1-1.36 1.453c-.586.347-1.226.507-1.96.507-.76 0-1.413-.174-1.973-.52s-.96-.8-1.213-1.36v1.76h-1.014v-10.84h1.014v4.613a3.16 3.16 0 0 1 1.226-1.36m4.334 1.853a2.67 2.67 0 0 0-1.067-1.106 3.06 3.06 0 0 0-1.52-.387c-.56 0-1.053.133-1.507.4s-.813.64-1.08 1.133c-.266.494-.4 1.054-.4 1.694s.134 1.213.4 1.693c.267.493.627.867 1.08 1.133.454.267.947.4 1.507.4s1.067-.133 1.52-.386c.453-.254.8-.64 1.067-1.134.253-.493.386-1.066.386-1.72s-.133-1.24-.386-1.72M274.174 161.567c-.587-.427-.907-1-.973-1.734h1.053c.053.454.267.814.64 1.094s.88.413 1.52.413c.56 0 1-.133 1.307-.4.32-.267.48-.587.48-.987a.95.95 0 0 0-.267-.68c-.173-.173-.4-.32-.667-.413a9 9 0 0 0-1.093-.333c-.6-.16-1.08-.307-1.453-.467a2.6 2.6 0 0 1-.947-.693c-.253-.307-.387-.72-.387-1.24 0-.387.12-.747.347-1.08s.56-.6 1-.787.92-.293 1.467-.293c.853 0 1.546.213 2.08.653.533.44.813 1.027.853 1.8h-1.027c-.026-.467-.213-.853-.546-1.133-.334-.294-.8-.427-1.387-.427-.52 0-.933.12-1.253.36s-.48.547-.48.907c0 .306.093.573.28.773.186.2.426.36.706.467.28.106.667.24 1.147.373.573.16 1.04.307 1.373.453q.52.22.88.64c.24.28.374.654.387 1.134 0 .426-.12.813-.347 1.146-.226.334-.56.6-.986.8-.414.2-.907.294-1.454.294-.92 0-1.666-.214-2.253-.64M288.347 158.487h-6.64c.027.6.174 1.12.44 1.546.267.427.614.76 1.04.974s.894.333 1.4.333q1 0 1.68-.48c.454-.32.76-.76.894-1.307h1.08a3.38 3.38 0 0 1-1.254 1.907c-.64.493-1.44.733-2.413.733a4.1 4.1 0 0 1-2.027-.506 3.5 3.5 0 0 1-1.4-1.44c-.333-.627-.506-1.347-.506-2.174 0-.826.16-1.56.493-2.186.333-.627.8-1.107 1.387-1.44.586-.334 1.28-.494 2.04-.494s1.426.16 2 .494a3.43 3.43 0 0 1 1.32 1.333c.306.56.466 1.187.466 1.867 0 .346 0 .613-.026.8zm-1.373-2.36a2.4 2.4 0 0 0-1.013-.947 3.1 3.1 0 0 0-1.4-.32c-.76 0-1.414.24-1.947.733-.533.494-.84 1.174-.893 2.067h5.626c0-.6-.106-1.107-.36-1.52zM296.333 154.833c.6.587.907 1.454.907 2.574v4.693h-1.014v-4.573c0-.867-.213-1.534-.653-1.987s-1.027-.693-1.773-.693c-.747 0-1.387.24-1.84.733s-.694 1.213-.694 2.16v4.36h-1.026v-8h1.026v1.36a2.54 2.54 0 0 1 1.094-1.12 3.45 3.45 0 0 1 1.626-.387c.96 0 1.734.294 2.347.88M300.852 154.953v4.96c0 .494.094.827.28 1.014.187.186.507.28.987.28h.933v.88h-1.093c-.72 0-1.253-.174-1.613-.507s-.534-.893-.534-1.667v-4.96h-1.106v-.866h1.106v-2h1.04v2h2.2v.866zM255.253 198.673h3.68v.84h-4.706v-10.24h1.026zM267.6 195.9h-6.64c.026.6.173 1.12.44 1.547.266.426.613.76 1.04.973.426.213.893.333 1.4.333q.999 0 1.68-.48c.453-.32.76-.76.893-1.306h1.08a3.38 3.38 0 0 1-1.253 1.906c-.64.494-1.44.734-2.414.734a4.1 4.1 0 0 1-2.026-.507 3.47 3.47 0 0 1-1.4-1.44c-.334-.627-.507-1.347-.507-2.173s.16-1.56.493-2.187c.334-.627.8-1.107 1.387-1.44s1.28-.493 2.04-.493 1.427.16 2 .493a3.43 3.43 0 0 1 1.32 1.333c.307.56.467 1.187.467 1.867 0 .347 0 .613-.027.8zm-1.36-2.347a2.4 2.4 0 0 0-1.014-.946 3.1 3.1 0 0 0-1.4-.32c-.76 0-1.413.24-1.946.733-.534.493-.84 1.173-.894 2.067h5.627c0-.6-.107-1.107-.36-1.52zM269.532 193.34a3.74 3.74 0 0 1 1.36-1.44 3.9 3.9 0 0 1 1.974-.507c.733 0 1.413.174 1.973.534.547.346.947.8 1.2 1.346v-1.76h1.027v8h-1.027v-1.773c-.253.547-.653 1-1.213 1.36-.547.36-1.214.533-1.974.533a3.8 3.8 0 0 1-1.96-.506 3.5 3.5 0 0 1-1.36-1.454c-.333-.626-.493-1.346-.493-2.173s.16-1.547.493-2.16m6.094.467a2.86 2.86 0 0 0-1.08-1.134c-.454-.266-.96-.4-1.507-.4a3.07 3.07 0 0 0-1.52.387c-.44.253-.8.627-1.067 1.107-.253.48-.386 1.053-.386 1.72 0 .666.133 1.226.386 1.72.254.493.614.866 1.067 1.133s.96.387 1.52.387 1.053-.134 1.507-.4a2.86 2.86 0 0 0 1.08-1.134c.266-.493.4-1.053.4-1.693s-.134-1.213-.4-1.693M282.241 198.513l2.693-7h1.08l-3.213 8h-1.16l-3.214-8h1.094l2.693 7zM294.613 195.9h-6.64c.027.6.173 1.12.44 1.547s.613.76 1.04.973a3.1 3.1 0 0 0 1.4.333q1 0 1.68-.48c.453-.32.76-.76.893-1.306h1.08a3.38 3.38 0 0 1-1.253 1.906c-.64.494-1.44.734-2.413.734a4.1 4.1 0 0 1-2.027-.507 3.47 3.47 0 0 1-1.4-1.44c-.333-.627-.507-1.347-.507-2.173s.16-1.56.494-2.187a3.5 3.5 0 0 1 1.386-1.44c.587-.333 1.28-.493 2.04-.493s1.427.16 2 .493a3.4 3.4 0 0 1 1.32 1.333c.307.56.467 1.187.467 1.867 0 .347 0 .613-.027.8zm-1.373-2.347a2.4 2.4 0 0 0-1.014-.946 3.1 3.1 0 0 0-1.4-.32c-.76 0-1.413.24-1.946.733-.534.493-.84 1.173-.894 2.067h5.627c0-.6-.107-1.107-.36-1.52z"/><path fill="#97DCBB" d="M243.174 119.92a8.66 8.66 0 0 0-8.66-8.66 8.66 8.66 0 0 0-8.66 8.66 8.66 8.66 0 0 0 8.66 8.66 8.66 8.66 0 0 0 8.66-8.66"/><path fill="#003A5E" d="M243.174 156.546a8.66 8.66 0 1 0-17.32 0 8.66 8.66 0 0 0 17.32 0"/><path fill="#9A7995" d="M243.174 193.16a8.66 8.66 0 0 0-8.66-8.66 8.66 8.66 0 0 0-8.66 8.66 8.66 8.66 0 0 0 8.66 8.66 8.66 8.66 0 0 0 8.66-8.66"/></g><g filter="url(#e)"><path fill="#00A093" d="M326.841 185.127h324.16c1.653 0 2.986 1.386 2.986 3.093v51.52c0 1.707-1.333 3.093-2.986 3.093h-324.16c-1.654 0-2.987-1.386-2.987-3.093v-51.52c0-1.707 1.333-3.093 2.987-3.093"/><path fill="#fff" d="M317.187 175.233h325.774c1.653 0 2.986 1.387 2.986 3.093V231.5c0 1.706-1.333 3.093-2.986 3.093H317.187c-1.653 0-2.986-1.387-2.986-3.093v-53.174c0-1.706 1.333-3.093 2.986-3.093"/><path stroke="#00A093" stroke-width="1.04" d="M317.186 175.753H642.96c1.373 0 2.493 1.147 2.493 2.573V231.5c0 1.426-1.12 2.573-2.493 2.573H317.186c-1.373 0-2.493-1.147-2.493-2.573v-53.174c0-1.426 1.12-2.573 2.493-2.573Z"/><path fill="#000" d="M341.467 211.233q-1-.44-1.56-1.24a3.2 3.2 0 0 1-.587-1.827h1.774c.066.6.306 1.094.733 1.507s1.053.613 1.88.613 1.413-.2 1.867-.586c.453-.387.68-.907.68-1.52 0-.48-.134-.88-.4-1.187a2.55 2.55 0 0 0-1-.693c-.4-.16-.947-.334-1.627-.507-.84-.213-1.507-.44-2.013-.653-.507-.214-.934-.56-1.294-1.027s-.533-1.093-.533-1.88c0-.693.173-1.307.533-1.84q.52-.8 1.48-1.24t2.2-.44c1.187 0 2.16.293 2.92.893s1.187 1.387 1.28 2.374h-1.826c-.067-.48-.32-.92-.76-1.28-.454-.374-1.04-.56-1.787-.56-.693 0-1.253.173-1.693.533s-.654.853-.654 1.507c0 .466.134.84.387 1.133.267.293.587.507.96.667.387.146.92.32 1.613.52.84.226 1.507.453 2.027.68.507.226.947.573 1.307 1.04.36.466.546 1.106.546 1.906 0 .614-.16 1.2-.493 1.747s-.813.987-1.453 1.333c-.64.334-1.4.507-2.28.507s-1.587-.147-2.254-.44zM350.387 203.846a4.53 4.53 0 0 1 1.706-1.799c.72-.427 1.52-.641 2.414-.641.893 0 1.626.187 2.28.561.64.373 1.12.853 1.44 1.426v-1.826h1.68v9.986h-1.68V209.7c-.334.586-.814 1.067-1.467 1.453s-1.4.574-2.267.574c-.866 0-1.693-.214-2.4-.654-.72-.44-1.28-1.053-1.693-1.84-.413-.786-.613-1.693-.613-2.693s.213-1.92.613-2.68zm7.373.734a3.24 3.24 0 0 0-1.227-1.28 3.4 3.4 0 0 0-1.706-.44c-.627 0-1.187.147-1.694.44s-.92.72-1.226 1.28c-.307.56-.454 1.213-.454 1.96s.147 1.427.454 2c.306.573.706 1 1.226 1.293.507.294 1.08.44 1.694.44s1.186-.146 1.706-.44c.52-.293.92-.733 1.227-1.293s.453-1.227.453-1.973c0-.747-.146-1.414-.453-1.96zM364.359 198.073v13.48h-1.653v-13.48zM367.173 203.846a4.53 4.53 0 0 1 1.706-1.799c.72-.427 1.52-.641 2.414-.641.893 0 1.626.187 2.28.561.64.373 1.12.853 1.44 1.426v-1.826h1.68v9.986h-1.68V209.7c-.334.586-.814 1.067-1.467 1.453s-1.4.574-2.267.574c-.866 0-1.693-.214-2.4-.654-.72-.44-1.28-1.053-1.693-1.84-.413-.786-.613-1.693-.613-2.693s.213-1.92.613-2.68zm7.386.734a3.24 3.24 0 0 0-1.226-1.28 3.4 3.4 0 0 0-1.707-.44c-.627 0-1.187.147-1.693.44-.507.293-.92.72-1.227 1.28s-.453 1.213-.453 1.96.146 1.427.453 2 .707 1 1.227 1.293c.506.294 1.08.44 1.693.44s1.187-.146 1.707-.44c.52-.293.92-.733 1.226-1.293.307-.56.454-1.227.454-1.973 0-.747-.147-1.414-.454-1.96zM382.386 201.873c.546-.32 1.2-.48 1.973-.48v1.707h-.44c-1.853 0-2.787 1.013-2.787 3.027v5.426h-1.653v-9.986h1.653v1.626a3.2 3.2 0 0 1 1.254-1.333zM394.88 201.58l-6.013 14.68h-1.707l1.974-4.813-4.027-9.867h1.84l3.133 8.08 3.094-8.08zM408.948 199.633c1.013.52 1.786 1.254 2.333 2.214s.813 2.093.813 3.386-.266 2.427-.813 3.374a5.45 5.45 0 0 1-2.333 2.186q-1.521.76-3.6.76h-3.947V198.86h3.947c1.386 0 2.586.253 3.6.773m.16 9.254c.866-.867 1.293-2.08 1.293-3.654s-.44-2.813-1.307-3.693c-.866-.893-2.12-1.333-3.746-1.333h-2.294v9.986h2.294c1.64 0 2.893-.44 3.746-1.306zM414.333 199.633a1.1 1.1 0 0 1-.333-.8c0-.32.107-.587.333-.8s.48-.333.8-.333.56.106.774.333.32.48.32.8q0 .48-.32.8a1.06 1.06 0 0 1-.774.334c-.306 0-.586-.107-.8-.334m1.6 1.947v9.987h-1.653v-9.987zM420.227 211.327c-.613-.267-1.093-.627-1.44-1.094-.346-.466-.546-1-.586-1.613h1.706c.054.493.28.907.707 1.227.413.32.973.48 1.653.48.627 0 1.134-.134 1.494-.414s.546-.626.546-1.053-.2-.76-.586-.973c-.387-.214-.987-.427-1.8-.627-.747-.2-1.347-.387-1.814-.587a3.16 3.16 0 0 1-1.2-.893c-.333-.4-.506-.92-.506-1.56 0-.507.146-.973.453-1.4s.733-.76 1.293-1.013c.56-.254 1.2-.374 1.907-.374q1.66 0 2.68.84c.68.56 1.04 1.32 1.093 2.294h-1.653c-.04-.52-.24-.947-.627-1.254-.386-.32-.893-.48-1.533-.48-.6 0-1.067.134-1.427.387-.346.253-.533.587-.533 1 0 .333.107.6.32.813.213.214.48.387.8.507s.773.267 1.333.427c.72.2 1.294.386 1.747.573s.84.467 1.16.853c.32.387.493.867.507 1.48a2.52 2.52 0 0 1-.454 1.48c-.306.44-.733.774-1.28 1.027-.546.253-1.186.373-1.906.373-.76 0-1.454-.133-2.054-.386zM431.415 201.98q.98-.56 2.24-.56c.893 0 1.706.213 2.426.64s1.28 1.027 1.694 1.8.613 1.667.613 2.68-.213 1.907-.613 2.693a4.65 4.65 0 0 1-1.707 1.84c-.72.44-1.533.654-2.413.654s-1.614-.187-2.267-.56-1.133-.854-1.467-1.44v1.84h-1.653v-13.48h1.653v5.36c.334-.6.84-1.08 1.494-1.454zm4.826 2.587a3.24 3.24 0 0 0-1.226-1.28 3.4 3.4 0 0 0-1.707-.44c-.627 0-1.173.146-1.68.44-.52.293-.933.733-1.24 1.293s-.467 1.213-.467 1.96.16 1.413.467 1.973.72 1 1.24 1.294q.78.44 1.68.44c.6 0 1.187-.147 1.707-.44s.92-.734 1.226-1.294c.307-.56.454-1.226.454-2 0-.773-.147-1.413-.454-1.96zM449.428 201.58v9.986h-1.653v-1.48c-.32.507-.76.907-1.32 1.187s-1.187.427-1.867.427c-.773 0-1.48-.16-2.093-.48a3.5 3.5 0 0 1-1.467-1.454c-.36-.64-.533-1.426-.533-2.346v-5.84h1.64v5.626c0 .987.253 1.734.746 2.267.494.533 1.174.787 2.04.787s1.587-.28 2.094-.827.76-1.347.76-2.387v-5.48h1.653zM455.133 201.873c.547-.32 1.2-.48 1.974-.48v1.707h-.44c-1.854 0-2.787 1.013-2.787 3.027v5.426h-1.653v-9.986h1.653v1.626a3.2 3.2 0 0 1 1.253-1.333zM460.493 211.327c-.613-.267-1.093-.627-1.44-1.094-.347-.466-.547-1-.587-1.613h1.707c.053.493.28.907.707 1.227.413.32.973.48 1.653.48.627 0 1.133-.134 1.493-.414s.547-.626.547-1.053-.2-.76-.587-.973c-.386-.214-.986-.427-1.8-.627-.746-.2-1.346-.387-1.813-.587a3.15 3.15 0 0 1-1.2-.893c-.333-.4-.507-.92-.507-1.56 0-.507.147-.973.454-1.4.306-.427.733-.76 1.293-1.013.56-.254 1.2-.374 1.907-.374q1.66 0 2.68.84c.68.56 1.04 1.32 1.093 2.294h-1.653c-.04-.52-.24-.947-.627-1.254-.387-.32-.893-.48-1.533-.48-.6 0-1.067.134-1.427.387-.347.253-.533.587-.533 1 0 .333.106.6.32.813.213.214.48.387.8.507s.773.267 1.333.427c.72.2 1.293.386 1.747.573.453.187.84.467 1.16.853.32.387.493.867.506 1.48 0 .547-.146 1.04-.453 1.48s-.733.774-1.28 1.027-1.187.373-1.907.373c-.76 0-1.453-.133-2.053-.386zM477.586 207.18h-7.973c.066.986.4 1.746 1.013 2.306s1.36.827 2.227.827c.72 0 1.32-.16 1.8-.507a2.66 2.66 0 0 0 1.013-1.333h1.787c-.267.96-.8 1.733-1.6 2.347-.8.6-1.8.906-2.987.906-.947 0-1.8-.213-2.547-.64a4.5 4.5 0 0 1-1.76-1.813q-.64-1.18-.64-2.72c0-1.027.214-1.933.614-2.72.413-.773.986-1.373 1.733-1.787s1.6-.626 2.573-.626c.974 0 1.787.213 2.507.613a4.23 4.23 0 0 1 1.68 1.707c.4.72.587 1.533.587 2.453 0 .32-.014.653-.054 1zm-2.08-2.974c-.28-.453-.653-.8-1.133-1.04a3.5 3.5 0 0 0-1.6-.36c-.84 0-1.547.267-2.134.8-.586.534-.933 1.28-1.013 2.227h6.307c0-.627-.134-1.173-.414-1.627zM492.228 204.087v1.746h-7.48v-1.746zM499.359 200.18v-1.894h3.787v13.28h-2.093V200.18zM507.08 199.82c.707-1.187 1.933-1.773 3.667-1.773s2.96.586 3.666 1.773c.707 1.187 1.067 2.827 1.067 4.933 0 2.107-.36 3.787-1.067 4.987-.706 1.2-1.933 1.8-3.666 1.8-1.734 0-2.96-.6-3.667-1.8s-1.067-2.853-1.067-4.987.36-3.746 1.067-4.933m6.173 2.427c-.133-.68-.387-1.24-.773-1.667-.387-.427-.96-.64-1.733-.64s-1.347.213-1.734.64c-.386.427-.64.987-.773 1.667-.134.68-.187 1.506-.187 2.493s.053 1.88.187 2.573c.12.694.373 1.253.773 1.68s.974.64 1.734.64 1.346-.213 1.733-.64c.4-.427.653-.986.773-1.68.12-.693.187-1.547.187-2.573s-.067-1.813-.187-2.493M526.107 199.886l-5.067 11.68h-2.093l5.12-11.453h-6.734v-1.773h8.774zM534.973 200.58v3.72h4.373v1.693h-4.373v3.88h4.92v1.693h-7v-12.68h7v1.694zM556.706 201.846c.627.334 1.12.814 1.48 1.454s.534 1.426.534 2.333v5.92h-2.054v-5.613c0-.894-.226-1.587-.666-2.067q-.68-.72-1.84-.72c-.774 0-1.387.24-1.854.72-.453.48-.68 1.173-.68 2.067v5.613h-2.053v-5.613c0-.894-.227-1.587-.667-2.067q-.68-.72-1.84-.72c-.773 0-1.386.24-1.853.72-.453.48-.68 1.173-.68 2.067v5.613h-2.08v-10.04h2.08v1.147a3.34 3.34 0 0 1 1.293-.96 4.2 4.2 0 0 1 1.68-.347c.8 0 1.52.173 2.147.507a3.38 3.38 0 0 1 1.453 1.48c.307-.614.774-1.094 1.427-1.454a4.2 4.2 0 0 1 2.08-.533c.787 0 1.493.16 2.12.493zM564.879 201.833c.614-.32 1.294-.48 2.054-.48.88 0 1.666.213 2.4.653a4.57 4.57 0 0 1 1.706 1.814c.414.773.614 1.666.614 2.68 0 1.013-.214 1.906-.614 2.706a4.6 4.6 0 0 1-1.706 1.854c-.72.44-1.52.666-2.4.666-.76 0-1.44-.16-2.04-.466a4.4 4.4 0 0 1-1.454-1.16v6.226h-2.08v-14.813h2.08v1.48q.52-.7 1.44-1.16m4.227 2.867a2.84 2.84 0 0 0-1.133-1.147 3 3 0 0 0-1.507-.387 2.9 2.9 0 0 0-1.48.4c-.467.267-.84.654-1.133 1.174-.28.506-.427 1.106-.427 1.8 0 .693.147 1.293.427 1.813s.666.907 1.133 1.173q.7.4 1.48.4c.52 0 1.04-.133 1.507-.413.466-.267.84-.667 1.133-1.187s.427-1.133.427-1.826-.147-1.294-.427-1.787zM575.786 198.073v13.48h-2.08v-13.48zM580.307 211.073a4.65 4.65 0 0 1-1.8-1.827c-.44-.786-.653-1.693-.653-2.72 0-1.026.227-1.92.667-2.72a4.74 4.74 0 0 1 1.84-1.826q1.16-.64 2.6-.64t2.6.64a4.66 4.66 0 0 1 1.84 1.826q.68 1.18.68 2.72c0 1.027-.227 1.92-.694 2.72s-1.093 1.4-1.88 1.827a5.43 5.43 0 0 1-2.626.653c-.96 0-1.8-.213-2.574-.653m4.067-1.533c.467-.254.84-.64 1.133-1.147s.44-1.133.44-1.853-.133-1.347-.413-1.854a2.83 2.83 0 0 0-1.107-1.133 3.1 3.1 0 0 0-1.493-.387c-.533 0-1.027.134-1.48.387s-.813.64-1.08 1.133c-.267.494-.4 1.12-.4 1.854 0 1.08.28 1.92.827 2.506.546.587 1.253.88 2.08.88.533 0 1.04-.133 1.506-.386zM599.174 201.527l-6.16 14.746h-2.146l2.04-4.88-3.947-9.866h2.307l2.826 7.653 2.934-7.653zM609.868 207.313h-7.667c.067.8.36 1.44.894 1.933.533.48 1.186.734 1.973.734 1.12 0 1.907-.467 2.373-1.4h2.24a4.5 4.5 0 0 1-1.653 2.266q-1.2.88-2.96.88c-.96 0-1.813-.213-2.573-.653a4.6 4.6 0 0 1-1.787-1.827q-.64-1.18-.64-2.72c0-1.026.213-1.933.627-2.72a4.4 4.4 0 0 1 1.773-1.813c.76-.427 1.627-.64 2.613-.64.987 0 1.787.213 2.534.613s1.32.987 1.733 1.734c.413.746.613 1.613.613 2.573 0 .373-.026.72-.066 1.013zm-2.107-1.68c0-.76-.28-1.373-.813-1.84s-1.2-.693-1.987-.693q-1.08 0-1.84.68c-.506.453-.813 1.066-.906 1.853h5.56zM621.094 207.313h-7.666c.066.8.36 1.44.893 1.933.533.48 1.187.734 1.973.734 1.12 0 1.907-.467 2.374-1.4h2.24a4.52 4.52 0 0 1-1.654 2.266q-1.2.88-2.96.88c-.96 0-1.813-.213-2.573-.653a4.6 4.6 0 0 1-1.787-1.827q-.64-1.18-.64-2.72c0-1.026.214-1.933.627-2.72a4.4 4.4 0 0 1 1.773-1.813c.76-.427 1.627-.64 2.614-.64s1.786.213 2.533.613 1.32.987 1.733 1.734c.414.746.614 1.613.614 2.573 0 .373-.027.72-.067 1.013zm-2.093-1.68c0-.76-.28-1.373-.813-1.84-.534-.467-1.2-.693-1.987-.693q-1.08 0-1.84.68c-.507.453-.813 1.066-.907 1.853h5.56z"/></g><g filter="url(#f)"><path fill="#fff" d="M404.532 109.886c.733-4.92 5.08-8.773 9.893-10.04 2.76-.733 5.96-.653 8.16 1.16 2.68-2.72 5.613-5.186 8.547-7.64 1.946-1.64 3.906-3.266 5.84-4.906.64-.534 1.306-1.08 2.12-1.24 1.693-.334 3.173 1.08 4.306 2.36 2.734 3.066 5.454 6.146 8.2 9.213.147.173.174.573-.04.493 0-.333.24-.533.507-.733a6 6 0 0 1 4.107-1.093c.373.04.76.12 1.053.333.44.32.653.867.827 1.4a77 77 0 0 1 1.666 5.747c.027.04.12.026.12-.027s-.066-.093-.106-.067c.68.294 1.346.76 1.813 1.347.32.4.573.84.8 1.307 2.613 5.106 2.973 11.013 4.32 16.586.293 1.2.627 2.374.92 3.56.32 1.294.613 2.6.853 3.92.867 4.694 1.467 9.28 2.547 13.934.133.546.253 1.093.253 1.653.027 1.653-1.026 3.24-2.48 4.04-.773.427-1.64.653-2.493.867-.707.186-1.427.36-2.147.546-6.84 1.547-13.56 3.307-20.4 4.854-7.36 1.666-14.733 3.333-22.093 5-4.267.96-8.627 1.933-12.96 1.386-2.853-.36-3.653-4.24-4.333-7.026-.667-2.787-.894-5.694-1.827-8.414-.253-.706-.533-1.4-.733-2.12-.587-2.093-.374-4.373-1.12-6.413-1.534-4.173-3.427-8.027-4.494-12.347a129 129 0 0 1-.84-3.76c-.44-2.04-.88-4.08-1.146-6.16-.094-.76-.174-1.546.053-2.28.2-.613.587-1.146 1.04-1.6 2.253-2.28 5.64-2.906 8.773-3.533.24-.053.694-.173.48-.307z"/><path fill="#C0D7D5" d="m467.746 142.073-58.76 14.16-6.093-25.293c19.813-4.533 39.627-9.067 59.44-13.587 1.8 8.24 3.613 16.48 5.427 24.72zM417.653 102.473c5.24.12 9.733 4.16 10.413 9.493-6.84 1.734-13.68 3.48-20.52 5.227-.453-1.16-1.2-3.6-.52-6.413 1.067-4.36 5.253-8.414 10.627-8.307M431.959 100.473c1.894 1.347 3.507 3.054 5.107 4.734 4.84-1.254 9.68-2.507 14.52-3.747.267-.067.533-.133.813-.12.88.04 1.48.893 1.934 1.653.32.52.64 1.147.44 1.72-.214.614-.907.894-1.534 1.094a398 398 0 0 1-21.066 6.213c-.467.12-.987.24-1.414 0-.573-.307-.68-1.053-.76-1.693-.6-4.267-3.213-7.254-6.626-9.587.933-1.173 2.213-2.64 3.8-2.507 1.586.134 3.453 1.267 4.773 2.214z"/><path fill="#173552" d="M404.373 108.487c-2.187.24-4.387.96-6.467 1.666-1.533.52-2.84 1.6-3.587 3.04-.906 1.72-.88 3.814-.346 5.64.08.307.186.6.306.894.027.08.08.173.107.253.04.093.093.2.133.293 0 0-.08-.426-.093-.066 0 .613.347 1.386.493 1.986.16.667.32 1.32.494 1.987 2.626 10.64 5.333 21.253 8.026 31.867.414 1.666.667 3.36 1.44 4.893.947 1.907 2.56 3.44 4.574 4.173 1.24.454 2.653.6 3.96.387 2.506-.4 4.986-1.147 7.466-1.72 10.64-2.467 21.28-4.92 31.92-7.373 5.28-1.227 10.574-2.374 15.827-3.654 2.053-.493 3.187-2.186 3.253-4.253.04-1.147-.24-2.2-.546-3.307-.36-1.28-.6-2.6-.907-3.893s-.627-2.64-.933-3.96c-.054-.24-.334-1.187-.72-1.08-.387.107-.12 1.093-.08 1.293.586 2.64 1.053 5.347 1.786 7.947.24.84.454 1.48.214 2.36a3.34 3.34 0 0 1-1.974 2.293c-1 .414-2.2.56-3.266.8-1.227.28-2.44.56-3.667.84l-7.64 1.76c-9.88 2.28-19.76 4.574-29.627 6.84-2.44.56-4.893 1.134-7.333 1.694-1.667.386-3.4 1-5.133 1.08-1.6.08-3.24-.374-4.547-1.32a6.04 6.04 0 0 1-1.96-2.294 4.5 4.5 0 0 1-.32-.84c-.107-.386-.093-.32-.147-.653-.373-2.227-1.08-4.427-1.64-6.613-.613-2.44-1.24-4.88-1.853-7.32-1.253-4.987-2.52-9.96-3.8-14.934l-2.12-8.226c-.187-.707-.347-1.427-.613-2.107l.026.067c-.053-.134-.106-.254-.146-.387-.134-.387-.24-1.293-.147-1.907.307-1.92 1.693-3.533 3.467-4.306.773-.334 1.586-.574 2.386-.854 1.414-.506 2.76-.986 4.067-1.746.333-.2.067-1.334-.347-1.294z"/><path fill="#173552" d="M469.278 121.98c-1.266-1.013-2.826-.573-2.986-.52-4.787.987-9.56 1.987-14.347 2.973-5.08 1.76-7.347 7.294-5.547 11.32 1.44 3.227 5.36 5.2 9.414 4.44 4.68-.946 9.36-1.906 14.04-2.853.12 0 1.387.027 2.16-.987.627-.826.68-1.986.12-2.946-.613-3.24-1.227-6.467-1.84-9.707-.067-.293-.307-1.107-1.067-1.707z"/><path fill="#173552" d="M398.732 119.247c1.4.066 2.72-.24 4.08-.534 1.36-.293 2.666-.586 3.986-.88 2.707-.6 5.427-1.213 8.12-1.84 5.307-1.226 10.64-2.36 15.96-3.506 5.32-1.16 10.747-2.347 16.107-3.6 2.653-.614 5.307-1.254 7.96-1.84 1.827-.4 4.653-1.467 6.28-.027.907.8 1.147 2.347 1.52 3.44.467 1.413.947 2.827 1.333 4.253.8 2.987 1.427 6 2.08 9.014.08.36.2 1.053.547 1.293.28.187.44 0 .44-.32.027-.787-.187-2.147-1.053-2.453-.507-.187-.2 2.08.386 2.32l.16.106-.373-.666.067.16-.214-1.187v.173l.974.974c-.427-2.787-1.08-5.587-1.854-8.307-.76-2.72-1.493-5.44-2.48-8.067-.773-2.066-1.946-3.813-4.36-3.706-1.173.053-2.306.413-3.44.693q-2.06.52-4.12 1c-11.146 2.68-22.24 5.573-33.36 8.347-3.146.786-6.306 1.52-9.453 2.306-1.52.374-3.053.76-4.573 1.147-1.627.413-3.307.747-4.787 1.587-.027.013 0 .106.027.106h.013z"/><path fill="#173552" d="M398.053 132.046c2.227-.093 4.48-.813 6.653-1.306 2.174-.494 4.4-1 6.6-1.52 4.294-1 8.587-1.987 12.88-2.974q13.04-2.96 26.08-5.96c4.907-1.12 9.814-2.28 14.72-3.413.2-.053-.026-.987-.253-.933-17.4 3.933-34.76 7.986-52.173 11.88-2.454.56-4.907 1.106-7.374 1.666-2.453.56-5.04.894-7.306 1.88-.187.08-.027.667.173.654zM404.053 156.967c2.173-.08 4.36-.787 6.48-1.267 2.107-.493 4.28-.987 6.413-1.48 4.28-.987 8.56-1.987 12.84-2.96 8.627-1.96 17.227-3.933 25.854-5.907 4.84-1.106 9.68-2.24 14.52-3.36.2-.053-.027-.986-.254-.933-17.186 3.893-34.36 7.893-51.56 11.747-2.4.533-4.8 1.08-7.186 1.626-2.387.547-5.027.894-7.28 1.88-.187.08-.027.667.173.654"/><path fill="#fff" d="M449.691 133.22c.24 1.813 2.12 3.053 3.734 2.707 1.48-.307 2.706-1.947 2.333-3.694-.387-1.773-2.227-2.746-3.707-2.413-1.386.307-2.573 1.76-2.36 3.387z"/><path fill="#173552" d="M410.227 116.166c0-.4.066-.733 0-1.146-.067-.48-.107-.947-.107-1.44 0-.947.133-1.88.427-2.787.573-1.76 1.64-3.173 3.066-4.333 1.6-1.294 3.64-1.84 5.667-1.587.96.12 1.96.307 2.907.533.04 0 0-.093 0-.106-2.6-1.827-6.8-1.72-9.374.08-1.6 1.12-2.666 3.026-3.133 4.893a10.3 10.3 0 0 0-.293 3.133 9 9 0 0 0 .226 1.587c.12.52.307.773.6 1.187.014.026.027 0 .027-.014z"/><path fill="#173552" d="M405.414 117.9c.186-1.147-.374-2.48-.48-3.64-.107-1.24 0-2.493.253-3.72a12.48 12.48 0 0 1 3.867-6.76c4.386-3.973 11.266-4.493 15.986-.773 2.36 1.866 4.134 4.613 4.4 7.653.04.413.187 1.467.68 1.64.547.187.48-.6.44-.947-.76-6.573-5.546-12.52-12.426-13.093-3.267-.28-6.614.653-9.24 2.64-2.44 1.84-4.054 4.52-4.8 7.453-.454 1.747-.507 3.574-.294 5.36.107.88.28 1.747.547 2.587.173.52.427 1.48 1 1.707.053.013.08-.054.093-.08z"/><path fill="#173552" d="M423.119 101.167c1.467-.64 2.68-2.107 3.854-3.174s2.28-2.04 3.413-3.053c1.747-1.56 3.507-3.08 5.307-4.56.68-.56 1.36-1.133 2.093-1.613 1.36-.907 2.747-1.214 4.013.013 1.347 1.307 2.534 2.813 3.76 4.227 1.16 1.333 2.28 2.68 3.414 4.04 1.28 1.546 2.546 3.12 3.8 4.68l1.6 2c.28.346.36.493.36.973s0 .853.08 1.333c.026.174.133.614.346.654.067 0 .12.013.187.026.16.027.24-.04.293-.186.587-1.454-.12-3.32-1.053-4.48-1.133-1.4-2.28-2.8-3.413-4.2-2.467-3.014-4.96-6.027-7.654-8.854-1-1.053-2.146-2.733-3.706-2.84-1.294-.093-2.454.76-3.44 1.507-1.76 1.333-3.414 2.787-5.054 4.253a203 203 0 0 0-3.933 3.6c-.76.707-1.507 1.427-2.253 2.147-.827.8-1.707 1.6-2.307 2.587-.093.16 0 1.04.307.906z"/><path fill="#173552" d="M450.851 98.86c.574.267 1.213.093 1.8-.013.587-.107 1.227-.227 1.827-.334.853-.16 2.013-.466 2.76.134.693.56.867 1.68 1.093 2.48.32 1.186.6 2.373.867 3.573.053.227.267.907.587.907s.24-.654.213-.827a25.5 25.5 0 0 0-1.12-4.213c-.413-1.12-.747-2.44-1.547-3.347-.346-.387-.76-.693-1.28-.773s-1.053-.014-1.573.08c-.694.133-1.374.28-2.04.48-.667.2-1.413.333-1.813.92-.147.213.026.84.253.946z"/><path fill="#C0D7D5" d="m446.092 93.047-16.48 14.64-2.654-4.147 16-14.053z"/></g><path stroke="#00A093" stroke-linecap="round" stroke-miterlimit="10" stroke-width="2.813" d="m471.773 93.86 7.307-19.107M481.188 99.553l21.546-26.826M489.359 108.087l16.72-13.4"/><defs><filter id="b" width="108.187" height="108.187" x="544.586" y="493.54" color-interpolation-filters="sRGB" filterUnits="userSpaceOnUse"><feFlood flood-opacity="0" result="BackgroundImageFix"/><feColorMatrix in="SourceAlpha" result="hardAlpha" values="0 0 0 0 0 0 0 0 0 0 0 0 0 0 0 0 0 0 127 0"/><feOffset dx="3.253" dy="3.253"/><feGaussianBlur stdDeviation="6.507"/><feColorMatrix values="0 0 0 0 0 0 0 0 0 0 0 0 0 0 0 0 0 0 0.45 0"/><feBlend in2="BackgroundImageFix" result="effect1_dropShadow_73_846"/><feBlend in="SourceGraphic" in2="effect1_dropShadow_73_846" result="shape"/></filter><filter id="c" width="392.374" height="175.267" x="51.453" y="74.353" color-interpolation-filters="sRGB" filterUnits="userSpaceOnUse"><feFlood flood-opacity="0" result="BackgroundImageFix"/><feColorMatrix in="SourceAlpha" result="hardAlpha" values="0 0 0 0 0 0 0 0 0 0 0 0 0 0 0 0 0 0 127 0"/><feOffset dx="2.467" dy="2.467"/><feGaussianBlur stdDeviation="2.467"/><feColorMatrix values="0 0 0 0 0 0 0 0 0 0 0 0 0 0 0 0 0 0 0.25 0"/><feBlend in2="BackgroundImageFix" result="effect1_dropShadow_73_846"/><feBlend in="SourceGraphic" in2="effect1_dropShadow_73_846" result="shape"/></filter><filter id="d" width="126.813" height="126.813" x="73.713" y="97.827" color-interpolation-filters="sRGB" filterUnits="userSpaceOnUse"><feFlood flood-opacity="0" result="BackgroundImageFix"/><feColorMatrix in="SourceAlpha" result="hardAlpha" values="0 0 0 0 0 0 0 0 0 0 0 0 0 0 0 0 0 0 127 0"/><feOffset dx="1.72" dy="1.72"/><feGaussianBlur stdDeviation="1.72"/><feColorMatrix values="0 0 0 0 0 0 0 0 0 0 0 0 0 0 0 0 0 0 0.25 0"/><feBlend in2="BackgroundImageFix" result="effect1_dropShadow_73_846"/><feBlend in="SourceGraphic" in2="effect1_dropShadow_73_846" result="shape"/></filter><filter id="e" width="366.481" height="94.267" x="304.84" y="167.233" color-interpolation-filters="sRGB" filterUnits="userSpaceOnUse"><feFlood flood-opacity="0" result="BackgroundImageFix"/><feColorMatrix in="SourceAlpha" result="hardAlpha" values="0 0 0 0 0 0 0 0 0 0 0 0 0 0 0 0 0 0 127 0"/><feOffset dx="4" dy="5.333"/><feGaussianBlur stdDeviation="6.667"/><feColorMatrix values="0 0 0 0 0 0 0 0 0 0 0 0 0 0 0 0 0 0 0.35 0"/><feBlend in2="BackgroundImageFix" result="effect1_dropShadow_73_846"/><feBlend in="SourceGraphic" in2="effect1_dropShadow_73_846" result="shape"/></filter><filter id="f" width="94.92" height="95.45" x="389.599" y="80.813" color-interpolation-filters="sRGB" filterUnits="userSpaceOnUse"><feFlood flood-opacity="0" result="BackgroundImageFix"/><feColorMatrix in="SourceAlpha" result="hardAlpha" values="0 0 0 0 0 0 0 0 0 0 0 0 0 0 0 0 0 0 127 0"/><feOffset dx="4" dy="2.667"/><feGaussianBlur stdDeviation="4"/><feColorMatrix values="0 0 0 0 0 0 0 0 0 0 0 0 0 0 0 0 0 0 0.25 0"/><feBlend in2="BackgroundImageFix" result="effect1_dropShadow_73_846"/><feBlend in="SourceGraphic" in2="effect1_dropShadow_73_846" result="shape"/></filter><linearGradient id="a" x1="156" x2="568.667" y1="113.5" y2="638.833" gradientUnits="userSpaceOnUse"><stop stop-color="#7BA0BA"/><stop offset="1" stop-color="#013556"/></linearGradient></defs></svg>